{"glyphs":{"0":{"ha":833,"x_min":57,"x_max":801,"o":"m 407 -11 q 147 101 236 -11 q 57 429 57 214 q 103 737 57 608 q 238 933 150 865 q 450 1000 326 1000 q 711 887 621 1000 q 801 560 801 774 q 755 252 801 381 q 619 56 708 124 q 407 -11 531 -11 m 413 156 q 544 265 499 156 q 589 589 589 375 q 554 774 589 715 q 446 833 519 833 q 315 722 360 833 q 269 400 269 611 q 304 215 269 274 q 413 156 339 156 z "},"1":{"ha":833,"x_min":117,"x_max":775,"o":"m 775 174 l 760 0 l 117 0 l 131 174 l 342 174 l 389 746 l 181 629 l 194 819 l 499 989 l 625 989 l 560 174 l 775 174 z "},"2":{"ha":833,"x_min":63,"x_max":768,"o":"m 349 174 l 756 174 l 742 0 l 63 0 l 75 160 l 433 508 q 556 722 556 629 q 522 803 556 775 q 421 831 488 831 q 158 735 293 831 l 101 890 q 447 1001 238 1001 q 682 927 596 1001 q 768 724 768 853 q 727 571 768 643 q 586 401 686 499 l 349 174 z "},"3":{"ha":833,"x_min":25,"x_max":768,"o":"m 592 506 q 712 426 668 481 q 756 293 756 372 q 711 135 756 204 q 583 28 667 67 q 381 -11 499 -11 q 183 18 275 -11 q 25 100 92 47 l 107 256 q 383 160 236 160 q 508 194 465 160 q 551 293 551 229 q 511 386 551 357 q 386 415 471 415 l 247 415 l 261 585 l 379 585 q 512 619 467 585 q 557 719 557 654 q 522 802 557 774 q 419 831 486 831 q 158 735 286 831 l 101 890 q 253 972 163 943 q 446 1001 344 1001 q 613 970 540 1001 q 727 882 686 939 q 768 750 768 825 q 722 600 768 663 q 592 506 676 538 z "},"4":{"ha":833,"x_min":32,"x_max":810,"o":"m 796 181 l 661 181 l 647 0 l 435 0 l 449 181 l 32 181 l 43 342 l 547 989 l 724 989 l 674 349 l 810 349 l 796 181 m 461 349 l 485 654 l 250 349 l 461 349 z "},"5":{"ha":833,"x_min":53,"x_max":793,"o":"m 488 640 q 645 603 576 640 q 752 500 714 567 q 790 347 790 433 q 743 156 790 236 q 610 32 696 75 q 407 -11 524 -11 q 212 18 303 -11 q 53 100 121 47 l 135 256 q 404 160 257 160 q 536 203 489 160 q 583 324 583 246 q 540 433 583 393 q 419 472 497 472 q 319 455 367 472 q 236 404 271 438 l 113 404 l 158 989 l 793 989 l 779 822 l 357 822 l 339 607 q 488 640 406 640 z "},"6":{"ha":833,"x_min":57,"x_max":832,"o":"m 493 640 q 644 601 578 640 q 749 494 711 563 q 786 336 786 425 q 742 157 786 236 q 620 33 699 78 q 443 -12 542 -12 q 158 101 258 -12 q 57 426 57 215 q 110 731 57 601 q 263 931 164 861 q 496 1001 363 1001 q 676 972 588 1001 q 832 890 764 943 l 750 735 q 627 806 690 782 q 506 831 564 831 q 350 755 408 831 q 275 529 292 679 q 368 610 310 581 q 493 640 426 640 m 435 157 q 540 203 500 157 q 581 325 581 249 q 542 433 581 393 q 438 472 503 472 q 328 426 371 472 q 286 307 286 381 q 328 199 286 240 q 435 157 369 157 z "},"7":{"ha":833,"x_min":88,"x_max":822,"o":"m 822 989 l 811 828 l 317 0 l 88 0 l 575 815 l 100 815 l 114 989 l 822 989 z "},"8":{"ha":833,"x_min":29,"x_max":804,"o":"m 607 510 q 743 422 694 483 q 792 276 792 360 q 741 121 792 186 q 601 22 690 56 q 401 -11 513 -11 q 128 60 226 -11 q 29 260 29 131 q 90 418 29 351 q 254 510 150 485 q 135 596 178 538 q 92 728 92 654 q 141 876 92 814 q 276 969 190 938 q 468 1001 361 1001 q 642 972 565 1001 q 761 885 718 942 q 804 753 804 828 q 751 601 804 665 q 607 510 697 536 m 294 706 q 333 614 294 649 q 435 567 371 579 q 597 721 597 597 q 558 806 597 776 q 451 835 519 835 q 337 802 379 835 q 294 706 294 769 m 407 156 q 540 192 489 156 q 590 296 590 228 q 546 386 590 351 q 424 433 501 421 q 235 282 235 404 q 280 188 235 219 q 407 156 325 156 z "},"9":{"ha":833,"x_min":26,"x_max":801,"o":"m 414 1001 q 701 887 600 1001 q 801 563 801 772 q 748 258 801 388 q 595 58 694 128 q 363 -12 496 -12 q 181 17 269 -12 q 26 99 93 46 l 108 254 q 230 183 167 207 q 353 158 293 158 q 509 235 450 158 q 582 461 568 311 q 490 379 547 410 q 365 349 432 349 q 214 388 281 349 q 110 495 147 426 q 72 653 72 564 q 116 832 72 753 q 238 956 160 911 q 414 1001 315 1001 m 419 517 q 528 562 486 517 q 571 682 571 607 q 532 790 571 749 q 431 832 493 832 q 319 786 361 832 q 276 664 276 740 q 315 556 276 596 q 419 517 354 517 z "},"\u0000":{"ha":0,"x_min":0,"x_max":0,"o":""},"\r":{"ha":390,"x_min":0,"x_max":0,"o":""}," ":{"ha":390,"x_min":0,"x_max":0,"o":""},"A":{"ha":1054,"x_min":-42,"x_max":1042,"o":"m 753 219 l 292 219 l 181 0 l -42 0 l 489 989 l 665 989 l 1042 0 l 831 0 l 753 219 m 694 385 l 564 757 l 375 385 l 694 385 z "},"Á":{"ha":1054,"x_min":-42,"x_max":1042,"o":"m 753 219 l 292 219 l 181 0 l -42 0 l 489 989 l 665 989 l 1042 0 l 831 0 l 753 219 m 694 385 l 564 757 l 375 385 l 694 385 m 518 1074 l 675 1292 l 879 1292 l 647 1074 l 518 1074 z "},"Ă":{"ha":1054,"x_min":-42,"x_max":1042,"o":"m 753 219 l 292 219 l 181 0 l -42 0 l 489 989 l 665 989 l 1042 0 l 831 0 l 753 219 m 694 385 l 564 757 l 375 385 l 694 385 m 594 1086 q 437 1127 504 1086 q 346 1239 369 1168 l 449 1279 q 508 1228 469 1246 q 599 1211 547 1211 q 686 1228 646 1211 q 751 1279 726 1244 l 846 1239 q 750 1127 818 1168 q 594 1086 682 1086 z "},"Ắ":{"ha":1054,"x_min":-42,"x_max":1042,"o":"m 753 219 l 292 219 l 181 0 l -42 0 l 489 989 l 665 989 l 1042 0 l 831 0 l 753 219 m 694 385 l 564 757 l 375 385 l 694 385 m 685 1421 l 876 1421 l 656 1224 l 533 1224 l 685 1421 m 592 1067 q 435 1106 500 1067 q 344 1219 369 1144 l 425 1251 q 496 1193 449 1214 q 599 1172 543 1172 q 695 1193 646 1172 q 769 1251 744 1214 l 844 1219 q 742 1106 810 1144 q 592 1067 675 1067 z "},"Ặ":{"ha":1054,"x_min":-42,"x_max":1042,"o":"m 753 219 l 292 219 l 181 0 l -42 0 l 489 989 l 665 989 l 1042 0 l 831 0 l 753 219 m 694 385 l 564 757 l 375 385 l 694 385 m 592 -94 l 576 -279 l 382 -279 l 399 -94 l 592 -94 m 594 1086 q 437 1127 504 1086 q 346 1239 369 1168 l 449 1279 q 508 1228 469 1246 q 599 1211 547 1211 q 686 1228 646 1211 q 751 1279 726 1244 l 846 1239 q 750 1127 818 1168 q 594 1086 682 1086 z "},"Ằ":{"ha":1054,"x_min":-42,"x_max":1042,"o":"m 753 219 l 292 219 l 181 0 l -42 0 l 489 989 l 665 989 l 1042 0 l 831 0 l 753 219 m 694 385 l 564 757 l 375 385 l 694 385 m 354 1421 l 526 1421 l 656 1224 l 533 1224 l 354 1421 m 592 1067 q 435 1106 500 1067 q 344 1219 369 1144 l 425 1251 q 496 1193 449 1214 q 599 1172 543 1172 q 695 1193 646 1172 q 769 1251 744 1214 l 844 1219 q 742 1106 810 1144 q 592 1067 675 1067 z "},"Ẳ":{"ha":1054,"x_min":-42,"x_max":1042,"o":"m 753 219 l 292 219 l 181 0 l -42 0 l 489 989 l 665 989 l 1042 0 l 831 0 l 753 219 m 694 385 l 564 757 l 375 385 l 694 385 m 546 1251 q 566 1291 549 1278 q 614 1319 583 1304 q 642 1338 642 1329 q 611 1349 642 1349 q 514 1335 569 1349 l 494 1407 q 629 1429 558 1429 q 734 1408 696 1429 q 772 1351 772 1386 q 753 1308 772 1322 q 700 1278 735 1293 q 661 1258 674 1267 q 647 1236 649 1250 l 646 1225 l 543 1225 l 546 1251 m 592 1067 q 435 1106 500 1067 q 344 1219 369 1144 l 425 1251 q 496 1193 449 1214 q 599 1172 543 1172 q 695 1193 646 1172 q 769 1251 744 1214 l 844 1219 q 742 1106 810 1144 q 592 1067 675 1067 z "},"Ẵ":{"ha":1054,"x_min":-42,"x_max":1042,"o":"m 753 219 l 292 219 l 181 0 l -42 0 l 489 989 l 665 989 l 1042 0 l 831 0 l 753 219 m 694 385 l 564 757 l 375 385 l 694 385 m 697 1276 q 645 1283 669 1276 q 586 1303 621 1290 q 540 1319 558 1314 q 501 1324 521 1324 q 444 1281 451 1324 l 354 1281 q 404 1388 357 1347 q 513 1428 451 1428 q 565 1421 540 1428 q 624 1401 589 1414 q 670 1385 651 1390 q 708 1381 689 1381 q 747 1390 732 1381 q 764 1424 761 1399 l 854 1424 q 805 1317 853 1358 q 697 1276 757 1276 m 592 1067 q 435 1106 500 1067 q 344 1219 369 1144 l 425 1251 q 496 1193 449 1214 q 599 1172 543 1172 q 695 1193 646 1172 q 769 1251 744 1214 l 844 1219 q 742 1106 810 1144 q 592 1067 675 1067 z "},"Â":{"ha":1054,"x_min":-42,"x_max":1042,"o":"m 753 219 l 292 219 l 181 0 l -42 0 l 489 989 l 665 989 l 1042 0 l 831 0 l 753 219 m 694 385 l 564 757 l 375 385 l 694 385 m 339 1074 l 540 1292 l 660 1292 l 828 1074 l 671 1074 l 597 1193 l 496 1074 l 339 1074 z "},"Ấ":{"ha":1054,"x_min":-42,"x_max":1042,"o":"m 753 219 l 292 219 l 181 0 l -42 0 l 489 989 l 665 989 l 1042 0 l 831 0 l 753 219 m 694 385 l 564 757 l 375 385 l 694 385 m 838 1421 l 1022 1421 l 829 1224 l 726 1224 l 838 1421 m 539 1268 l 658 1268 l 828 1074 l 675 1074 l 594 1172 l 494 1074 l 339 1074 l 539 1268 z "},"Ậ":{"ha":1054,"x_min":-42,"x_max":1042,"o":"m 753 219 l 292 219 l 181 0 l -42 0 l 489 989 l 665 989 l 1042 0 l 831 0 l 753 219 m 694 385 l 564 757 l 375 385 l 694 385 m 592 -94 l 576 -279 l 382 -279 l 399 -94 l 592 -94 m 339 1074 l 540 1292 l 660 1292 l 828 1074 l 671 1074 l 597 1193 l 496 1074 l 339 1074 z "},"Ầ":{"ha":1054,"x_min":-42,"x_max":1042,"o":"m 753 219 l 292 219 l 181 0 l -42 0 l 489 989 l 665 989 l 1042 0 l 831 0 l 753 219 m 694 385 l 564 757 l 375 385 l 694 385 m 635 1421 l 799 1421 l 888 1224 l 785 1224 l 635 1421 m 539 1268 l 658 1268 l 828 1074 l 675 1074 l 594 1172 l 494 1074 l 339 1074 l 539 1268 z "},"Ẩ":{"ha":1054,"x_min":-42,"x_max":1042,"o":"m 753 219 l 292 219 l 181 0 l -42 0 l 489 989 l 665 989 l 1042 0 l 831 0 l 753 219 m 694 385 l 564 757 l 375 385 l 694 385 m 728 1251 q 748 1292 731 1278 q 797 1319 765 1306 q 825 1338 825 1329 q 793 1349 825 1349 q 697 1335 751 1349 l 678 1407 q 814 1429 739 1429 q 917 1408 879 1429 q 956 1351 956 1386 q 937 1308 956 1322 q 883 1278 918 1293 q 844 1258 857 1267 q 831 1236 832 1250 l 829 1225 l 725 1225 l 728 1251 m 539 1268 l 658 1268 l 828 1074 l 675 1074 l 594 1172 l 494 1074 l 339 1074 l 539 1268 z "},"Ẫ":{"ha":1054,"x_min":-42,"x_max":1042,"o":"m 753 219 l 292 219 l 181 0 l -42 0 l 489 989 l 665 989 l 1042 0 l 831 0 l 753 219 m 694 385 l 564 757 l 375 385 l 694 385 m 356 1292 q 406 1399 358 1358 q 514 1439 453 1439 q 625 1414 558 1439 q 672 1398 653 1403 q 710 1393 690 1393 q 748 1402 733 1393 q 765 1435 763 1411 l 856 1435 q 806 1330 854 1371 q 699 1289 758 1289 q 647 1296 671 1289 q 588 1315 622 1303 q 541 1331 560 1326 q 503 1336 522 1336 q 446 1292 453 1336 l 356 1292 m 539 1268 l 658 1268 l 828 1074 l 675 1074 l 594 1172 l 494 1074 l 339 1074 l 539 1268 z "},"Ȁ":{"ha":1054,"x_min":-42,"x_max":1042,"o":"m 753 219 l 292 219 l 181 0 l -42 0 l 489 989 l 665 989 l 1042 0 l 831 0 l 753 219 m 694 385 l 564 757 l 375 385 l 694 385 m 314 1292 l 450 1292 l 539 1074 l 435 1074 l 314 1292 m 508 1292 l 643 1292 l 732 1074 l 628 1074 l 508 1292 z "},"Ä":{"ha":1054,"x_min":-42,"x_max":1042,"o":"m 753 219 l 292 219 l 181 0 l -42 0 l 489 989 l 665 989 l 1042 0 l 831 0 l 753 219 m 694 385 l 564 757 l 375 385 l 694 385 m 564 1275 l 549 1092 l 354 1092 l 369 1275 l 564 1275 m 831 1275 l 815 1092 l 621 1092 l 636 1275 l 831 1275 z "},"Ạ":{"ha":1054,"x_min":-42,"x_max":1042,"o":"m 753 219 l 292 219 l 181 0 l -42 0 l 489 989 l 665 989 l 1042 0 l 831 0 l 753 219 m 694 385 l 564 757 l 375 385 l 694 385 m 592 -94 l 576 -279 l 382 -279 l 399 -94 l 592 -94 z "},"À":{"ha":1054,"x_min":-42,"x_max":1042,"o":"m 753 219 l 292 219 l 181 0 l -42 0 l 489 989 l 665 989 l 1042 0 l 831 0 l 753 219 m 694 385 l 564 757 l 375 385 l 694 385 m 332 1292 l 515 1292 l 647 1074 l 518 1074 l 332 1292 z "},"Ả":{"ha":1054,"x_min":-42,"x_max":1042,"o":"m 753 219 l 292 219 l 181 0 l -42 0 l 489 989 l 665 989 l 1042 0 l 831 0 l 753 219 m 694 385 l 564 757 l 375 385 l 694 385 m 635 1074 l 532 1074 l 535 1104 q 553 1142 536 1128 q 597 1168 569 1156 q 624 1182 615 1176 q 632 1196 632 1188 q 592 1215 632 1215 q 506 1200 553 1215 l 485 1275 q 615 1297 549 1297 q 723 1274 683 1297 q 763 1214 763 1250 q 743 1168 763 1185 q 689 1136 724 1151 q 650 1115 663 1124 q 636 1092 638 1106 l 635 1074 z "},"Ȃ":{"ha":1054,"x_min":-42,"x_max":1042,"o":"m 753 219 l 292 219 l 181 0 l -42 0 l 489 989 l 665 989 l 1042 0 l 831 0 l 753 219 m 694 385 l 564 757 l 375 385 l 694 385 m 589 1279 q 747 1239 681 1279 q 838 1128 814 1199 l 735 1086 q 675 1138 714 1119 q 585 1156 636 1156 q 432 1086 482 1156 l 338 1128 q 433 1238 365 1197 q 589 1279 501 1279 z "},"Ā":{"ha":1054,"x_min":-42,"x_max":1042,"o":"m 753 219 l 292 219 l 181 0 l -42 0 l 489 989 l 665 989 l 1042 0 l 831 0 l 753 219 m 694 385 l 564 757 l 375 385 l 694 385 m 378 1247 l 818 1247 l 807 1117 l 368 1117 l 378 1247 z "},"Ą":{"ha":1054,"x_min":-42,"x_max":1042,"o":"m 933 -167 q 1014 -149 969 -167 l 1029 -247 q 897 -276 963 -276 q 769 -235 818 -276 q 721 -128 721 -194 q 821 29 721 -25 l 753 219 l 292 219 l 181 0 l -42 0 l 489 989 l 665 989 l 1042 0 l 971 0 q 890 -28 922 0 q 858 -96 858 -56 q 878 -148 858 -129 q 933 -167 899 -167 m 694 385 l 564 757 l 375 385 l 694 385 z "},"Å":{"ha":1054,"x_min":-42,"x_max":1042,"o":"m 753 219 l 292 219 l 181 0 l -42 0 l 483 978 q 445 1028 458 999 q 432 1092 432 1058 q 477 1198 432 1154 q 586 1242 522 1242 q 694 1198 650 1242 q 739 1092 739 1154 q 722 1020 739 1053 q 674 967 704 988 l 1042 0 l 831 0 l 753 219 m 586 1154 q 542 1136 560 1154 q 525 1092 525 1118 q 542 1045 525 1064 q 586 1026 560 1026 q 630 1045 613 1026 q 647 1092 647 1064 q 630 1136 647 1118 q 586 1154 613 1154 m 694 385 l 564 757 l 375 385 l 694 385 z "},"Ǻ":{"ha":1054,"x_min":-42,"x_max":1042,"o":"m 753 219 l 292 219 l 181 0 l -42 0 l 483 978 q 445 1028 458 999 q 432 1092 432 1058 q 477 1198 432 1154 q 586 1242 522 1242 q 658 1224 622 1242 l 754 1326 l 961 1326 l 728 1149 q 739 1092 739 1119 q 722 1020 739 1053 q 674 967 704 988 l 1042 0 l 831 0 l 753 219 m 586 1154 q 542 1136 560 1154 q 525 1092 525 1118 q 542 1045 525 1064 q 586 1026 560 1026 q 630 1045 613 1026 q 647 1092 647 1064 q 630 1136 647 1118 q 586 1154 613 1154 m 694 385 l 564 757 l 375 385 l 694 385 z "},"Ã":{"ha":1054,"x_min":-42,"x_max":1042,"o":"m 753 219 l 292 219 l 181 0 l -42 0 l 489 989 l 665 989 l 1042 0 l 831 0 l 753 219 m 694 385 l 564 757 l 375 385 l 694 385 m 340 1083 q 392 1238 346 1189 q 507 1288 439 1288 q 558 1277 533 1288 q 613 1246 582 1267 q 655 1222 638 1231 q 689 1214 672 1214 q 753 1283 747 1214 l 844 1283 q 792 1128 839 1178 q 676 1079 744 1079 q 626 1090 650 1079 q 572 1121 601 1101 q 530 1144 547 1136 q 496 1153 513 1153 q 431 1083 439 1153 l 340 1083 z "},"Æ":{"ha":1403,"x_min":-71,"x_max":1400,"o":"m 939 819 l 938 588 l 1342 588 l 1326 418 l 936 418 l 935 169 l 1338 169 l 1322 0 l 732 0 l 735 219 l 317 219 l 169 0 l -71 0 l 628 989 l 1400 989 l 1389 819 l 939 819 m 742 819 l 717 819 l 426 385 l 736 385 l 742 819 z "},"Ǽ":{"ha":1403,"x_min":-71,"x_max":1400,"o":"m 939 819 l 938 588 l 1342 588 l 1326 418 l 936 418 l 935 169 l 1338 169 l 1322 0 l 732 0 l 735 219 l 317 219 l 169 0 l -71 0 l 628 989 l 1400 989 l 1389 819 l 939 819 m 742 819 l 717 819 l 426 385 l 736 385 l 742 819 m 704 1074 l 861 1292 l 1065 1292 l 833 1074 l 704 1074 z "},"B":{"ha":967,"x_min":74,"x_max":922,"o":"m 747 510 q 868 426 825 488 q 911 282 911 365 q 813 74 911 147 q 549 0 715 0 l 74 0 l 150 989 l 592 989 q 838 921 753 989 q 922 740 922 853 q 747 510 922 575 m 539 586 q 671 615 629 586 q 713 710 713 644 q 674 794 713 765 q 556 822 636 822 l 351 822 l 332 586 l 539 586 m 532 167 q 665 197 624 167 q 707 296 707 226 q 669 389 707 358 q 549 419 631 419 l 319 419 l 299 167 l 532 167 z "},"C":{"ha":951,"x_min":82,"x_max":942,"o":"m 547 -12 q 299 45 404 -12 q 138 210 194 103 q 82 461 82 317 q 146 746 82 624 q 326 935 210 868 q 597 1001 442 1001 q 787 972 699 1001 q 942 888 875 943 l 860 732 q 737 805 797 782 q 606 828 676 828 q 382 730 461 828 q 303 460 303 632 q 368 238 303 315 q 557 161 433 161 q 822 257 679 161 l 879 101 q 736 18 825 49 q 547 -12 647 -12 z "},"Ć":{"ha":951,"x_min":82,"x_max":942,"o":"m 547 -12 q 299 45 404 -12 q 138 210 194 103 q 82 461 82 317 q 146 746 82 624 q 326 935 210 868 q 597 1001 442 1001 q 787 972 699 1001 q 942 888 875 943 l 860 732 q 737 805 797 782 q 606 828 676 828 q 382 730 461 828 q 303 460 303 632 q 368 238 303 315 q 557 161 433 161 q 822 257 679 161 l 879 101 q 736 18 825 49 q 547 -12 647 -12 m 544 1074 l 701 1292 l 906 1292 l 674 1074 l 544 1074 z "},"Č":{"ha":951,"x_min":82,"x_max":942,"o":"m 547 -12 q 299 45 404 -12 q 138 210 194 103 q 82 461 82 317 q 146 746 82 624 q 326 935 210 868 q 597 1001 442 1001 q 787 972 699 1001 q 942 888 875 943 l 860 732 q 737 805 797 782 q 606 828 676 828 q 382 730 461 828 q 303 460 303 632 q 368 238 303 315 q 557 161 433 161 q 822 257 679 161 l 879 101 q 736 18 825 49 q 547 -12 647 -12 m 871 1292 l 669 1074 l 549 1074 l 382 1292 l 539 1292 l 622 1171 l 714 1292 l 871 1292 z "},"Ç":{"ha":951,"x_min":82,"x_max":942,"o":"m 879 101 q 744 21 828 51 q 568 -12 661 -10 l 558 -56 l 568 -56 q 651 -81 619 -56 q 683 -151 683 -107 q 634 -241 683 -206 q 497 -276 585 -276 q 422 -270 461 -276 q 357 -251 383 -264 l 379 -169 q 492 -189 442 -189 q 554 -153 554 -189 q 543 -133 554 -140 q 511 -125 532 -125 q 460 -135 496 -125 l 435 -106 l 456 -6 q 181 144 281 21 q 82 461 82 267 q 146 746 82 624 q 326 935 210 868 q 597 1001 442 1001 q 787 972 699 1001 q 942 888 875 943 l 860 732 q 737 805 797 782 q 606 828 676 828 q 382 730 461 828 q 303 460 303 632 q 368 238 303 315 q 557 161 433 161 q 822 257 679 161 l 879 101 z "},"Ḉ":{"ha":951,"x_min":82,"x_max":942,"o":"m 674 1074 l 544 1074 l 701 1292 l 906 1292 l 674 1074 m 879 101 q 744 21 828 51 q 568 -12 661 -10 l 558 -56 l 568 -56 q 651 -81 619 -56 q 683 -151 683 -107 q 634 -241 683 -206 q 497 -276 585 -276 q 422 -270 461 -276 q 357 -251 383 -264 l 379 -169 q 492 -189 442 -189 q 554 -153 554 -189 q 543 -133 554 -140 q 511 -125 532 -125 q 460 -135 496 -125 l 435 -106 l 456 -6 q 181 144 281 21 q 82 461 82 267 q 146 746 82 624 q 326 935 210 868 q 597 1001 442 1001 q 787 972 699 1001 q 942 888 875 943 l 860 732 q 737 805 797 782 q 606 828 676 828 q 382 730 461 828 q 303 460 303 632 q 368 238 303 315 q 557 161 433 161 q 822 257 679 161 l 879 101 z "},"Ĉ":{"ha":951,"x_min":82,"x_max":942,"o":"m 547 -12 q 299 45 404 -12 q 138 210 194 103 q 82 461 82 317 q 146 746 82 624 q 326 935 210 868 q 597 1001 442 1001 q 787 972 699 1001 q 942 888 875 943 l 860 732 q 737 805 797 782 q 606 828 676 828 q 382 730 461 828 q 303 460 303 632 q 368 238 303 315 q 557 161 433 161 q 822 257 679 161 l 879 101 q 736 18 825 49 q 547 -12 647 -12 m 365 1074 l 567 1292 l 686 1292 l 854 1074 l 697 1074 l 624 1193 l 522 1074 l 365 1074 z "},"Ċ":{"ha":951,"x_min":82,"x_max":942,"o":"m 547 -12 q 299 45 404 -12 q 138 210 194 103 q 82 461 82 317 q 146 746 82 624 q 326 935 210 868 q 597 1001 442 1001 q 787 972 699 1001 q 942 888 875 943 l 860 732 q 737 805 797 782 q 606 828 676 828 q 382 730 461 828 q 303 460 303 632 q 368 238 303 315 q 557 161 433 161 q 822 257 679 161 l 879 101 q 736 18 825 49 q 547 -12 647 -12 m 739 1282 l 724 1085 l 499 1085 l 514 1282 l 739 1282 z "},"D":{"ha":1069,"x_min":72,"x_max":1013,"o":"m 149 989 l 531 989 q 788 933 679 989 q 954 774 896 878 q 1013 528 1013 669 q 949 243 1013 361 q 763 63 885 125 q 472 0 642 0 l 72 0 l 149 989 m 454 175 q 711 263 626 175 q 796 529 796 350 q 721 741 796 668 q 503 814 646 814 l 354 814 l 303 175 l 454 175 z "},"Ǆ":{"ha":1903,"x_min":72,"x_max":1889,"o":"m 149 989 l 531 989 q 788 933 679 989 q 954 774 896 878 q 1013 528 1013 669 q 949 243 1013 361 q 763 63 885 125 q 472 0 642 0 l 72 0 l 149 989 m 454 175 q 711 263 626 175 q 796 529 796 350 q 721 741 796 668 q 503 814 646 814 l 354 814 l 303 175 l 454 175 m 1878 832 l 1353 171 l 1842 171 l 1828 0 l 1092 0 l 1103 158 l 1626 818 l 1156 818 l 1169 989 l 1889 989 l 1878 832 m 1796 1292 l 1594 1074 l 1474 1074 l 1307 1292 l 1464 1292 l 1547 1171 l 1639 1292 l 1796 1292 z "},"Ð":{"ha":1113,"x_min":26,"x_max":1056,"o":"m 572 989 q 830 933 721 989 q 997 774 939 878 q 1056 528 1056 669 q 992 243 1056 361 q 806 63 928 125 q 515 0 685 0 l 114 0 l 146 417 l 26 417 l 39 582 l 158 582 l 190 989 l 572 989 m 496 175 q 753 263 668 175 q 838 529 838 350 q 763 741 838 668 q 544 814 688 814 l 394 814 l 376 582 l 638 582 l 624 417 l 364 417 l 344 175 l 496 175 z "},"Ď":{"ha":1069,"x_min":72,"x_max":1013,"o":"m 149 989 l 531 989 q 788 933 679 989 q 954 774 896 878 q 1013 528 1013 669 q 949 243 1013 361 q 763 63 885 125 q 472 0 642 0 l 72 0 l 149 989 m 454 175 q 711 263 626 175 q 796 529 796 350 q 721 741 796 668 q 503 814 646 814 l 354 814 l 303 175 l 454 175 m 853 1292 l 651 1074 l 531 1074 l 364 1292 l 521 1292 l 604 1171 l 696 1292 l 853 1292 z "},"Đ":{"ha":1113,"x_min":26,"x_max":1056,"o":"m 572 989 q 830 933 721 989 q 997 774 939 878 q 1056 528 1056 669 q 992 243 1056 361 q 806 63 928 125 q 515 0 685 0 l 114 0 l 146 417 l 26 417 l 39 582 l 158 582 l 190 989 l 572 989 m 496 175 q 753 263 668 175 q 838 529 838 350 q 763 741 838 668 q 544 814 688 814 l 394 814 l 376 582 l 638 582 l 624 417 l 364 417 l 344 175 l 496 175 z "},"Ḍ":{"ha":1069,"x_min":72,"x_max":1013,"o":"m 149 989 l 531 989 q 788 933 679 989 q 954 774 896 878 q 1013 528 1013 669 q 949 243 1013 361 q 763 63 885 125 q 472 0 642 0 l 72 0 l 149 989 m 454 175 q 711 263 626 175 q 796 529 796 350 q 721 741 796 668 q 503 814 646 814 l 354 814 l 303 175 l 454 175 m 599 -94 l 583 -279 l 389 -279 l 406 -94 l 599 -94 z "},"Ḏ":{"ha":1069,"x_min":72,"x_max":1013,"o":"m 149 989 l 531 989 q 788 933 679 989 q 954 774 896 878 q 1013 528 1013 669 q 949 243 1013 361 q 763 63 885 125 q 472 0 642 0 l 72 0 l 149 989 m 454 175 q 711 263 626 175 q 796 529 796 350 q 721 741 796 668 q 503 814 646 814 l 354 814 l 303 175 l 454 175 m 279 -126 l 718 -126 l 708 -249 l 271 -249 l 279 -126 z "},"ǅ":{"ha":1806,"x_min":72,"x_max":1771,"o":"m 149 989 l 531 989 q 788 933 679 989 q 954 774 896 878 q 1013 528 1013 669 q 949 243 1013 361 q 763 63 885 125 q 472 0 642 0 l 72 0 l 149 989 m 454 175 q 711 263 626 175 q 796 529 796 350 q 721 741 796 668 q 503 814 646 814 l 354 814 l 303 175 l 454 175 m 1760 563 l 1372 157 l 1743 157 l 1729 0 l 1108 0 l 1121 147 l 1503 547 l 1157 547 l 1169 704 l 1771 704 l 1760 563 m 1750 1081 l 1546 794 l 1419 794 l 1260 1081 l 1419 1081 l 1493 917 l 1582 1081 l 1750 1081 z "},"E":{"ha":832,"x_min":72,"x_max":832,"o":"m 350 821 l 331 588 l 772 588 l 757 418 l 318 418 l 297 168 l 767 168 l 753 0 l 72 0 l 150 989 l 832 989 l 818 821 l 350 821 z "},"É":{"ha":832,"x_min":72,"x_max":832,"o":"m 350 821 l 331 588 l 772 588 l 757 418 l 318 418 l 297 168 l 767 168 l 753 0 l 72 0 l 150 989 l 832 989 l 818 821 l 350 821 m 456 1074 l 613 1292 l 817 1292 l 585 1074 l 456 1074 z "},"Ĕ":{"ha":832,"x_min":72,"x_max":832,"o":"m 350 821 l 331 588 l 772 588 l 757 418 l 318 418 l 297 168 l 767 168 l 753 0 l 72 0 l 150 989 l 832 989 l 818 821 l 350 821 m 532 1086 q 374 1127 442 1086 q 283 1239 307 1168 l 386 1279 q 446 1228 407 1246 q 536 1211 485 1211 q 624 1228 583 1211 q 689 1279 664 1244 l 783 1239 q 688 1127 756 1168 q 532 1086 619 1086 z "},"Ě":{"ha":832,"x_min":72,"x_max":832,"o":"m 350 821 l 331 588 l 772 588 l 757 418 l 318 418 l 297 168 l 767 168 l 753 0 l 72 0 l 150 989 l 832 989 l 818 821 l 350 821 m 782 1292 l 581 1074 l 460 1074 l 293 1292 l 450 1292 l 533 1171 l 625 1292 l 782 1292 z "},"Ȩ":{"ha":832,"x_min":72,"x_max":832,"o":"m 350 821 l 331 588 l 772 588 l 757 418 l 318 418 l 297 168 l 767 168 l 753 0 l 481 0 l 468 -56 l 478 -56 q 561 -81 529 -56 q 593 -151 593 -107 q 544 -241 593 -206 q 407 -276 494 -276 q 332 -270 371 -276 q 267 -251 293 -264 l 289 -169 q 401 -189 351 -189 q 464 -153 464 -189 q 453 -133 464 -140 q 421 -125 442 -125 q 369 -135 406 -125 l 344 -106 l 367 0 l 72 0 l 150 989 l 832 989 l 818 821 l 350 821 z "},"Ḝ":{"ha":832,"x_min":72,"x_max":832,"o":"m 532 1086 q 374 1127 442 1086 q 283 1239 307 1168 l 386 1279 q 446 1228 407 1246 q 536 1211 485 1211 q 624 1228 583 1211 q 689 1279 664 1244 l 783 1239 q 688 1127 756 1168 q 532 1086 619 1086 m 350 821 l 331 588 l 772 588 l 757 418 l 318 418 l 297 168 l 767 168 l 753 0 l 481 0 l 468 -56 l 478 -56 q 561 -81 529 -56 q 593 -151 593 -107 q 544 -241 593 -206 q 407 -276 494 -276 q 332 -270 371 -276 q 267 -251 293 -264 l 289 -169 q 401 -189 351 -189 q 464 -153 464 -189 q 453 -133 464 -140 q 421 -125 442 -125 q 369 -135 406 -125 l 344 -106 l 367 0 l 72 0 l 150 989 l 832 989 l 818 821 l 350 821 z "},"Ê":{"ha":832,"x_min":72,"x_max":832,"o":"m 350 821 l 331 588 l 772 588 l 757 418 l 318 418 l 297 168 l 767 168 l 753 0 l 72 0 l 150 989 l 832 989 l 818 821 l 350 821 m 276 1074 l 478 1292 l 597 1292 l 765 1074 l 608 1074 l 535 1193 l 433 1074 l 276 1074 z "},"Ế":{"ha":832,"x_min":72,"x_max":960,"o":"m 350 821 l 331 588 l 772 588 l 757 418 l 318 418 l 297 168 l 767 168 l 753 0 l 72 0 l 150 989 l 832 989 l 818 821 l 350 821 m 775 1421 l 960 1421 l 767 1224 l 664 1224 l 775 1421 m 476 1268 l 596 1268 l 765 1074 l 613 1074 l 532 1172 l 432 1074 l 276 1074 l 476 1268 z "},"Ệ":{"ha":832,"x_min":72,"x_max":832,"o":"m 350 821 l 331 588 l 772 588 l 757 418 l 318 418 l 297 168 l 767 168 l 753 0 l 72 0 l 150 989 l 832 989 l 818 821 l 350 821 m 526 -94 l 511 -279 l 317 -279 l 333 -94 l 526 -94 m 276 1074 l 478 1292 l 597 1292 l 765 1074 l 608 1074 l 535 1193 l 433 1074 l 276 1074 z "},"Ề":{"ha":832,"x_min":72,"x_max":832,"o":"m 350 821 l 331 588 l 772 588 l 757 418 l 318 418 l 297 168 l 767 168 l 753 0 l 72 0 l 150 989 l 832 989 l 818 821 l 350 821 m 572 1421 l 736 1421 l 825 1224 l 722 1224 l 572 1421 m 476 1268 l 596 1268 l 765 1074 l 613 1074 l 532 1172 l 432 1074 l 276 1074 l 476 1268 z "},"Ể":{"ha":832,"x_min":72,"x_max":893,"o":"m 350 821 l 331 588 l 772 588 l 757 418 l 318 418 l 297 168 l 767 168 l 753 0 l 72 0 l 150 989 l 832 989 l 818 821 l 350 821 m 665 1251 q 685 1292 668 1278 q 735 1319 703 1306 q 763 1338 763 1329 q 731 1349 763 1349 q 635 1335 689 1349 l 615 1407 q 751 1429 676 1429 q 855 1408 817 1429 q 893 1351 893 1386 q 874 1308 893 1322 q 821 1278 856 1293 q 782 1258 794 1267 q 768 1236 769 1250 l 767 1225 l 663 1225 l 665 1251 m 476 1268 l 596 1268 l 765 1074 l 613 1074 l 532 1172 l 432 1074 l 276 1074 l 476 1268 z "},"Ễ":{"ha":832,"x_min":72,"x_max":832,"o":"m 350 821 l 331 588 l 772 588 l 757 418 l 318 418 l 297 168 l 767 168 l 753 0 l 72 0 l 150 989 l 832 989 l 818 821 l 350 821 m 293 1292 q 343 1399 296 1358 q 451 1439 390 1439 q 563 1414 496 1439 q 609 1398 590 1403 q 647 1393 628 1393 q 685 1402 671 1393 q 703 1435 700 1411 l 793 1435 q 744 1330 792 1371 q 636 1289 696 1289 q 584 1296 608 1289 q 525 1315 560 1303 q 478 1331 497 1326 q 440 1336 460 1336 q 383 1292 390 1336 l 293 1292 m 476 1268 l 596 1268 l 765 1074 l 613 1074 l 532 1172 l 432 1074 l 276 1074 l 476 1268 z "},"Ȅ":{"ha":832,"x_min":72,"x_max":832,"o":"m 350 821 l 331 588 l 772 588 l 757 418 l 318 418 l 297 168 l 767 168 l 753 0 l 72 0 l 150 989 l 832 989 l 818 821 l 350 821 m 251 1292 l 388 1292 l 476 1074 l 372 1074 l 251 1292 m 446 1292 l 581 1292 l 669 1074 l 565 1074 l 446 1292 z "},"Ë":{"ha":832,"x_min":72,"x_max":832,"o":"m 350 821 l 331 588 l 772 588 l 757 418 l 318 418 l 297 168 l 767 168 l 753 0 l 72 0 l 150 989 l 832 989 l 818 821 l 350 821 m 501 1275 l 486 1092 l 292 1092 l 307 1275 l 501 1275 m 768 1275 l 753 1092 l 558 1092 l 574 1275 l 768 1275 z "},"Ė":{"ha":832,"x_min":72,"x_max":832,"o":"m 350 821 l 331 588 l 772 588 l 757 418 l 318 418 l 297 168 l 767 168 l 753 0 l 72 0 l 150 989 l 832 989 l 818 821 l 350 821 m 650 1282 l 635 1085 l 410 1085 l 425 1282 l 650 1282 z "},"Ẹ":{"ha":832,"x_min":72,"x_max":832,"o":"m 350 821 l 331 588 l 772 588 l 757 418 l 318 418 l 297 168 l 767 168 l 753 0 l 72 0 l 150 989 l 832 989 l 818 821 l 350 821 m 526 -94 l 511 -279 l 317 -279 l 333 -94 l 526 -94 z "},"È":{"ha":832,"x_min":72,"x_max":832,"o":"m 350 821 l 331 588 l 772 588 l 757 418 l 318 418 l 297 168 l 767 168 l 753 0 l 72 0 l 150 989 l 832 989 l 818 821 l 350 821 m 269 1292 l 453 1292 l 585 1074 l 456 1074 l 269 1292 z "},"Ẻ":{"ha":832,"x_min":72,"x_max":832,"o":"m 350 821 l 331 588 l 772 588 l 757 418 l 318 418 l 297 168 l 767 168 l 753 0 l 72 0 l 150 989 l 832 989 l 818 821 l 350 821 m 572 1074 l 469 1074 l 472 1104 q 490 1142 474 1128 q 535 1168 507 1156 q 561 1182 553 1176 q 569 1196 569 1188 q 529 1215 569 1215 q 443 1200 490 1215 l 422 1275 q 553 1297 486 1297 q 660 1274 621 1297 q 700 1214 700 1250 q 681 1168 700 1185 q 626 1136 661 1151 q 588 1115 600 1124 q 574 1092 575 1106 l 572 1074 z "},"Ȇ":{"ha":832,"x_min":72,"x_max":832,"o":"m 350 821 l 331 588 l 772 588 l 757 418 l 318 418 l 297 168 l 767 168 l 753 0 l 72 0 l 150 989 l 832 989 l 818 821 l 350 821 m 526 1279 q 685 1239 618 1279 q 775 1128 751 1199 l 672 1086 q 613 1138 651 1119 q 522 1156 574 1156 q 369 1086 419 1156 l 275 1128 q 371 1238 303 1197 q 526 1279 439 1279 z "},"Ē":{"ha":832,"x_min":72,"x_max":832,"o":"m 350 821 l 331 588 l 772 588 l 757 418 l 318 418 l 297 168 l 767 168 l 753 0 l 72 0 l 150 989 l 832 989 l 818 821 l 350 821 m 315 1247 l 756 1247 l 744 1117 l 306 1117 l 315 1247 z "},"Ḗ":{"ha":832,"x_min":72,"x_max":835,"o":"m 350 821 l 331 588 l 772 588 l 757 418 l 318 418 l 297 168 l 767 168 l 753 0 l 72 0 l 150 989 l 832 989 l 818 821 l 350 821 m 315 1247 l 756 1247 l 744 1117 l 306 1117 l 315 1247 m 474 1299 l 631 1517 l 835 1517 l 603 1299 l 474 1299 z "},"Ḕ":{"ha":832,"x_min":72,"x_max":832,"o":"m 350 821 l 331 588 l 772 588 l 757 418 l 318 418 l 297 168 l 767 168 l 753 0 l 72 0 l 150 989 l 832 989 l 818 821 l 350 821 m 315 1247 l 756 1247 l 744 1117 l 306 1117 l 315 1247 m 288 1517 l 471 1517 l 603 1299 l 474 1299 l 288 1517 z "},"Ę":{"ha":832,"x_min":72,"x_max":831,"o":"m 350 821 l 331 588 l 772 588 l 757 418 l 318 418 l 297 168 l 767 168 l 753 0 l 724 0 q 647 -27 678 0 q 617 -96 617 -54 q 637 -148 617 -129 q 692 -167 657 -167 q 774 -149 728 -167 l 789 -247 q 657 -276 717 -276 q 527 -235 575 -276 q 479 -128 479 -194 q 495 -58 479 -90 q 542 0 511 -25 l 72 0 l 150 989 l 831 989 l 817 821 l 350 821 z "},"Ẽ":{"ha":832,"x_min":72,"x_max":832,"o":"m 350 821 l 331 588 l 772 588 l 757 418 l 318 418 l 297 168 l 767 168 l 753 0 l 72 0 l 150 989 l 832 989 l 818 821 l 350 821 m 278 1083 q 330 1238 283 1189 q 444 1288 376 1288 q 495 1277 471 1288 q 550 1246 519 1267 q 592 1222 575 1231 q 626 1214 610 1214 q 690 1283 685 1214 l 782 1283 q 729 1128 776 1178 q 614 1079 682 1079 q 563 1090 588 1079 q 510 1121 539 1101 q 467 1144 485 1136 q 433 1153 450 1153 q 368 1083 376 1153 l 278 1083 z "},"F":{"ha":803,"x_min":72,"x_max":817,"o":"m 353 818 l 335 589 l 757 589 l 743 417 l 319 417 l 286 0 l 72 0 l 150 989 l 817 989 l 803 818 l 353 818 z "},"G":{"ha":1035,"x_min":82,"x_max":964,"o":"m 575 546 l 964 546 l 926 64 q 760 8 857 28 q 557 -12 663 -12 q 303 44 410 -12 q 139 208 196 101 q 82 460 82 315 q 146 746 82 624 q 328 935 210 868 q 606 1001 447 1001 q 964 888 829 1001 l 882 732 q 757 806 818 782 q 615 829 696 829 q 383 731 465 829 q 301 460 301 633 q 372 234 301 313 q 585 156 442 156 q 740 178 664 156 l 757 394 l 563 394 l 575 546 z "},"Ğ":{"ha":1035,"x_min":82,"x_max":964,"o":"m 575 546 l 964 546 l 926 64 q 760 8 857 28 q 557 -12 663 -12 q 303 44 410 -12 q 139 208 196 101 q 82 460 82 315 q 146 746 82 624 q 328 935 210 868 q 606 1001 447 1001 q 964 888 829 1001 l 882 732 q 757 806 818 782 q 615 829 696 829 q 383 731 465 829 q 301 460 301 633 q 372 234 301 313 q 585 156 442 156 q 740 178 664 156 l 757 394 l 563 394 l 575 546 m 639 1086 q 481 1127 549 1086 q 390 1239 414 1168 l 493 1279 q 553 1228 514 1246 q 643 1211 592 1211 q 731 1228 690 1211 q 796 1279 771 1244 l 890 1239 q 794 1127 863 1168 q 639 1086 726 1086 z "},"Ǧ":{"ha":1035,"x_min":82,"x_max":964,"o":"m 575 546 l 964 546 l 926 64 q 760 8 857 28 q 557 -12 663 -12 q 303 44 410 -12 q 139 208 196 101 q 82 460 82 315 q 146 746 82 624 q 328 935 210 868 q 606 1001 447 1001 q 964 888 829 1001 l 882 732 q 757 806 818 782 q 615 829 696 829 q 383 731 465 829 q 301 460 301 633 q 372 234 301 313 q 585 156 442 156 q 740 178 664 156 l 757 394 l 563 394 l 575 546 m 889 1292 l 688 1074 l 567 1074 l 400 1292 l 557 1292 l 640 1171 l 732 1292 l 889 1292 z "},"Ĝ":{"ha":1035,"x_min":82,"x_max":964,"o":"m 575 546 l 964 546 l 926 64 q 760 8 857 28 q 557 -12 663 -12 q 303 44 410 -12 q 139 208 196 101 q 82 460 82 315 q 146 746 82 624 q 328 935 210 868 q 606 1001 447 1001 q 964 888 829 1001 l 882 732 q 757 806 818 782 q 615 829 696 829 q 383 731 465 829 q 301 460 301 633 q 372 234 301 313 q 585 156 442 156 q 740 178 664 156 l 757 394 l 563 394 l 575 546 m 383 1074 l 585 1292 l 704 1292 l 872 1074 l 715 1074 l 642 1193 l 540 1074 l 383 1074 z "},"Ģ":{"ha":1035,"x_min":82,"x_max":964,"o":"m 575 546 l 964 546 l 926 64 q 760 8 857 28 q 557 -12 663 -12 q 303 44 410 -12 q 139 208 196 101 q 82 460 82 315 q 146 746 82 624 q 328 935 210 868 q 606 1001 447 1001 q 964 888 829 1001 l 882 732 q 757 806 818 782 q 615 829 696 829 q 383 731 465 829 q 301 460 301 633 q 372 234 301 313 q 585 156 442 156 q 740 178 664 156 l 757 394 l 563 394 l 575 546 m 651 -93 l 644 -182 q 616 -296 639 -247 q 543 -386 593 -344 l 472 -333 q 528 -251 515 -294 l 429 -251 l 442 -93 l 651 -93 z "},"Ġ":{"ha":1035,"x_min":82,"x_max":964,"o":"m 575 546 l 964 546 l 926 64 q 760 8 857 28 q 557 -12 663 -12 q 303 44 410 -12 q 139 208 196 101 q 82 460 82 315 q 146 746 82 624 q 328 935 210 868 q 606 1001 447 1001 q 964 888 829 1001 l 882 732 q 757 806 818 782 q 615 829 696 829 q 383 731 465 829 q 301 460 301 633 q 372 234 301 313 q 585 156 442 156 q 740 178 664 156 l 757 394 l 563 394 l 575 546 m 757 1282 l 742 1085 l 517 1085 l 532 1282 l 757 1282 z "},"Ḡ":{"ha":1035,"x_min":82,"x_max":964,"o":"m 575 546 l 964 546 l 926 64 q 760 8 857 28 q 557 -12 663 -12 q 303 44 410 -12 q 139 208 196 101 q 82 460 82 315 q 146 746 82 624 q 328 935 210 868 q 606 1001 447 1001 q 964 888 829 1001 l 882 732 q 757 806 818 782 q 615 829 696 829 q 383 731 465 829 q 301 460 301 633 q 372 234 301 313 q 585 156 442 156 q 740 178 664 156 l 757 394 l 563 394 l 575 546 m 422 1247 l 863 1247 l 851 1117 l 413 1117 l 422 1247 z "},"H":{"ha":1082,"x_min":72,"x_max":1033,"o":"m 1033 989 l 956 0 l 742 0 l 775 415 l 318 415 l 285 0 l 72 0 l 150 989 l 364 989 l 332 589 l 789 589 l 821 989 l 1033 989 z "},"Ħ":{"ha":1164,"x_min":49,"x_max":1185,"o":"m 1174 713 l 1078 713 l 1021 0 l 808 0 l 842 415 l 386 415 l 353 0 l 139 0 l 196 713 l 49 713 l 61 872 l 208 872 l 218 989 l 431 989 l 421 872 l 876 872 l 886 989 l 1100 989 l 1090 872 l 1185 872 l 1174 713 m 864 713 l 408 713 l 399 589 l 854 589 l 864 713 z "},"Ḫ":{"ha":1082,"x_min":72,"x_max":1033,"o":"m 1033 989 l 956 0 l 742 0 l 775 415 l 318 415 l 285 0 l 72 0 l 150 989 l 364 989 l 332 589 l 789 589 l 821 989 l 1033 989 m 499 -318 q 340 -266 408 -318 q 247 -115 272 -214 l 347 -75 q 416 -159 374 -132 q 508 -186 458 -186 q 672 -75 606 -186 l 767 -115 q 664 -267 738 -215 q 499 -318 590 -318 z "},"Ĥ":{"ha":1082,"x_min":72,"x_max":1033,"o":"m 1033 989 l 956 0 l 742 0 l 775 415 l 318 415 l 285 0 l 72 0 l 150 989 l 364 989 l 332 589 l 789 589 l 821 989 l 1033 989 m 353 1074 l 554 1292 l 674 1292 l 842 1074 l 685 1074 l 611 1193 l 510 1074 l 353 1074 z "},"Ḥ":{"ha":1082,"x_min":72,"x_max":1033,"o":"m 1033 989 l 956 0 l 742 0 l 775 415 l 318 415 l 285 0 l 72 0 l 150 989 l 364 989 l 332 589 l 789 589 l 821 989 l 1033 989 m 606 -94 l 590 -279 l 396 -279 l 413 -94 l 606 -94 z "},"I":{"ha":415,"x_min":72,"x_max":367,"o":"m 149 989 l 367 989 l 289 0 l 72 0 l 149 989 z "},"Í":{"ha":415,"x_min":72,"x_max":561,"o":"m 149 989 l 367 989 l 289 0 l 72 0 l 149 989 m 200 1074 l 357 1292 l 561 1292 l 329 1074 l 200 1074 z "},"Ĭ":{"ha":415,"x_min":28,"x_max":528,"o":"m 149 989 l 367 989 l 289 0 l 72 0 l 149 989 m 276 1086 q 119 1127 186 1086 q 28 1239 51 1168 l 131 1279 q 190 1228 151 1246 q 281 1211 229 1211 q 368 1228 328 1211 q 433 1279 408 1244 l 528 1239 q 432 1127 500 1168 q 276 1086 364 1086 z "},"Î":{"ha":415,"x_min":21,"x_max":510,"o":"m 149 989 l 367 989 l 289 0 l 72 0 l 149 989 m 21 1074 l 222 1292 l 342 1292 l 510 1074 l 353 1074 l 279 1193 l 178 1074 l 21 1074 z "},"Ȉ":{"ha":415,"x_min":-4,"x_max":414,"o":"m 149 989 l 367 989 l 289 0 l 72 0 l 149 989 m -4 1292 l 132 1292 l 221 1074 l 117 1074 l -4 1292 m 190 1292 l 325 1292 l 414 1074 l 310 1074 l 190 1292 z "},"Ï":{"ha":415,"x_min":36,"x_max":513,"o":"m 149 989 l 367 989 l 289 0 l 72 0 l 149 989 m 246 1275 l 231 1092 l 36 1092 l 51 1275 l 246 1275 m 513 1275 l 497 1092 l 303 1092 l 318 1275 l 513 1275 z "},"Ḯ":{"ha":415,"x_min":36,"x_max":579,"o":"m 149 989 l 367 989 l 289 0 l 72 0 l 149 989 m 246 1275 l 231 1092 l 36 1092 l 51 1275 l 246 1275 m 513 1275 l 497 1092 l 303 1092 l 318 1275 l 513 1275 m 218 1299 l 375 1517 l 579 1517 l 347 1299 l 218 1299 z "},"İ":{"ha":415,"x_min":72,"x_max":394,"o":"m 149 989 l 367 989 l 289 0 l 72 0 l 149 989 m 394 1282 l 379 1085 l 154 1085 l 169 1282 l 394 1282 z "},"Ị":{"ha":415,"x_min":61,"x_max":367,"o":"m 149 989 l 367 989 l 289 0 l 72 0 l 149 989 m 271 -94 l 256 -279 l 61 -279 l 78 -94 l 271 -94 z "},"Ì":{"ha":415,"x_min":14,"x_max":367,"o":"m 149 989 l 367 989 l 289 0 l 72 0 l 149 989 m 14 1292 l 197 1292 l 329 1074 l 200 1074 l 14 1292 z "},"Ỉ":{"ha":415,"x_min":72,"x_max":444,"o":"m 149 989 l 367 989 l 289 0 l 72 0 l 149 989 m 317 1074 l 214 1074 l 217 1104 q 235 1142 218 1128 q 279 1168 251 1156 q 306 1182 297 1176 q 314 1196 314 1188 q 274 1215 314 1215 q 188 1200 235 1215 l 167 1275 q 297 1297 231 1297 q 405 1274 365 1297 q 444 1214 444 1250 q 425 1168 444 1185 q 371 1136 406 1151 q 332 1115 344 1124 q 318 1092 319 1106 l 317 1074 z "},"Ȋ":{"ha":415,"x_min":19,"x_max":519,"o":"m 149 989 l 367 989 l 289 0 l 72 0 l 149 989 m 271 1279 q 429 1239 363 1279 q 519 1128 496 1199 l 417 1086 q 357 1138 396 1119 q 267 1156 318 1156 q 114 1086 164 1156 l 19 1128 q 115 1238 47 1197 q 271 1279 183 1279 z "},"Ī":{"ha":415,"x_min":50,"x_max":500,"o":"m 149 989 l 367 989 l 289 0 l 72 0 l 149 989 m 60 1247 l 500 1247 l 489 1117 l 50 1117 l 60 1247 z "},"Į":{"ha":415,"x_min":7,"x_max":367,"o":"m 221 -167 q 300 -149 256 -167 l 315 -247 q 183 -276 249 -276 q 55 -235 103 -276 q 7 -125 7 -193 q 72 8 7 -42 l 149 989 l 367 989 l 289 0 l 269 0 q 176 -27 207 0 q 144 -96 144 -54 q 165 -148 144 -129 q 221 -167 185 -167 z "},"Ĩ":{"ha":415,"x_min":22,"x_max":526,"o":"m 149 989 l 367 989 l 289 0 l 72 0 l 149 989 m 22 1083 q 74 1238 28 1189 q 189 1288 121 1288 q 240 1277 215 1288 q 294 1246 264 1267 q 337 1222 319 1231 q 371 1214 354 1214 q 435 1283 429 1214 l 526 1283 q 474 1128 521 1178 q 358 1079 426 1079 q 308 1090 332 1079 q 254 1121 283 1101 q 212 1144 229 1136 q 178 1153 194 1153 q 113 1083 121 1153 l 22 1083 z "},"J":{"ha":529,"x_min":-46,"x_max":479,"o":"m -33 -74 q 60 -82 21 -82 q 153 -51 125 -82 q 188 56 182 -21 l 263 989 l 479 989 l 407 58 q 319 -183 393 -106 q 90 -261 244 -261 q -46 -249 29 -261 l -33 -74 z "},"Ĵ":{"ha":529,"x_min":-46,"x_max":622,"o":"m -33 -74 q 60 -82 21 -82 q 153 -51 125 -82 q 188 56 182 -21 l 263 989 l 479 989 l 407 58 q 319 -183 393 -106 q 90 -261 244 -261 q -46 -249 29 -261 l -33 -74 m 133 1074 l 335 1292 l 454 1292 l 622 1074 l 465 1074 l 392 1193 l 290 1074 l 133 1074 z "},"K":{"ha":951,"x_min":74,"x_max":1040,"o":"m 546 507 l 982 0 l 728 0 l 326 454 l 290 0 l 74 0 l 150 989 l 368 989 l 333 553 l 775 989 l 1040 989 l 546 507 z "},"Ķ":{"ha":951,"x_min":74,"x_max":1040,"o":"m 546 507 l 982 0 l 728 0 l 326 454 l 290 0 l 74 0 l 150 989 l 368 989 l 333 553 l 775 989 l 1040 989 l 546 507 m 550 -93 l 543 -182 q 515 -296 538 -247 q 442 -386 492 -344 l 371 -333 q 426 -251 414 -294 l 328 -251 l 340 -93 l 550 -93 z "},"L":{"ha":790,"x_min":72,"x_max":744,"o":"m 150 989 l 368 989 l 303 176 l 744 176 l 731 0 l 72 0 l 150 989 z "},"Ǉ":{"ha":1250,"x_min":72,"x_max":1203,"o":"m 150 989 l 368 989 l 303 176 l 703 176 l 689 0 l 72 0 l 150 989 m 689 -74 q 782 -82 743 -82 q 876 -51 847 -82 q 911 56 906 -21 l 983 989 l 1203 989 l 1129 58 q 1040 -183 1115 -106 q 811 -261 965 -261 q 675 -249 750 -261 l 689 -74 z "},"Ĺ":{"ha":790,"x_min":72,"x_max":744,"o":"m 150 989 l 368 989 l 303 176 l 744 176 l 731 0 l 72 0 l 150 989 m 199 1074 l 356 1292 l 560 1292 l 328 1074 l 199 1074 z "},"Ľ":{"ha":790,"x_min":72,"x_max":744,"o":"m 150 989 l 368 989 l 303 176 l 744 176 l 731 0 l 72 0 l 150 989 m 468 717 l 489 989 l 625 989 l 567 717 l 468 717 z "},"Ļ":{"ha":790,"x_min":72,"x_max":744,"o":"m 150 989 l 368 989 l 303 176 l 744 176 l 731 0 l 72 0 l 150 989 m 510 -93 l 503 -182 q 474 -296 497 -247 q 401 -386 451 -344 l 331 -333 q 386 -251 374 -294 l 288 -251 l 300 -93 l 510 -93 z "},"Ŀ":{"ha":790,"x_min":72,"x_max":744,"o":"m 150 989 l 368 989 l 303 176 l 744 176 l 731 0 l 72 0 l 150 989 m 681 593 l 665 397 l 440 397 l 456 593 l 681 593 z "},"Ḷ":{"ha":790,"x_min":72,"x_max":744,"o":"m 150 989 l 368 989 l 303 176 l 744 176 l 731 0 l 72 0 l 150 989 m 503 -94 l 488 -279 l 293 -279 l 310 -94 l 503 -94 z "},"ǈ":{"ha":1171,"x_min":72,"x_max":1146,"o":"m 150 989 l 368 989 l 303 176 l 744 176 l 731 0 l 72 0 l 150 989 m 663 -129 q 729 -139 701 -139 q 809 -112 778 -139 q 846 -25 840 -85 l 904 704 l 1114 704 l 1056 -31 q 971 -237 1044 -164 q 768 -311 897 -311 q 650 -293 694 -311 l 663 -129 m 1146 1035 l 1131 838 l 906 838 l 921 1035 l 1146 1035 z "},"Ḻ":{"ha":790,"x_min":72,"x_max":744,"o":"m 150 989 l 368 989 l 303 176 l 744 176 l 731 0 l 72 0 l 150 989 m 183 -126 l 622 -126 l 613 -249 l 175 -249 l 183 -126 z "},"Ł":{"ha":832,"x_min":8,"x_max":788,"o":"m 788 176 l 774 0 l 114 0 l 140 343 l 8 271 l 24 456 l 156 528 l 192 989 l 410 989 l 383 654 l 653 803 l 638 617 l 368 468 l 344 176 l 788 176 z "},"M":{"ha":1182,"x_min":75,"x_max":1131,"o":"m 1131 989 l 1054 0 l 863 0 l 904 536 l 635 0 l 494 0 l 307 532 l 265 0 l 75 0 l 151 989 l 324 989 l 585 256 l 960 989 l 1131 989 z "},"Ṃ":{"ha":1182,"x_min":75,"x_max":1131,"o":"m 1131 989 l 1054 0 l 863 0 l 904 536 l 635 0 l 494 0 l 307 532 l 265 0 l 75 0 l 151 989 l 324 989 l 585 256 l 960 989 l 1131 989 m 654 -94 l 639 -279 l 444 -279 l 461 -94 l 654 -94 z "},"N":{"ha":1056,"x_min":72,"x_max":1006,"o":"m 1006 989 l 928 0 l 765 0 l 324 625 l 275 0 l 72 0 l 150 989 l 310 989 l 754 364 l 803 989 l 1006 989 z "},"Ǌ":{"ha":1585,"x_min":72,"x_max":1535,"o":"m 1006 989 l 928 0 l 765 0 l 324 625 l 275 0 l 72 0 l 150 989 l 310 989 l 754 364 l 803 989 l 1006 989 m 1022 -74 q 1115 -82 1076 -82 q 1209 -51 1181 -82 q 1243 56 1238 -21 l 1318 989 l 1535 989 l 1463 58 q 1374 -183 1449 -106 q 1146 -261 1300 -261 q 1010 -249 1085 -261 l 1022 -74 z "},"Ń":{"ha":1056,"x_min":72,"x_max":1006,"o":"m 1006 989 l 928 0 l 765 0 l 324 625 l 275 0 l 72 0 l 150 989 l 310 989 l 754 364 l 803 989 l 1006 989 m 519 1074 l 676 1292 l 881 1292 l 649 1074 l 519 1074 z "},"Ň":{"ha":1056,"x_min":72,"x_max":1006,"o":"m 1006 989 l 928 0 l 765 0 l 324 625 l 275 0 l 72 0 l 150 989 l 310 989 l 754 364 l 803 989 l 1006 989 m 846 1292 l 644 1074 l 524 1074 l 357 1292 l 514 1292 l 597 1171 l 689 1292 l 846 1292 z "},"Ņ":{"ha":1056,"x_min":72,"x_max":1006,"o":"m 1006 989 l 928 0 l 765 0 l 324 625 l 275 0 l 72 0 l 150 989 l 310 989 l 754 364 l 803 989 l 1006 989 m 599 -93 l 592 -182 q 563 -296 586 -247 q 490 -386 540 -344 l 419 -333 q 475 -251 463 -294 l 376 -251 l 389 -93 l 599 -93 z "},"Ṅ":{"ha":1056,"x_min":72,"x_max":1006,"o":"m 1006 989 l 928 0 l 765 0 l 324 625 l 275 0 l 72 0 l 150 989 l 310 989 l 754 364 l 803 989 l 1006 989 m 714 1282 l 699 1085 l 474 1085 l 489 1282 l 714 1282 z "},"Ṇ":{"ha":1056,"x_min":72,"x_max":1006,"o":"m 1006 989 l 928 0 l 765 0 l 324 625 l 275 0 l 72 0 l 150 989 l 310 989 l 754 364 l 803 989 l 1006 989 m 592 -94 l 576 -279 l 382 -279 l 399 -94 l 592 -94 z "},"Ŋ":{"ha":1056,"x_min":72,"x_max":1006,"o":"m 1006 989 l 932 51 q 840 -173 921 -97 q 603 -257 760 -249 l 490 -264 l 481 -100 l 586 -94 q 686 -57 650 -90 q 726 36 722 -24 l 728 53 l 324 625 l 275 0 l 72 0 l 150 989 l 310 989 l 754 364 l 803 989 l 1006 989 z "},"ǋ":{"ha":1436,"x_min":72,"x_max":1411,"o":"m 1006 989 l 928 0 l 765 0 l 324 625 l 275 0 l 72 0 l 150 989 l 310 989 l 754 364 l 803 989 l 1006 989 m 928 -129 q 994 -139 967 -139 q 1074 -112 1043 -139 q 1111 -25 1106 -85 l 1169 704 l 1379 704 l 1321 -31 q 1236 -237 1310 -164 q 1033 -311 1163 -311 q 915 -293 960 -311 l 928 -129 m 1411 1035 l 1396 838 l 1171 838 l 1186 1035 l 1411 1035 z "},"Ṉ":{"ha":1056,"x_min":72,"x_max":1006,"o":"m 1006 989 l 928 0 l 765 0 l 324 625 l 275 0 l 72 0 l 150 989 l 310 989 l 754 364 l 803 989 l 1006 989 m 272 -126 l 711 -126 l 701 -249 l 264 -249 l 272 -126 z "},"Ñ":{"ha":1056,"x_min":72,"x_max":1006,"o":"m 1006 989 l 928 0 l 765 0 l 324 625 l 275 0 l 72 0 l 150 989 l 310 989 l 754 364 l 803 989 l 1006 989 m 342 1083 q 394 1238 347 1189 q 508 1288 440 1288 q 559 1277 535 1288 q 614 1246 583 1267 q 656 1222 639 1231 q 690 1214 674 1214 q 754 1283 749 1214 l 846 1283 q 793 1128 840 1178 q 678 1079 746 1079 q 627 1090 651 1079 q 574 1121 603 1101 q 531 1144 549 1136 q 497 1153 514 1153 q 432 1083 440 1153 l 342 1083 z "},"O":{"ha":1104,"x_min":82,"x_max":1046,"o":"m 557 -14 q 305 44 413 -14 q 140 208 197 101 q 82 461 82 315 q 142 747 82 624 q 313 936 203 869 q 571 1003 424 1003 q 823 945 715 1003 q 988 781 931 888 q 1046 528 1046 674 q 985 242 1046 365 q 815 53 925 119 q 557 -14 704 -14 m 556 157 q 756 256 682 157 q 829 528 829 354 q 762 753 829 674 q 574 832 694 832 q 372 733 444 832 q 299 460 299 635 q 365 235 299 314 q 556 157 432 157 z "},"Ó":{"ha":1104,"x_min":82,"x_max":1046,"o":"m 557 -14 q 305 44 413 -14 q 140 208 197 101 q 82 461 82 315 q 142 747 82 624 q 313 936 203 869 q 571 1003 424 1003 q 823 945 715 1003 q 988 781 931 888 q 1046 528 1046 674 q 985 242 1046 365 q 815 53 925 119 q 557 -14 704 -14 m 556 157 q 756 256 682 157 q 829 528 829 354 q 762 753 829 674 q 574 832 694 832 q 372 733 444 832 q 299 460 299 635 q 365 235 299 314 q 556 157 432 157 m 543 1074 l 700 1292 l 904 1292 l 672 1074 l 543 1074 z "},"Ŏ":{"ha":1104,"x_min":82,"x_max":1046,"o":"m 557 -14 q 305 44 413 -14 q 140 208 197 101 q 82 461 82 315 q 142 747 82 624 q 313 936 203 869 q 571 1003 424 1003 q 823 945 715 1003 q 988 781 931 888 q 1046 528 1046 674 q 985 242 1046 365 q 815 53 925 119 q 557 -14 704 -14 m 556 157 q 756 256 682 157 q 829 528 829 354 q 762 753 829 674 q 574 832 694 832 q 372 733 444 832 q 299 460 299 635 q 365 235 299 314 q 556 157 432 157 m 619 1086 q 462 1127 529 1086 q 371 1239 394 1168 l 474 1279 q 533 1228 494 1246 q 624 1211 572 1211 q 711 1228 671 1211 q 776 1279 751 1244 l 871 1239 q 775 1127 843 1168 q 619 1086 707 1086 z "},"Ô":{"ha":1104,"x_min":82,"x_max":1046,"o":"m 557 -14 q 305 44 413 -14 q 140 208 197 101 q 82 461 82 315 q 142 747 82 624 q 313 936 203 869 q 571 1003 424 1003 q 823 945 715 1003 q 988 781 931 888 q 1046 528 1046 674 q 985 242 1046 365 q 815 53 925 119 q 557 -14 704 -14 m 556 157 q 756 256 682 157 q 829 528 829 354 q 762 753 829 674 q 574 832 694 832 q 372 733 444 832 q 299 460 299 635 q 365 235 299 314 q 556 157 432 157 m 364 1074 l 565 1292 l 685 1292 l 853 1074 l 696 1074 l 622 1193 l 521 1074 l 364 1074 z "},"Ố":{"ha":1104,"x_min":82,"x_max":1047,"o":"m 557 -14 q 305 44 413 -14 q 140 208 197 101 q 82 461 82 315 q 142 747 82 624 q 313 936 203 869 q 571 1003 424 1003 q 823 945 715 1003 q 988 781 931 888 q 1046 528 1046 674 q 985 242 1046 365 q 815 53 925 119 q 557 -14 704 -14 m 556 157 q 756 256 682 157 q 829 528 829 354 q 762 753 829 674 q 574 832 694 832 q 372 733 444 832 q 299 460 299 635 q 365 235 299 314 q 556 157 432 157 m 863 1421 l 1047 1421 l 854 1224 l 751 1224 l 863 1421 m 564 1268 l 683 1268 l 853 1074 l 700 1074 l 619 1172 l 519 1074 l 364 1074 l 564 1268 z "},"Ộ":{"ha":1104,"x_min":82,"x_max":1046,"o":"m 557 -14 q 305 44 413 -14 q 140 208 197 101 q 82 461 82 315 q 142 747 82 624 q 313 936 203 869 q 571 1003 424 1003 q 823 945 715 1003 q 988 781 931 888 q 1046 528 1046 674 q 985 242 1046 365 q 815 53 925 119 q 557 -14 704 -14 m 556 157 q 756 256 682 157 q 829 528 829 354 q 762 753 829 674 q 574 832 694 832 q 372 733 444 832 q 299 460 299 635 q 365 235 299 314 q 556 157 432 157 m 617 -94 l 601 -279 l 407 -279 l 424 -94 l 617 -94 m 364 1074 l 565 1292 l 685 1292 l 853 1074 l 696 1074 l 622 1193 l 521 1074 l 364 1074 z "},"Ồ":{"ha":1104,"x_min":82,"x_max":1046,"o":"m 557 -14 q 305 44 413 -14 q 140 208 197 101 q 82 461 82 315 q 142 747 82 624 q 313 936 203 869 q 571 1003 424 1003 q 823 945 715 1003 q 988 781 931 888 q 1046 528 1046 674 q 985 242 1046 365 q 815 53 925 119 q 557 -14 704 -14 m 556 157 q 756 256 682 157 q 829 528 829 354 q 762 753 829 674 q 574 832 694 832 q 372 733 444 832 q 299 460 299 635 q 365 235 299 314 q 556 157 432 157 m 660 1421 l 824 1421 l 913 1224 l 810 1224 l 660 1421 m 564 1268 l 683 1268 l 853 1074 l 700 1074 l 619 1172 l 519 1074 l 364 1074 l 564 1268 z "},"Ổ":{"ha":1104,"x_min":82,"x_max":1046,"o":"m 557 -14 q 305 44 413 -14 q 140 208 197 101 q 82 461 82 315 q 142 747 82 624 q 313 936 203 869 q 571 1003 424 1003 q 823 945 715 1003 q 988 781 931 888 q 1046 528 1046 674 q 985 242 1046 365 q 815 53 925 119 q 557 -14 704 -14 m 556 157 q 756 256 682 157 q 829 528 829 354 q 762 753 829 674 q 574 832 694 832 q 372 733 444 832 q 299 460 299 635 q 365 235 299 314 q 556 157 432 157 m 753 1251 q 773 1292 756 1278 q 822 1319 790 1306 q 850 1338 850 1329 q 818 1349 850 1349 q 722 1335 776 1349 l 703 1407 q 839 1429 764 1429 q 942 1408 904 1429 q 981 1351 981 1386 q 962 1308 981 1322 q 908 1278 943 1293 q 869 1258 882 1267 q 856 1236 857 1250 l 854 1225 l 750 1225 l 753 1251 m 564 1268 l 683 1268 l 853 1074 l 700 1074 l 619 1172 l 519 1074 l 364 1074 l 564 1268 z "},"Ỗ":{"ha":1104,"x_min":82,"x_max":1046,"o":"m 557 -14 q 305 44 413 -14 q 140 208 197 101 q 82 461 82 315 q 142 747 82 624 q 313 936 203 869 q 571 1003 424 1003 q 823 945 715 1003 q 988 781 931 888 q 1046 528 1046 674 q 985 242 1046 365 q 815 53 925 119 q 557 -14 704 -14 m 556 157 q 756 256 682 157 q 829 528 829 354 q 762 753 829 674 q 574 832 694 832 q 372 733 444 832 q 299 460 299 635 q 365 235 299 314 q 556 157 432 157 m 381 1292 q 431 1399 383 1358 q 539 1439 478 1439 q 650 1414 583 1439 q 697 1398 678 1403 q 735 1393 715 1393 q 773 1402 758 1393 q 790 1435 788 1411 l 881 1435 q 831 1330 879 1371 q 724 1289 783 1289 q 672 1296 696 1289 q 613 1315 647 1303 q 566 1331 585 1326 q 528 1336 547 1336 q 471 1292 478 1336 l 381 1292 m 564 1268 l 683 1268 l 853 1074 l 700 1074 l 619 1172 l 519 1074 l 364 1074 l 564 1268 z "},"Ȍ":{"ha":1104,"x_min":82,"x_max":1046,"o":"m 557 -14 q 305 44 413 -14 q 140 208 197 101 q 82 461 82 315 q 142 747 82 624 q 313 936 203 869 q 571 1003 424 1003 q 823 945 715 1003 q 988 781 931 888 q 1046 528 1046 674 q 985 242 1046 365 q 815 53 925 119 q 557 -14 704 -14 m 556 157 q 756 256 682 157 q 829 528 829 354 q 762 753 829 674 q 574 832 694 832 q 372 733 444 832 q 299 460 299 635 q 365 235 299 314 q 556 157 432 157 m 339 1292 l 475 1292 l 564 1074 l 460 1074 l 339 1292 m 533 1292 l 668 1292 l 757 1074 l 653 1074 l 533 1292 z "},"Ö":{"ha":1104,"x_min":82,"x_max":1046,"o":"m 557 -14 q 305 44 413 -14 q 140 208 197 101 q 82 461 82 315 q 142 747 82 624 q 313 936 203 869 q 571 1003 424 1003 q 823 945 715 1003 q 988 781 931 888 q 1046 528 1046 674 q 985 242 1046 365 q 815 53 925 119 q 557 -14 704 -14 m 556 157 q 756 256 682 157 q 829 528 829 354 q 762 753 829 674 q 574 832 694 832 q 372 733 444 832 q 299 460 299 635 q 365 235 299 314 q 556 157 432 157 m 589 1275 l 574 1092 l 379 1092 l 394 1275 l 589 1275 m 856 1275 l 840 1092 l 646 1092 l 661 1275 l 856 1275 z "},"Ȫ":{"ha":1104,"x_min":82,"x_max":1046,"o":"m 557 -14 q 305 44 413 -14 q 140 208 197 101 q 82 461 82 315 q 142 747 82 624 q 313 936 203 869 q 571 1003 424 1003 q 823 945 715 1003 q 988 781 931 888 q 1046 528 1046 674 q 985 242 1046 365 q 815 53 925 119 q 557 -14 704 -14 m 556 157 q 756 256 682 157 q 829 528 829 354 q 762 753 829 674 q 574 832 694 832 q 372 733 444 832 q 299 460 299 635 q 365 235 299 314 q 556 157 432 157 m 589 1275 l 574 1092 l 379 1092 l 394 1275 l 589 1275 m 856 1275 l 840 1092 l 646 1092 l 661 1275 l 856 1275 m 421 1472 l 861 1472 l 850 1342 l 411 1342 l 421 1472 z "},"Ȱ":{"ha":1104,"x_min":82,"x_max":1046,"o":"m 557 -14 q 305 44 413 -14 q 140 208 197 101 q 82 461 82 315 q 142 747 82 624 q 313 936 203 869 q 571 1003 424 1003 q 823 945 715 1003 q 988 781 931 888 q 1046 528 1046 674 q 985 242 1046 365 q 815 53 925 119 q 557 -14 704 -14 m 556 157 q 756 256 682 157 q 829 528 829 354 q 762 753 829 674 q 574 832 694 832 q 372 733 444 832 q 299 460 299 635 q 365 235 299 314 q 556 157 432 157 m 738 1282 l 722 1085 l 497 1085 l 513 1282 l 738 1282 m 421 1472 l 861 1472 l 850 1342 l 411 1342 l 421 1472 z "},"Ọ":{"ha":1104,"x_min":82,"x_max":1046,"o":"m 557 -14 q 305 44 413 -14 q 140 208 197 101 q 82 461 82 315 q 142 747 82 624 q 313 936 203 869 q 571 1003 424 1003 q 823 945 715 1003 q 988 781 931 888 q 1046 528 1046 674 q 985 242 1046 365 q 815 53 925 119 q 557 -14 704 -14 m 556 157 q 756 256 682 157 q 829 528 829 354 q 762 753 829 674 q 574 832 694 832 q 372 733 444 832 q 299 460 299 635 q 365 235 299 314 q 556 157 432 157 m 617 -94 l 601 -279 l 407 -279 l 424 -94 l 617 -94 z "},"Ò":{"ha":1104,"x_min":82,"x_max":1046,"o":"m 557 -14 q 305 44 413 -14 q 140 208 197 101 q 82 461 82 315 q 142 747 82 624 q 313 936 203 869 q 571 1003 424 1003 q 823 945 715 1003 q 988 781 931 888 q 1046 528 1046 674 q 985 242 1046 365 q 815 53 925 119 q 557 -14 704 -14 m 556 157 q 756 256 682 157 q 829 528 829 354 q 762 753 829 674 q 574 832 694 832 q 372 733 444 832 q 299 460 299 635 q 365 235 299 314 q 556 157 432 157 m 357 1292 l 540 1292 l 672 1074 l 543 1074 l 357 1292 z "},"Ỏ":{"ha":1104,"x_min":82,"x_max":1046,"o":"m 557 -14 q 305 44 413 -14 q 140 208 197 101 q 82 461 82 315 q 142 747 82 624 q 313 936 203 869 q 571 1003 424 1003 q 823 945 715 1003 q 988 781 931 888 q 1046 528 1046 674 q 985 242 1046 365 q 815 53 925 119 q 557 -14 704 -14 m 556 157 q 756 256 682 157 q 829 528 829 354 q 762 753 829 674 q 574 832 694 832 q 372 733 444 832 q 299 460 299 635 q 365 235 299 314 q 556 157 432 157 m 660 1074 l 557 1074 l 560 1104 q 578 1142 561 1128 q 622 1168 594 1156 q 649 1182 640 1176 q 657 1196 657 1188 q 617 1215 657 1215 q 531 1200 578 1215 l 510 1275 q 640 1297 574 1297 q 748 1274 708 1297 q 788 1214 788 1250 q 768 1168 788 1185 q 714 1136 749 1151 q 675 1115 688 1124 q 661 1092 663 1106 l 660 1074 z "},"Ơ":{"ha":1104,"x_min":82,"x_max":1099,"o":"m 1094 1106 q 1037 960 1088 1018 q 906 889 986 901 q 1010 736 974 828 q 1046 528 1046 644 q 985 242 1046 365 q 815 53 925 119 q 557 -14 704 -14 q 305 44 413 -14 q 140 208 197 101 q 82 461 82 315 q 143 747 82 624 q 318 936 204 869 q 585 1003 432 1003 q 694 996 615 1003 q 781 989 743 989 q 880 1020 851 989 q 915 1132 908 1051 l 918 1158 l 1099 1158 l 1094 1106 m 556 157 q 756 256 682 157 q 829 528 829 354 q 762 753 829 674 q 574 832 694 832 q 372 733 444 832 q 299 460 299 635 q 365 235 299 314 q 556 157 432 157 z "},"Ớ":{"ha":1104,"x_min":82,"x_max":1099,"o":"m 1094 1106 q 1037 960 1088 1018 q 906 889 986 901 q 1010 736 974 828 q 1046 528 1046 644 q 985 242 1046 365 q 815 53 925 119 q 557 -14 704 -14 q 305 44 413 -14 q 140 208 197 101 q 82 461 82 315 q 143 747 82 624 q 318 936 204 869 q 585 1003 432 1003 q 694 996 615 1003 q 781 989 743 989 q 880 1020 851 989 q 915 1132 908 1051 l 918 1158 l 1099 1158 l 1094 1106 m 556 157 q 756 256 682 157 q 829 528 829 354 q 762 753 829 674 q 574 832 694 832 q 372 733 444 832 q 299 460 299 635 q 365 235 299 314 q 556 157 432 157 m 543 1074 l 700 1292 l 904 1292 l 672 1074 l 543 1074 z "},"Ợ":{"ha":1104,"x_min":82,"x_max":1099,"o":"m 1094 1106 q 1037 960 1088 1018 q 906 889 986 901 q 1010 736 974 828 q 1046 528 1046 644 q 985 242 1046 365 q 815 53 925 119 q 557 -14 704 -14 q 305 44 413 -14 q 140 208 197 101 q 82 461 82 315 q 143 747 82 624 q 318 936 204 869 q 585 1003 432 1003 q 694 996 615 1003 q 781 989 743 989 q 880 1020 851 989 q 915 1132 908 1051 l 918 1158 l 1099 1158 l 1094 1106 m 556 157 q 756 256 682 157 q 829 528 829 354 q 762 753 829 674 q 574 832 694 832 q 372 733 444 832 q 299 460 299 635 q 365 235 299 314 q 556 157 432 157 m 617 -94 l 601 -279 l 407 -279 l 424 -94 l 617 -94 z "},"Ờ":{"ha":1104,"x_min":82,"x_max":1099,"o":"m 1094 1106 q 1037 960 1088 1018 q 906 889 986 901 q 1010 736 974 828 q 1046 528 1046 644 q 985 242 1046 365 q 815 53 925 119 q 557 -14 704 -14 q 305 44 413 -14 q 140 208 197 101 q 82 461 82 315 q 143 747 82 624 q 318 936 204 869 q 585 1003 432 1003 q 694 996 615 1003 q 781 989 743 989 q 880 1020 851 989 q 915 1132 908 1051 l 918 1158 l 1099 1158 l 1094 1106 m 556 157 q 756 256 682 157 q 829 528 829 354 q 762 753 829 674 q 574 832 694 832 q 372 733 444 832 q 299 460 299 635 q 365 235 299 314 q 556 157 432 157 m 357 1292 l 540 1292 l 672 1074 l 543 1074 l 357 1292 z "},"Ở":{"ha":1104,"x_min":82,"x_max":1099,"o":"m 1094 1106 q 1037 960 1088 1018 q 906 889 986 901 q 1010 736 974 828 q 1046 528 1046 644 q 985 242 1046 365 q 815 53 925 119 q 557 -14 704 -14 q 305 44 413 -14 q 140 208 197 101 q 82 461 82 315 q 143 747 82 624 q 318 936 204 869 q 585 1003 432 1003 q 694 996 615 1003 q 781 989 743 989 q 880 1020 851 989 q 915 1132 908 1051 l 918 1158 l 1099 1158 l 1094 1106 m 556 157 q 756 256 682 157 q 829 528 829 354 q 762 753 829 674 q 574 832 694 832 q 372 733 444 832 q 299 460 299 635 q 365 235 299 314 q 556 157 432 157 m 660 1074 l 557 1074 l 560 1104 q 578 1142 561 1128 q 622 1168 594 1156 q 649 1182 640 1176 q 657 1196 657 1188 q 617 1215 657 1215 q 531 1200 578 1215 l 510 1275 q 640 1297 574 1297 q 748 1274 708 1297 q 788 1214 788 1250 q 768 1168 788 1185 q 714 1136 749 1151 q 675 1115 688 1124 q 661 1092 663 1106 l 660 1074 z "},"Ỡ":{"ha":1104,"x_min":82,"x_max":1099,"o":"m 1094 1106 q 1037 960 1088 1018 q 906 889 986 901 q 1010 736 974 828 q 1046 528 1046 644 q 985 242 1046 365 q 815 53 925 119 q 557 -14 704 -14 q 305 44 413 -14 q 140 208 197 101 q 82 461 82 315 q 143 747 82 624 q 318 936 204 869 q 585 1003 432 1003 q 694 996 615 1003 q 781 989 743 989 q 880 1020 851 989 q 915 1132 908 1051 l 918 1158 l 1099 1158 l 1094 1106 m 556 157 q 756 256 682 157 q 829 528 829 354 q 762 753 829 674 q 574 832 694 832 q 372 733 444 832 q 299 460 299 635 q 365 235 299 314 q 556 157 432 157 m 365 1083 q 417 1238 371 1189 q 532 1288 464 1288 q 583 1277 558 1288 q 638 1246 607 1267 q 680 1222 663 1231 q 714 1214 697 1214 q 778 1283 772 1214 l 869 1283 q 817 1128 864 1178 q 701 1079 769 1079 q 651 1090 675 1079 q 597 1121 626 1101 q 555 1144 572 1136 q 521 1153 538 1153 q 456 1083 464 1153 l 365 1083 z "},"Ő":{"ha":1104,"x_min":82,"x_max":1046,"o":"m 557 -14 q 305 44 413 -14 q 140 208 197 101 q 82 461 82 315 q 142 747 82 624 q 313 936 203 869 q 571 1003 424 1003 q 823 945 715 1003 q 988 781 931 888 q 1046 528 1046 674 q 985 242 1046 365 q 815 53 925 119 q 557 -14 704 -14 m 556 157 q 756 256 682 157 q 829 528 829 354 q 762 753 829 674 q 574 832 694 832 q 372 733 444 832 q 299 460 299 635 q 365 235 299 314 q 556 157 432 157 m 576 1292 l 722 1292 l 564 1074 l 460 1074 l 576 1292 m 769 1292 l 917 1292 l 757 1074 l 653 1074 l 769 1292 z "},"Ȏ":{"ha":1104,"x_min":82,"x_max":1046,"o":"m 557 -14 q 305 44 413 -14 q 140 208 197 101 q 82 461 82 315 q 142 747 82 624 q 313 936 203 869 q 571 1003 424 1003 q 823 945 715 1003 q 988 781 931 888 q 1046 528 1046 674 q 985 242 1046 365 q 815 53 925 119 q 557 -14 704 -14 m 556 157 q 756 256 682 157 q 829 528 829 354 q 762 753 829 674 q 574 832 694 832 q 372 733 444 832 q 299 460 299 635 q 365 235 299 314 q 556 157 432 157 m 614 1279 q 772 1239 706 1279 q 863 1128 839 1199 l 760 1086 q 700 1138 739 1119 q 610 1156 661 1156 q 457 1086 507 1156 l 363 1128 q 458 1238 390 1197 q 614 1279 526 1279 z "},"Ō":{"ha":1104,"x_min":82,"x_max":1046,"o":"m 557 -14 q 305 44 413 -14 q 140 208 197 101 q 82 461 82 315 q 142 747 82 624 q 313 936 203 869 q 571 1003 424 1003 q 823 945 715 1003 q 988 781 931 888 q 1046 528 1046 674 q 985 242 1046 365 q 815 53 925 119 q 557 -14 704 -14 m 556 157 q 756 256 682 157 q 829 528 829 354 q 762 753 829 674 q 574 832 694 832 q 372 733 444 832 q 299 460 299 635 q 365 235 299 314 q 556 157 432 157 m 403 1247 l 843 1247 l 832 1117 l 393 1117 l 403 1247 z "},"Ṓ":{"ha":1104,"x_min":82,"x_max":1046,"o":"m 557 -14 q 305 44 413 -14 q 140 208 197 101 q 82 461 82 315 q 142 747 82 624 q 313 936 203 869 q 571 1003 424 1003 q 823 945 715 1003 q 988 781 931 888 q 1046 528 1046 674 q 985 242 1046 365 q 815 53 925 119 q 557 -14 704 -14 m 556 157 q 756 256 682 157 q 829 528 829 354 q 762 753 829 674 q 574 832 694 832 q 372 733 444 832 q 299 460 299 635 q 365 235 299 314 q 556 157 432 157 m 403 1247 l 843 1247 l 832 1117 l 393 1117 l 403 1247 m 561 1299 l 718 1517 l 922 1517 l 690 1299 l 561 1299 z "},"Ṑ":{"ha":1104,"x_min":82,"x_max":1046,"o":"m 557 -14 q 305 44 413 -14 q 140 208 197 101 q 82 461 82 315 q 142 747 82 624 q 313 936 203 869 q 571 1003 424 1003 q 823 945 715 1003 q 988 781 931 888 q 1046 528 1046 674 q 985 242 1046 365 q 815 53 925 119 q 557 -14 704 -14 m 556 157 q 756 256 682 157 q 829 528 829 354 q 762 753 829 674 q 574 832 694 832 q 372 733 444 832 q 299 460 299 635 q 365 235 299 314 q 556 157 432 157 m 403 1247 l 843 1247 l 832 1117 l 393 1117 l 403 1247 m 375 1517 l 558 1517 l 690 1299 l 561 1299 l 375 1517 z "},"Ǫ":{"ha":1104,"x_min":82,"x_max":1046,"o":"m 686 1 q 610 -35 636 -10 q 585 -96 585 -60 q 605 -148 585 -129 q 660 -167 625 -167 q 740 -149 696 -167 l 756 -247 q 624 -276 686 -276 q 495 -235 543 -276 q 447 -128 447 -194 q 497 -11 447 -57 q 277 58 371 -1 q 133 222 183 118 q 82 461 82 325 q 142 747 82 624 q 313 936 203 869 q 571 1003 424 1003 q 825 946 718 1003 q 989 781 932 889 q 1046 528 1046 674 q 1000 274 1046 385 q 873 94 954 164 q 686 1 792 25 m 556 157 q 756 256 682 157 q 829 528 829 354 q 762 753 829 674 q 574 832 694 832 q 372 733 444 832 q 299 460 299 635 q 365 235 299 314 q 556 157 432 157 z "},"Ø":{"ha":1104,"x_min":82,"x_max":1046,"o":"m 913 881 q 1012 728 978 818 q 1046 528 1046 639 q 985 242 1046 365 q 815 53 925 119 q 557 -14 704 -14 q 347 24 439 -14 l 269 -94 l 136 -11 l 215 108 q 116 260 150 171 q 82 461 82 350 q 142 747 82 624 q 313 936 203 869 q 571 1003 424 1003 q 782 965 689 1003 l 860 1083 l 992 1000 l 913 881 m 299 460 q 332 286 299 356 l 681 813 q 574 832 631 832 q 372 733 444 832 q 299 460 299 635 m 556 157 q 756 256 682 157 q 829 528 829 354 q 794 701 829 629 l 447 176 q 556 157 497 157 z "},"Ǿ":{"ha":1104,"x_min":82,"x_max":1046,"o":"m 913 881 q 1012 728 978 818 q 1046 528 1046 639 q 985 242 1046 365 q 815 53 925 119 q 557 -14 704 -14 q 347 24 439 -14 l 269 -94 l 136 -11 l 215 108 q 116 260 150 171 q 82 461 82 350 q 142 747 82 624 q 313 936 203 869 q 571 1003 424 1003 q 782 965 689 1003 l 860 1083 l 992 1000 l 913 881 m 299 460 q 332 286 299 356 l 681 813 q 574 832 631 832 q 372 733 444 832 q 299 460 299 635 m 556 157 q 756 256 682 157 q 829 528 829 354 q 794 701 829 629 l 447 176 q 556 157 497 157 m 543 1074 l 700 1292 l 904 1292 l 672 1074 l 543 1074 z "},"Õ":{"ha":1104,"x_min":82,"x_max":1046,"o":"m 557 -14 q 305 44 413 -14 q 140 208 197 101 q 82 461 82 315 q 142 747 82 624 q 313 936 203 869 q 571 1003 424 1003 q 823 945 715 1003 q 988 781 931 888 q 1046 528 1046 674 q 985 242 1046 365 q 815 53 925 119 q 557 -14 704 -14 m 556 157 q 756 256 682 157 q 829 528 829 354 q 762 753 829 674 q 574 832 694 832 q 372 733 444 832 q 299 460 299 635 q 365 235 299 314 q 556 157 432 157 m 365 1083 q 417 1238 371 1189 q 532 1288 464 1288 q 583 1277 558 1288 q 638 1246 607 1267 q 680 1222 663 1231 q 714 1214 697 1214 q 778 1283 772 1214 l 869 1283 q 817 1128 864 1178 q 701 1079 769 1079 q 651 1090 675 1079 q 597 1121 626 1101 q 555 1144 572 1136 q 521 1153 538 1153 q 456 1083 464 1153 l 365 1083 z "},"Ṍ":{"ha":1104,"x_min":82,"x_max":1046,"o":"m 557 -14 q 305 44 413 -14 q 140 208 197 101 q 82 461 82 315 q 142 747 82 624 q 313 936 203 869 q 571 1003 424 1003 q 823 945 715 1003 q 988 781 931 888 q 1046 528 1046 674 q 985 242 1046 365 q 815 53 925 119 q 557 -14 704 -14 m 556 157 q 756 256 682 157 q 829 528 829 354 q 762 753 829 674 q 574 832 694 832 q 372 733 444 832 q 299 460 299 635 q 365 235 299 314 q 556 157 432 157 m 365 1083 q 417 1238 371 1189 q 532 1288 464 1288 q 583 1277 558 1288 q 638 1246 607 1267 q 680 1222 663 1231 q 714 1214 697 1214 q 778 1283 772 1214 l 869 1283 q 817 1128 864 1178 q 701 1079 769 1079 q 651 1090 675 1079 q 597 1121 626 1101 q 555 1144 572 1136 q 521 1153 538 1153 q 456 1083 464 1153 l 365 1083 m 561 1299 l 718 1517 l 922 1517 l 690 1299 l 561 1299 z "},"Ṏ":{"ha":1104,"x_min":82,"x_max":1046,"o":"m 557 -14 q 305 44 413 -14 q 140 208 197 101 q 82 461 82 315 q 142 747 82 624 q 313 936 203 869 q 571 1003 424 1003 q 823 945 715 1003 q 988 781 931 888 q 1046 528 1046 674 q 985 242 1046 365 q 815 53 925 119 q 557 -14 704 -14 m 556 157 q 756 256 682 157 q 829 528 829 354 q 762 753 829 674 q 574 832 694 832 q 372 733 444 832 q 299 460 299 635 q 365 235 299 314 q 556 157 432 157 m 365 1083 q 417 1238 371 1189 q 532 1288 464 1288 q 583 1277 558 1288 q 638 1246 607 1267 q 680 1222 663 1231 q 714 1214 697 1214 q 778 1283 772 1214 l 869 1283 q 817 1128 864 1178 q 701 1079 769 1079 q 651 1090 675 1079 q 597 1121 626 1101 q 555 1144 572 1136 q 521 1153 538 1153 q 456 1083 464 1153 l 365 1083 m 607 1500 l 592 1317 l 397 1317 l 413 1500 l 607 1500 m 874 1500 l 858 1317 l 664 1317 l 679 1500 l 874 1500 z "},"Ȭ":{"ha":1104,"x_min":82,"x_max":1046,"o":"m 557 -14 q 305 44 413 -14 q 140 208 197 101 q 82 461 82 315 q 142 747 82 624 q 313 936 203 869 q 571 1003 424 1003 q 823 945 715 1003 q 988 781 931 888 q 1046 528 1046 674 q 985 242 1046 365 q 815 53 925 119 q 557 -14 704 -14 m 556 157 q 756 256 682 157 q 829 528 829 354 q 762 753 829 674 q 574 832 694 832 q 372 733 444 832 q 299 460 299 635 q 365 235 299 314 q 556 157 432 157 m 365 1083 q 417 1238 371 1189 q 532 1288 464 1288 q 583 1277 558 1288 q 638 1246 607 1267 q 680 1222 663 1231 q 714 1214 697 1214 q 778 1283 772 1214 l 869 1283 q 817 1128 864 1178 q 701 1079 769 1079 q 651 1090 675 1079 q 597 1121 626 1101 q 555 1144 572 1136 q 521 1153 538 1153 q 456 1083 464 1153 l 365 1083 m 421 1472 l 861 1472 l 850 1342 l 411 1342 l 421 1472 z "},"Œ":{"ha":1464,"x_min":82,"x_max":1461,"o":"m 981 821 l 963 588 l 1403 588 l 1389 418 l 949 418 l 929 168 l 1399 168 l 1385 0 l 717 0 l 721 49 q 518 -14 636 -14 q 292 44 392 -14 q 138 209 193 101 q 82 461 82 317 q 142 747 82 624 q 314 936 203 869 q 572 1003 425 1003 q 692 988 633 1003 q 792 946 751 974 l 794 989 l 1461 989 l 1449 821 l 981 821 m 299 460 q 365 235 299 314 q 556 157 432 157 q 719 204 651 157 l 765 785 q 600 832 704 832 q 376 735 453 832 q 299 460 299 638 z "},"P":{"ha":938,"x_min":72,"x_max":921,"o":"m 589 989 q 768 954 693 989 q 882 857 843 919 q 921 714 921 794 q 827 483 921 565 q 560 400 733 400 l 321 400 l 289 0 l 72 0 l 150 989 l 589 989 m 539 565 q 672 601 626 565 q 717 701 717 636 q 561 822 717 822 l 354 822 l 333 565 l 539 565 z "},"Þ":{"ha":939,"x_min":72,"x_max":906,"o":"m 596 790 q 824 719 742 790 q 906 521 906 647 q 819 294 906 374 q 569 215 732 215 l 301 215 l 285 0 l 72 0 l 150 989 l 364 989 l 349 790 l 596 790 m 553 381 q 703 508 703 381 q 671 595 703 568 q 571 622 639 622 l 335 622 l 315 381 l 553 381 z "},"Q":{"ha":1104,"x_min":82,"x_max":1046,"o":"m 769 29 q 929 -154 818 -57 l 775 -265 q 652 -151 707 -215 q 561 -14 597 -86 l 557 -14 q 305 44 413 -14 q 140 208 197 101 q 82 461 82 315 q 142 747 82 624 q 313 936 203 869 q 571 1003 424 1003 q 823 945 715 1003 q 988 781 931 888 q 1046 528 1046 674 q 973 219 1046 349 q 769 29 900 89 m 556 157 q 756 256 682 157 q 829 528 829 354 q 762 753 829 674 q 574 832 694 832 q 372 733 444 832 q 299 460 299 635 q 365 235 299 314 q 556 157 432 157 z "},"R":{"ha":983,"x_min":74,"x_max":935,"o":"m 706 421 q 770 378 744 408 q 813 293 796 347 l 907 0 l 679 0 l 578 329 q 535 383 565 368 q 457 399 506 399 l 318 399 l 288 0 l 74 0 l 150 989 l 610 989 q 849 914 763 989 q 935 713 935 839 q 878 523 935 597 q 706 421 821 449 m 563 564 q 688 599 646 564 q 731 701 731 635 q 694 792 731 763 q 582 822 657 822 l 351 822 l 332 564 l 563 564 z "},"Ŕ":{"ha":983,"x_min":74,"x_max":935,"o":"m 706 421 q 770 378 744 408 q 813 293 796 347 l 907 0 l 679 0 l 578 329 q 535 383 565 368 q 457 399 506 399 l 318 399 l 288 0 l 74 0 l 150 989 l 610 989 q 849 914 763 989 q 935 713 935 839 q 878 523 935 597 q 706 421 821 449 m 563 564 q 688 599 646 564 q 731 701 731 635 q 694 792 731 763 q 582 822 657 822 l 351 822 l 332 564 l 563 564 m 488 1074 l 644 1292 l 849 1292 l 617 1074 l 488 1074 z "},"Ř":{"ha":983,"x_min":74,"x_max":935,"o":"m 706 421 q 770 378 744 408 q 813 293 796 347 l 907 0 l 679 0 l 578 329 q 535 383 565 368 q 457 399 506 399 l 318 399 l 288 0 l 74 0 l 150 989 l 610 989 q 849 914 763 989 q 935 713 935 839 q 878 523 935 597 q 706 421 821 449 m 563 564 q 688 599 646 564 q 731 701 731 635 q 694 792 731 763 q 582 822 657 822 l 351 822 l 332 564 l 563 564 m 814 1292 l 613 1074 l 492 1074 l 325 1292 l 482 1292 l 565 1171 l 657 1292 l 814 1292 z "},"Ŗ":{"ha":983,"x_min":74,"x_max":935,"o":"m 706 421 q 770 378 744 408 q 813 293 796 347 l 907 0 l 679 0 l 578 329 q 535 383 565 368 q 457 399 506 399 l 318 399 l 288 0 l 74 0 l 150 989 l 610 989 q 849 914 763 989 q 935 713 935 839 q 878 523 935 597 q 706 421 821 449 m 563 564 q 688 599 646 564 q 731 701 731 635 q 694 792 731 763 q 582 822 657 822 l 351 822 l 332 564 l 563 564 m 567 -93 l 560 -182 q 531 -296 554 -247 q 458 -386 508 -344 l 388 -333 q 443 -251 431 -294 l 344 -251 l 357 -93 l 567 -93 z "},"Ȑ":{"ha":983,"x_min":74,"x_max":935,"o":"m 706 421 q 770 378 744 408 q 813 293 796 347 l 907 0 l 679 0 l 578 329 q 535 383 565 368 q 457 399 506 399 l 318 399 l 288 0 l 74 0 l 150 989 l 610 989 q 849 914 763 989 q 935 713 935 839 q 878 523 935 597 q 706 421 821 449 m 563 564 q 688 599 646 564 q 731 701 731 635 q 694 792 731 763 q 582 822 657 822 l 351 822 l 332 564 l 563 564 m 283 1292 l 419 1292 l 508 1074 l 404 1074 l 283 1292 m 478 1292 l 613 1292 l 701 1074 l 597 1074 l 478 1292 z "},"Ṛ":{"ha":983,"x_min":74,"x_max":935,"o":"m 706 421 q 770 378 744 408 q 813 293 796 347 l 907 0 l 679 0 l 578 329 q 535 383 565 368 q 457 399 506 399 l 318 399 l 288 0 l 74 0 l 150 989 l 610 989 q 849 914 763 989 q 935 713 935 839 q 878 523 935 597 q 706 421 821 449 m 563 564 q 688 599 646 564 q 731 701 731 635 q 694 792 731 763 q 582 822 657 822 l 351 822 l 332 564 l 563 564 m 560 -94 l 544 -279 l 350 -279 l 367 -94 l 560 -94 z "},"Ȓ":{"ha":983,"x_min":74,"x_max":935,"o":"m 706 421 q 770 378 744 408 q 813 293 796 347 l 907 0 l 679 0 l 578 329 q 535 383 565 368 q 457 399 506 399 l 318 399 l 288 0 l 74 0 l 150 989 l 610 989 q 849 914 763 989 q 935 713 935 839 q 878 523 935 597 q 706 421 821 449 m 563 564 q 688 599 646 564 q 731 701 731 635 q 694 792 731 763 q 582 822 657 822 l 351 822 l 332 564 l 563 564 m 558 1279 q 717 1239 650 1279 q 807 1128 783 1199 l 704 1086 q 644 1138 683 1119 q 554 1156 606 1156 q 401 1086 451 1156 l 307 1128 q 403 1238 335 1197 q 558 1279 471 1279 z "},"Ṟ":{"ha":983,"x_min":74,"x_max":935,"o":"m 706 421 q 770 378 744 408 q 813 293 796 347 l 907 0 l 679 0 l 578 329 q 535 383 565 368 q 457 399 506 399 l 318 399 l 288 0 l 74 0 l 150 989 l 610 989 q 849 914 763 989 q 935 713 935 839 q 878 523 935 597 q 706 421 821 449 m 563 564 q 688 599 646 564 q 731 701 731 635 q 694 792 731 763 q 582 822 657 822 l 351 822 l 332 564 l 563 564 m 240 -126 l 679 -126 l 669 -249 l 232 -249 l 240 -126 z "},"S":{"ha":913,"x_min":38,"x_max":869,"o":"m 436 -12 q 218 17 321 -12 q 38 101 115 46 l 119 257 q 274 181 194 206 q 444 157 354 157 q 585 185 538 157 q 633 265 633 213 q 583 344 633 317 q 429 403 533 372 q 260 463 325 433 q 149 548 196 492 q 101 696 101 604 q 152 857 101 788 q 295 964 203 926 q 511 1001 388 1001 q 714 971 618 1001 q 869 888 810 940 l 789 732 q 653 806 726 781 q 506 832 579 832 q 367 801 417 832 q 317 715 317 771 q 344 652 317 678 q 413 610 371 626 q 528 572 454 594 q 694 515 629 543 q 804 431 758 486 q 850 289 850 376 q 741 67 850 146 q 436 -12 632 -12 z "},"Ś":{"ha":913,"x_min":38,"x_max":869,"o":"m 436 -12 q 218 17 321 -12 q 38 101 115 46 l 119 257 q 274 181 194 206 q 444 157 354 157 q 585 185 538 157 q 633 265 633 213 q 583 344 633 317 q 429 403 533 372 q 260 463 325 433 q 149 548 196 492 q 101 696 101 604 q 152 857 101 788 q 295 964 203 926 q 511 1001 388 1001 q 714 971 618 1001 q 869 888 810 940 l 789 732 q 653 806 726 781 q 506 832 579 832 q 367 801 417 832 q 317 715 317 771 q 344 652 317 678 q 413 610 371 626 q 528 572 454 594 q 694 515 629 543 q 804 431 758 486 q 850 289 850 376 q 741 67 850 146 q 436 -12 632 -12 m 453 1074 l 610 1292 l 814 1292 l 582 1074 l 453 1074 z "},"Ṥ":{"ha":913,"x_min":38,"x_max":869,"o":"m 436 -12 q 218 17 321 -12 q 38 101 115 46 l 119 257 q 274 181 194 206 q 444 157 354 157 q 585 185 538 157 q 633 265 633 213 q 583 344 633 317 q 429 403 533 372 q 260 463 325 433 q 149 548 196 492 q 101 696 101 604 q 152 857 101 788 q 295 964 203 926 q 511 1001 388 1001 q 714 971 618 1001 q 869 888 810 940 l 789 732 q 653 806 726 781 q 506 832 579 832 q 367 801 417 832 q 317 715 317 771 q 344 652 317 678 q 413 610 371 626 q 528 572 454 594 q 694 515 629 543 q 804 431 758 486 q 850 289 850 376 q 741 67 850 146 q 436 -12 632 -12 m 489 1074 l 646 1292 l 850 1292 l 618 1074 l 489 1074 m 476 1290 l 461 1093 l 236 1093 l 251 1290 l 476 1290 z "},"Š":{"ha":913,"x_min":38,"x_max":869,"o":"m 436 -12 q 218 17 321 -12 q 38 101 115 46 l 119 257 q 274 181 194 206 q 444 157 354 157 q 585 185 538 157 q 633 265 633 213 q 583 344 633 317 q 429 403 533 372 q 260 463 325 433 q 149 548 196 492 q 101 696 101 604 q 152 857 101 788 q 295 964 203 926 q 511 1001 388 1001 q 714 971 618 1001 q 869 888 810 940 l 789 732 q 653 806 726 781 q 506 832 579 832 q 367 801 417 832 q 317 715 317 771 q 344 652 317 678 q 413 610 371 626 q 528 572 454 594 q 694 515 629 543 q 804 431 758 486 q 850 289 850 376 q 741 67 850 146 q 436 -12 632 -12 m 779 1292 l 578 1074 l 457 1074 l 290 1292 l 447 1292 l 531 1171 l 622 1292 l 779 1292 z "},"Ṧ":{"ha":913,"x_min":38,"x_max":869,"o":"m 436 -12 q 218 17 321 -12 q 38 101 115 46 l 119 257 q 274 181 194 206 q 444 157 354 157 q 585 185 538 157 q 633 265 633 213 q 583 344 633 317 q 429 403 533 372 q 260 463 325 433 q 149 548 196 492 q 101 696 101 604 q 152 857 101 788 q 295 964 203 926 q 511 1001 388 1001 q 714 971 618 1001 q 869 888 810 940 l 789 732 q 653 806 726 781 q 506 832 579 832 q 367 801 417 832 q 317 715 317 771 q 344 652 317 678 q 413 610 371 626 q 528 572 454 594 q 694 515 629 543 q 804 431 758 486 q 850 289 850 376 q 741 67 850 146 q 436 -12 632 -12 m 779 1292 l 578 1074 l 457 1074 l 290 1292 l 447 1292 l 531 1171 l 622 1292 l 779 1292 m 665 1507 l 650 1310 l 425 1310 l 440 1507 l 665 1507 z "},"Ş":{"ha":913,"x_min":38,"x_max":869,"o":"m 317 715 q 344 652 317 678 q 413 610 371 626 q 528 572 454 594 q 694 515 629 543 q 804 431 758 486 q 850 289 850 376 q 750 74 850 153 q 469 -12 650 -6 l 460 -56 l 469 -56 q 553 -81 521 -56 q 585 -151 585 -107 q 535 -241 585 -206 q 399 -276 486 -276 q 324 -270 363 -276 q 258 -251 285 -264 l 281 -169 q 393 -189 343 -189 q 456 -153 456 -189 q 444 -133 456 -140 q 413 -125 433 -125 q 361 -135 397 -125 l 336 -106 l 357 -8 q 38 101 168 8 l 119 257 q 274 181 194 206 q 444 157 354 157 q 585 185 538 157 q 633 265 633 213 q 583 344 633 317 q 429 403 533 372 q 260 463 325 433 q 149 548 196 492 q 101 696 101 604 q 152 857 101 788 q 295 964 203 926 q 511 1001 388 1001 q 714 971 618 1001 q 869 888 810 940 l 789 732 q 653 806 726 781 q 506 832 579 832 q 367 801 417 832 q 317 715 317 771 z "},"Ŝ":{"ha":913,"x_min":38,"x_max":869,"o":"m 436 -12 q 218 17 321 -12 q 38 101 115 46 l 119 257 q 274 181 194 206 q 444 157 354 157 q 585 185 538 157 q 633 265 633 213 q 583 344 633 317 q 429 403 533 372 q 260 463 325 433 q 149 548 196 492 q 101 696 101 604 q 152 857 101 788 q 295 964 203 926 q 511 1001 388 1001 q 714 971 618 1001 q 869 888 810 940 l 789 732 q 653 806 726 781 q 506 832 579 832 q 367 801 417 832 q 317 715 317 771 q 344 652 317 678 q 413 610 371 626 q 528 572 454 594 q 694 515 629 543 q 804 431 758 486 q 850 289 850 376 q 741 67 850 146 q 436 -12 632 -12 m 274 1074 l 475 1292 l 594 1292 l 763 1074 l 606 1074 l 532 1193 l 431 1074 l 274 1074 z "},"Ș":{"ha":913,"x_min":38,"x_max":869,"o":"m 436 -12 q 218 17 321 -12 q 38 101 115 46 l 119 257 q 274 181 194 206 q 444 157 354 157 q 585 185 538 157 q 633 265 633 213 q 583 344 633 317 q 429 403 533 372 q 260 463 325 433 q 149 548 196 492 q 101 696 101 604 q 152 857 101 788 q 295 964 203 926 q 511 1001 388 1001 q 714 971 618 1001 q 869 888 810 940 l 789 732 q 653 806 726 781 q 506 832 579 832 q 367 801 417 832 q 317 715 317 771 q 344 652 317 678 q 413 610 371 626 q 528 572 454 594 q 694 515 629 543 q 804 431 758 486 q 850 289 850 376 q 741 67 850 146 q 436 -12 632 -12 m 525 -93 l 518 -182 q 490 -296 513 -247 q 417 -386 467 -344 l 346 -333 q 401 -251 389 -294 l 303 -251 l 315 -93 l 525 -93 z "},"Ṡ":{"ha":913,"x_min":38,"x_max":869,"o":"m 436 -12 q 218 17 321 -12 q 38 101 115 46 l 119 257 q 274 181 194 206 q 444 157 354 157 q 585 185 538 157 q 633 265 633 213 q 583 344 633 317 q 429 403 533 372 q 260 463 325 433 q 149 548 196 492 q 101 696 101 604 q 152 857 101 788 q 295 964 203 926 q 511 1001 388 1001 q 714 971 618 1001 q 869 888 810 940 l 789 732 q 653 806 726 781 q 506 832 579 832 q 367 801 417 832 q 317 715 317 771 q 344 652 317 678 q 413 610 371 626 q 528 572 454 594 q 694 515 629 543 q 804 431 758 486 q 850 289 850 376 q 741 67 850 146 q 436 -12 632 -12 m 647 1282 l 632 1085 l 407 1085 l 422 1282 l 647 1282 z "},"Ṣ":{"ha":913,"x_min":38,"x_max":869,"o":"m 436 -12 q 218 17 321 -12 q 38 101 115 46 l 119 257 q 274 181 194 206 q 444 157 354 157 q 585 185 538 157 q 633 265 633 213 q 583 344 633 317 q 429 403 533 372 q 260 463 325 433 q 149 548 196 492 q 101 696 101 604 q 152 857 101 788 q 295 964 203 926 q 511 1001 388 1001 q 714 971 618 1001 q 869 888 810 940 l 789 732 q 653 806 726 781 q 506 832 579 832 q 367 801 417 832 q 317 715 317 771 q 344 652 317 678 q 413 610 371 626 q 528 572 454 594 q 694 515 629 543 q 804 431 758 486 q 850 289 850 376 q 741 67 850 146 q 436 -12 632 -12 m 518 -94 l 503 -279 l 308 -279 l 325 -94 l 518 -94 z "},"Ṩ":{"ha":913,"x_min":38,"x_max":869,"o":"m 436 -12 q 218 17 321 -12 q 38 101 115 46 l 119 257 q 274 181 194 206 q 444 157 354 157 q 585 185 538 157 q 633 265 633 213 q 583 344 633 317 q 429 403 533 372 q 260 463 325 433 q 149 548 196 492 q 101 696 101 604 q 152 857 101 788 q 295 964 203 926 q 511 1001 388 1001 q 714 971 618 1001 q 869 888 810 940 l 789 732 q 653 806 726 781 q 506 832 579 832 q 367 801 417 832 q 317 715 317 771 q 344 652 317 678 q 413 610 371 626 q 528 572 454 594 q 694 515 629 543 q 804 431 758 486 q 850 289 850 376 q 741 67 850 146 q 436 -12 632 -12 m 518 -94 l 503 -279 l 308 -279 l 325 -94 l 518 -94 m 647 1282 l 632 1085 l 407 1085 l 422 1282 l 647 1282 z "},"ẞ":{"ha":996,"x_min":72,"x_max":940,"o":"m 754 515 q 891 435 842 494 q 940 283 940 375 q 898 135 940 201 q 780 30 856 68 q 607 -8 704 -8 q 469 10 531 -8 q 344 72 407 29 l 415 225 q 603 153 514 153 q 700 188 667 153 q 733 288 733 222 q 692 385 733 356 q 556 415 651 415 l 415 415 l 429 585 l 556 585 q 660 618 624 585 q 696 713 696 651 q 654 798 696 767 q 543 829 613 829 q 335 642 354 829 l 285 0 l 72 0 l 122 635 q 249 904 138 810 q 554 999 361 999 q 738 965 660 999 q 858 872 817 932 q 900 733 900 813 q 863 601 900 657 q 754 515 826 544 z "},"Ə":{"ha":1076,"x_min":82,"x_max":1018,"o":"m 549 1001 q 797 944 690 1001 q 960 779 903 886 q 1018 528 1018 672 q 958 243 1018 365 q 788 54 897 121 q 533 -12 678 -12 q 199 107 317 -12 q 82 446 82 226 q 85 513 82 465 l 90 583 l 800 583 q 715 766 786 703 q 526 829 644 829 q 378 805 443 828 q 239 732 314 782 l 182 888 q 346 972 250 942 q 549 1001 442 1001 m 531 157 q 703 226 635 157 q 793 417 772 294 l 292 417 q 354 224 290 290 q 531 157 418 157 z "},"T":{"ha":872,"x_min":53,"x_max":906,"o":"m 365 813 l 53 813 l 67 989 l 906 989 l 892 813 l 582 813 l 519 0 l 300 0 l 365 813 z "},"Ŧ":{"ha":872,"x_min":53,"x_max":906,"o":"m 582 813 l 564 582 l 754 582 l 742 417 l 551 417 l 519 0 l 300 0 l 333 417 l 143 417 l 156 582 l 347 582 l 365 813 l 53 813 l 67 989 l 906 989 l 892 813 l 582 813 z "},"Ť":{"ha":872,"x_min":53,"x_max":906,"o":"m 365 813 l 53 813 l 67 989 l 906 989 l 892 813 l 582 813 l 519 0 l 300 0 l 365 813 m 754 1292 l 553 1074 l 432 1074 l 265 1292 l 422 1292 l 506 1171 l 597 1292 l 754 1292 z "},"Ţ":{"ha":872,"x_min":53,"x_max":906,"o":"m 906 989 l 892 813 l 582 813 l 519 0 l 454 0 l 442 -56 l 451 -56 q 535 -81 503 -56 q 567 -151 567 -107 q 517 -241 567 -206 q 381 -276 468 -276 q 306 -270 344 -276 q 240 -251 267 -264 l 263 -169 q 375 -189 325 -189 q 438 -153 438 -189 q 426 -133 438 -140 q 394 -125 415 -125 q 343 -135 379 -125 l 318 -106 l 340 0 l 300 0 l 365 813 l 53 813 l 67 989 l 906 989 z "},"Ț":{"ha":872,"x_min":53,"x_max":906,"o":"m 365 813 l 53 813 l 67 989 l 906 989 l 892 813 l 582 813 l 519 0 l 300 0 l 365 813 m 507 -93 l 500 -182 q 472 -296 494 -247 q 399 -386 449 -344 l 328 -333 q 383 -251 371 -294 l 285 -251 l 297 -93 l 507 -93 z "},"Ṭ":{"ha":872,"x_min":53,"x_max":906,"o":"m 365 813 l 53 813 l 67 989 l 906 989 l 892 813 l 582 813 l 519 0 l 300 0 l 365 813 m 500 -94 l 485 -279 l 290 -279 l 307 -94 l 500 -94 z "},"Ṯ":{"ha":872,"x_min":53,"x_max":906,"o":"m 365 813 l 53 813 l 67 989 l 906 989 l 892 813 l 582 813 l 519 0 l 300 0 l 365 813 m 181 -126 l 619 -126 l 610 -249 l 172 -249 l 181 -126 z "},"U":{"ha":1036,"x_min":96,"x_max":993,"o":"m 511 -12 q 201 83 306 -12 q 96 364 96 178 q 99 421 96 382 l 143 989 l 357 989 l 311 415 q 310 374 310 400 q 362 210 310 264 q 521 157 414 157 q 669 210 615 157 q 732 388 722 264 l 781 989 l 993 989 l 947 403 q 822 92 932 196 q 511 -12 713 -12 z "},"Ú":{"ha":1036,"x_min":96,"x_max":993,"o":"m 511 -12 q 201 83 306 -12 q 96 364 96 178 q 99 421 96 382 l 143 989 l 357 989 l 311 415 q 310 374 310 400 q 362 210 310 264 q 521 157 414 157 q 669 210 615 157 q 732 388 722 264 l 781 989 l 993 989 l 947 403 q 822 92 932 196 q 511 -12 713 -12 m 510 1074 l 667 1292 l 871 1292 l 639 1074 l 510 1074 z "},"Ŭ":{"ha":1036,"x_min":96,"x_max":993,"o":"m 511 -12 q 201 83 306 -12 q 96 364 96 178 q 99 421 96 382 l 143 989 l 357 989 l 311 415 q 310 374 310 400 q 362 210 310 264 q 521 157 414 157 q 669 210 615 157 q 732 388 722 264 l 781 989 l 993 989 l 947 403 q 822 92 932 196 q 511 -12 713 -12 m 586 1086 q 428 1127 496 1086 q 338 1239 361 1168 l 440 1279 q 500 1228 461 1246 q 590 1211 539 1211 q 678 1228 638 1211 q 743 1279 718 1244 l 838 1239 q 742 1127 810 1168 q 586 1086 674 1086 z "},"Û":{"ha":1036,"x_min":96,"x_max":993,"o":"m 511 -12 q 201 83 306 -12 q 96 364 96 178 q 99 421 96 382 l 143 989 l 357 989 l 311 415 q 310 374 310 400 q 362 210 310 264 q 521 157 414 157 q 669 210 615 157 q 732 388 722 264 l 781 989 l 993 989 l 947 403 q 822 92 932 196 q 511 -12 713 -12 m 331 1074 l 532 1292 l 651 1292 l 819 1074 l 663 1074 l 589 1193 l 488 1074 l 331 1074 z "},"Ȕ":{"ha":1036,"x_min":96,"x_max":993,"o":"m 511 -12 q 201 83 306 -12 q 96 364 96 178 q 99 421 96 382 l 143 989 l 357 989 l 311 415 q 310 374 310 400 q 362 210 310 264 q 521 157 414 157 q 669 210 615 157 q 732 388 722 264 l 781 989 l 993 989 l 947 403 q 822 92 932 196 q 511 -12 713 -12 m 306 1292 l 442 1292 l 531 1074 l 426 1074 l 306 1292 m 500 1292 l 635 1292 l 724 1074 l 619 1074 l 500 1292 z "},"Ü":{"ha":1036,"x_min":96,"x_max":993,"o":"m 511 -12 q 201 83 306 -12 q 96 364 96 178 q 99 421 96 382 l 143 989 l 357 989 l 311 415 q 310 374 310 400 q 362 210 310 264 q 521 157 414 157 q 669 210 615 157 q 732 388 722 264 l 781 989 l 993 989 l 947 403 q 822 92 932 196 q 511 -12 713 -12 m 556 1275 l 540 1092 l 346 1092 l 361 1275 l 556 1275 m 822 1275 l 807 1092 l 613 1092 l 628 1275 l 822 1275 z "},"Ụ":{"ha":1036,"x_min":96,"x_max":993,"o":"m 511 -12 q 201 83 306 -12 q 96 364 96 178 q 99 421 96 382 l 143 989 l 357 989 l 311 415 q 310 374 310 400 q 362 210 310 264 q 521 157 414 157 q 669 210 615 157 q 732 388 722 264 l 781 989 l 993 989 l 947 403 q 822 92 932 196 q 511 -12 713 -12 m 582 -94 l 567 -279 l 372 -279 l 389 -94 l 582 -94 z "},"Ù":{"ha":1036,"x_min":96,"x_max":993,"o":"m 511 -12 q 201 83 306 -12 q 96 364 96 178 q 99 421 96 382 l 143 989 l 357 989 l 311 415 q 310 374 310 400 q 362 210 310 264 q 521 157 414 157 q 669 210 615 157 q 732 388 722 264 l 781 989 l 993 989 l 947 403 q 822 92 932 196 q 511 -12 713 -12 m 324 1292 l 507 1292 l 639 1074 l 510 1074 l 324 1292 z "},"Ủ":{"ha":1036,"x_min":96,"x_max":993,"o":"m 511 -12 q 201 83 306 -12 q 96 364 96 178 q 99 421 96 382 l 143 989 l 357 989 l 311 415 q 310 374 310 400 q 362 210 310 264 q 521 157 414 157 q 669 210 615 157 q 732 388 722 264 l 781 989 l 993 989 l 947 403 q 822 92 932 196 q 511 -12 713 -12 m 626 1074 l 524 1074 l 526 1104 q 544 1142 528 1128 q 589 1168 561 1156 q 615 1182 607 1176 q 624 1196 624 1188 q 583 1215 624 1215 q 497 1200 544 1215 l 476 1275 q 607 1297 540 1297 q 715 1274 675 1297 q 754 1214 754 1250 q 735 1168 754 1185 q 681 1136 715 1151 q 642 1115 654 1124 q 628 1092 629 1106 l 626 1074 z "},"Ư":{"ha":1036,"x_min":96,"x_max":1165,"o":"m 1165 1158 l 1161 1106 q 1109 966 1154 1022 q 986 893 1064 910 l 947 403 q 822 92 931 196 q 511 -12 713 -12 q 201 83 306 -12 q 96 364 96 178 q 99 421 96 382 l 143 989 l 357 989 l 311 415 q 310 374 310 400 q 362 210 310 264 q 521 157 414 157 q 669 210 615 157 q 732 388 722 264 l 781 989 l 843 989 q 945 1021 914 989 q 982 1132 976 1053 l 985 1158 l 1165 1158 z "},"Ứ":{"ha":1036,"x_min":96,"x_max":1165,"o":"m 1165 1158 l 1161 1106 q 1109 966 1154 1022 q 986 893 1064 910 l 947 403 q 822 92 931 196 q 511 -12 713 -12 q 201 83 306 -12 q 96 364 96 178 q 99 421 96 382 l 143 989 l 357 989 l 311 415 q 310 374 310 400 q 362 210 310 264 q 521 157 414 157 q 669 210 615 157 q 732 388 722 264 l 781 989 l 843 989 q 945 1021 914 989 q 982 1132 976 1053 l 985 1158 l 1165 1158 m 510 1074 l 667 1292 l 871 1292 l 639 1074 l 510 1074 z "},"Ự":{"ha":1036,"x_min":96,"x_max":1165,"o":"m 1165 1158 l 1161 1106 q 1109 966 1154 1022 q 986 893 1064 910 l 947 403 q 822 92 931 196 q 511 -12 713 -12 q 201 83 306 -12 q 96 364 96 178 q 99 421 96 382 l 143 989 l 357 989 l 311 415 q 310 374 310 400 q 362 210 310 264 q 521 157 414 157 q 669 210 615 157 q 732 388 722 264 l 781 989 l 843 989 q 945 1021 914 989 q 982 1132 976 1053 l 985 1158 l 1165 1158 m 582 -94 l 567 -279 l 372 -279 l 389 -94 l 582 -94 z "},"Ừ":{"ha":1036,"x_min":96,"x_max":1165,"o":"m 1165 1158 l 1161 1106 q 1109 966 1154 1022 q 986 893 1064 910 l 947 403 q 822 92 931 196 q 511 -12 713 -12 q 201 83 306 -12 q 96 364 96 178 q 99 421 96 382 l 143 989 l 357 989 l 311 415 q 310 374 310 400 q 362 210 310 264 q 521 157 414 157 q 669 210 615 157 q 732 388 722 264 l 781 989 l 843 989 q 945 1021 914 989 q 982 1132 976 1053 l 985 1158 l 1165 1158 m 324 1292 l 507 1292 l 639 1074 l 510 1074 l 324 1292 z "},"Ử":{"ha":1036,"x_min":96,"x_max":1165,"o":"m 1165 1158 l 1161 1106 q 1109 966 1154 1022 q 986 893 1064 910 l 947 403 q 822 92 931 196 q 511 -12 713 -12 q 201 83 306 -12 q 96 364 96 178 q 99 421 96 382 l 143 989 l 357 989 l 311 415 q 310 374 310 400 q 362 210 310 264 q 521 157 414 157 q 669 210 615 157 q 732 388 722 264 l 781 989 l 843 989 q 945 1021 914 989 q 982 1132 976 1053 l 985 1158 l 1165 1158 m 626 1074 l 524 1074 l 526 1104 q 544 1142 528 1128 q 589 1168 561 1156 q 615 1182 607 1176 q 624 1196 624 1188 q 583 1215 624 1215 q 497 1200 544 1215 l 476 1275 q 607 1297 540 1297 q 715 1274 675 1297 q 754 1214 754 1250 q 735 1168 754 1185 q 681 1136 715 1151 q 642 1115 654 1124 q 628 1092 629 1106 l 626 1074 z "},"Ữ":{"ha":1036,"x_min":96,"x_max":1165,"o":"m 1165 1158 l 1161 1106 q 1109 966 1154 1022 q 986 893 1064 910 l 947 403 q 822 92 931 196 q 511 -12 713 -12 q 201 83 306 -12 q 96 364 96 178 q 99 421 96 382 l 143 989 l 357 989 l 311 415 q 310 374 310 400 q 362 210 310 264 q 521 157 414 157 q 669 210 615 157 q 732 388 722 264 l 781 989 l 843 989 q 945 1021 914 989 q 982 1132 976 1053 l 985 1158 l 1165 1158 m 332 1083 q 384 1238 338 1189 q 499 1288 431 1288 q 549 1277 525 1288 q 604 1246 574 1267 q 647 1222 629 1231 q 681 1214 664 1214 q 744 1283 739 1214 l 836 1283 q 783 1128 831 1178 q 668 1079 736 1079 q 617 1090 642 1079 q 564 1121 593 1101 q 522 1144 539 1136 q 488 1153 504 1153 q 422 1083 431 1153 l 332 1083 z "},"Ű":{"ha":1036,"x_min":96,"x_max":993,"o":"m 511 -12 q 201 83 306 -12 q 96 364 96 178 q 99 421 96 382 l 143 989 l 357 989 l 311 415 q 310 374 310 400 q 362 210 310 264 q 521 157 414 157 q 669 210 615 157 q 732 388 722 264 l 781 989 l 993 989 l 947 403 q 822 92 932 196 q 511 -12 713 -12 m 543 1292 l 689 1292 l 531 1074 l 426 1074 l 543 1292 m 736 1292 l 883 1292 l 724 1074 l 619 1074 l 736 1292 z "},"Ȗ":{"ha":1036,"x_min":96,"x_max":993,"o":"m 511 -12 q 201 83 306 -12 q 96 364 96 178 q 99 421 96 382 l 143 989 l 357 989 l 311 415 q 310 374 310 400 q 362 210 310 264 q 521 157 414 157 q 669 210 615 157 q 732 388 722 264 l 781 989 l 993 989 l 947 403 q 822 92 932 196 q 511 -12 713 -12 m 581 1279 q 739 1239 672 1279 q 829 1128 806 1199 l 726 1086 q 667 1138 706 1119 q 576 1156 628 1156 q 424 1086 474 1156 l 329 1128 q 425 1238 357 1197 q 581 1279 493 1279 z "},"Ū":{"ha":1036,"x_min":96,"x_max":993,"o":"m 511 -12 q 201 83 306 -12 q 96 364 96 178 q 99 421 96 382 l 143 989 l 357 989 l 311 415 q 310 374 310 400 q 362 210 310 264 q 521 157 414 157 q 669 210 615 157 q 732 388 722 264 l 781 989 l 993 989 l 947 403 q 822 92 932 196 q 511 -12 713 -12 m 369 1247 l 810 1247 l 799 1117 l 360 1117 l 369 1247 z "},"Ṻ":{"ha":1036,"x_min":96,"x_max":993,"o":"m 511 -12 q 201 83 306 -12 q 96 364 96 178 q 99 421 96 382 l 143 989 l 357 989 l 311 415 q 310 374 310 400 q 362 210 310 264 q 521 157 414 157 q 669 210 615 157 q 732 388 722 264 l 781 989 l 993 989 l 947 403 q 822 92 932 196 q 511 -12 713 -12 m 369 1247 l 810 1247 l 799 1117 l 360 1117 l 369 1247 m 574 1500 l 558 1317 l 364 1317 l 379 1500 l 574 1500 m 840 1500 l 825 1317 l 631 1317 l 646 1500 l 840 1500 z "},"Ų":{"ha":1036,"x_min":96,"x_max":993,"o":"m 993 989 l 947 403 q 862 137 935 238 q 650 0 789 36 q 556 -96 556 -24 q 576 -148 556 -129 q 632 -167 596 -167 q 711 -149 667 -167 l 726 -247 q 594 -276 660 -276 q 466 -235 514 -276 q 418 -128 418 -194 q 469 -11 418 -57 q 190 91 285 -4 q 96 364 96 186 q 99 421 96 382 l 143 989 l 357 989 l 311 415 q 310 374 310 400 q 362 210 310 264 q 521 157 414 157 q 669 210 615 157 q 732 388 722 264 l 781 989 l 993 989 z "},"Ů":{"ha":1036,"x_min":96,"x_max":993,"o":"m 511 -12 q 201 83 306 -12 q 96 364 96 178 q 99 421 96 382 l 143 989 l 357 989 l 311 415 q 310 374 310 400 q 362 210 310 264 q 521 157 414 157 q 669 210 615 157 q 732 388 722 264 l 781 989 l 993 989 l 947 403 q 822 92 932 196 q 511 -12 713 -12 m 586 1067 q 477 1110 521 1067 q 433 1217 433 1153 q 478 1324 433 1281 q 586 1368 522 1368 q 694 1324 650 1368 q 739 1217 739 1281 q 695 1110 739 1153 q 586 1067 651 1067 m 586 1153 q 629 1171 613 1153 q 646 1217 646 1189 q 629 1263 646 1244 q 586 1281 613 1281 q 542 1263 560 1281 q 525 1217 525 1244 q 542 1171 525 1189 q 586 1153 560 1153 z "},"Ũ":{"ha":1036,"x_min":96,"x_max":993,"o":"m 511 -12 q 201 83 306 -12 q 96 364 96 178 q 99 421 96 382 l 143 989 l 357 989 l 311 415 q 310 374 310 400 q 362 210 310 264 q 521 157 414 157 q 669 210 615 157 q 732 388 722 264 l 781 989 l 993 989 l 947 403 q 822 92 932 196 q 511 -12 713 -12 m 332 1083 q 384 1238 338 1189 q 499 1288 431 1288 q 549 1277 525 1288 q 604 1246 574 1267 q 647 1222 629 1231 q 681 1214 664 1214 q 744 1283 739 1214 l 836 1283 q 783 1128 831 1178 q 668 1079 736 1079 q 617 1090 642 1079 q 564 1121 593 1101 q 522 1144 539 1136 q 488 1153 504 1153 q 422 1083 431 1153 l 332 1083 z "},"Ṹ":{"ha":1036,"x_min":96,"x_max":993,"o":"m 511 -12 q 201 83 306 -12 q 96 364 96 178 q 99 421 96 382 l 143 989 l 357 989 l 311 415 q 310 374 310 400 q 362 210 310 264 q 521 157 414 157 q 669 210 615 157 q 732 388 722 264 l 781 989 l 993 989 l 947 403 q 822 92 932 196 q 511 -12 713 -12 m 332 1083 q 384 1238 338 1189 q 499 1288 431 1288 q 549 1277 525 1288 q 604 1246 574 1267 q 647 1222 629 1231 q 681 1214 664 1214 q 744 1283 739 1214 l 836 1283 q 783 1128 831 1178 q 668 1079 736 1079 q 617 1090 642 1079 q 564 1121 593 1101 q 522 1144 539 1136 q 488 1153 504 1153 q 422 1083 431 1153 l 332 1083 m 528 1299 l 685 1517 l 889 1517 l 657 1299 l 528 1299 z "},"V":{"ha":1021,"x_min":29,"x_max":1093,"o":"m 1093 989 l 571 0 l 397 0 l 29 989 l 254 989 l 507 271 l 872 989 l 1093 989 z "},"W":{"ha":1564,"x_min":76,"x_max":1588,"o":"m 1588 989 l 1160 0 l 986 0 l 806 656 l 524 0 l 349 0 l 76 989 l 294 989 l 468 306 l 761 989 l 914 989 l 1092 296 l 1381 989 l 1588 989 z "},"Ẃ":{"ha":1564,"x_min":76,"x_max":1588,"o":"m 1588 989 l 1160 0 l 986 0 l 806 656 l 524 0 l 349 0 l 76 989 l 294 989 l 468 306 l 761 989 l 914 989 l 1092 296 l 1381 989 l 1588 989 m 774 1074 l 931 1292 l 1135 1292 l 903 1074 l 774 1074 z "},"Ŵ":{"ha":1564,"x_min":76,"x_max":1588,"o":"m 1588 989 l 1160 0 l 986 0 l 806 656 l 524 0 l 349 0 l 76 989 l 294 989 l 468 306 l 761 989 l 914 989 l 1092 296 l 1381 989 l 1588 989 m 594 1074 l 796 1292 l 915 1292 l 1083 1074 l 926 1074 l 853 1193 l 751 1074 l 594 1074 z "},"Ẅ":{"ha":1564,"x_min":76,"x_max":1588,"o":"m 1588 989 l 1160 0 l 986 0 l 806 656 l 524 0 l 349 0 l 76 989 l 294 989 l 468 306 l 761 989 l 914 989 l 1092 296 l 1381 989 l 1588 989 m 819 1275 l 804 1092 l 610 1092 l 625 1275 l 819 1275 m 1086 1275 l 1071 1092 l 876 1092 l 892 1275 l 1086 1275 z "},"Ẁ":{"ha":1564,"x_min":76,"x_max":1588,"o":"m 1588 989 l 1160 0 l 986 0 l 806 656 l 524 0 l 349 0 l 76 989 l 294 989 l 468 306 l 761 989 l 914 989 l 1092 296 l 1381 989 l 1588 989 m 588 1292 l 771 1292 l 903 1074 l 774 1074 l 588 1292 z "},"X":{"ha":946,"x_min":-54,"x_max":1014,"o":"m 606 499 l 946 0 l 697 0 l 474 338 l 201 0 l -54 0 l 364 504 l 33 989 l 282 989 l 496 665 l 757 989 l 1014 989 l 606 499 z "},"Y":{"ha":892,"x_min":-19,"x_max":1014,"o":"m 558 383 l 528 0 l 311 0 l 342 388 l -19 989 l 222 989 l 460 558 l 764 989 l 1014 989 l 558 383 z "},"Ý":{"ha":892,"x_min":-19,"x_max":1014,"o":"m 558 383 l 528 0 l 311 0 l 342 388 l -19 989 l 222 989 l 460 558 l 764 989 l 1014 989 l 558 383 m 438 1074 l 594 1292 l 799 1292 l 567 1074 l 438 1074 z "},"Ŷ":{"ha":892,"x_min":-19,"x_max":1014,"o":"m 558 383 l 528 0 l 311 0 l 342 388 l -19 989 l 222 989 l 460 558 l 764 989 l 1014 989 l 558 383 m 258 1074 l 460 1292 l 579 1292 l 747 1074 l 590 1074 l 517 1193 l 415 1074 l 258 1074 z "},"Ÿ":{"ha":892,"x_min":-19,"x_max":1014,"o":"m 558 383 l 528 0 l 311 0 l 342 388 l -19 989 l 222 989 l 460 558 l 764 989 l 1014 989 l 558 383 m 483 1275 l 468 1092 l 274 1092 l 289 1275 l 483 1275 m 750 1275 l 735 1092 l 540 1092 l 556 1275 l 750 1275 z "},"Ẏ":{"ha":892,"x_min":-19,"x_max":1014,"o":"m 558 383 l 528 0 l 311 0 l 342 388 l -19 989 l 222 989 l 460 558 l 764 989 l 1014 989 l 558 383 m 632 1282 l 617 1085 l 392 1085 l 407 1282 l 632 1282 z "},"Ỵ":{"ha":892,"x_min":-19,"x_max":1014,"o":"m 558 383 l 528 0 l 311 0 l 342 388 l -19 989 l 222 989 l 460 558 l 764 989 l 1014 989 l 558 383 m 510 -94 l 494 -279 l 300 -279 l 317 -94 l 510 -94 z "},"Ỳ":{"ha":892,"x_min":-19,"x_max":1014,"o":"m 558 383 l 528 0 l 311 0 l 342 388 l -19 989 l 222 989 l 460 558 l 764 989 l 1014 989 l 558 383 m 251 1292 l 435 1292 l 567 1074 l 438 1074 l 251 1292 z "},"Ỷ":{"ha":892,"x_min":-19,"x_max":1014,"o":"m 558 383 l 528 0 l 311 0 l 342 388 l -19 989 l 222 989 l 460 558 l 764 989 l 1014 989 l 558 383 m 554 1074 l 451 1074 l 454 1104 q 472 1142 456 1128 q 517 1168 489 1156 q 543 1182 535 1176 q 551 1196 551 1188 q 511 1215 551 1215 q 425 1200 472 1215 l 404 1275 q 535 1297 468 1297 q 642 1274 603 1297 q 682 1214 682 1250 q 663 1168 682 1185 q 608 1136 643 1151 q 569 1115 582 1124 q 556 1092 557 1106 l 554 1074 z "},"Ȳ":{"ha":892,"x_min":-19,"x_max":1014,"o":"m 558 383 l 528 0 l 311 0 l 342 388 l -19 989 l 222 989 l 460 558 l 764 989 l 1014 989 l 558 383 m 297 1247 l 738 1247 l 726 1117 l 288 1117 l 297 1247 z "},"Ỹ":{"ha":892,"x_min":-19,"x_max":1014,"o":"m 558 383 l 528 0 l 311 0 l 342 388 l -19 989 l 222 989 l 460 558 l 764 989 l 1014 989 l 558 383 m 260 1083 q 312 1238 265 1189 q 426 1288 358 1288 q 477 1277 453 1288 q 532 1246 501 1267 q 574 1222 557 1231 q 608 1214 592 1214 q 672 1283 667 1214 l 764 1283 q 711 1128 758 1178 q 596 1079 664 1079 q 545 1090 569 1079 q 492 1121 521 1101 q 449 1144 467 1136 q 415 1153 432 1153 q 350 1083 358 1153 l 260 1083 z "},"Z":{"ha":854,"x_min":43,"x_max":840,"o":"m 829 832 l 304 171 l 793 171 l 779 0 l 43 0 l 54 158 l 578 818 l 107 818 l 121 989 l 840 989 l 829 832 z "},"Ź":{"ha":854,"x_min":43,"x_max":840,"o":"m 829 832 l 304 171 l 793 171 l 779 0 l 43 0 l 54 158 l 578 818 l 107 818 l 121 989 l 840 989 l 829 832 m 421 1074 l 578 1292 l 782 1292 l 550 1074 l 421 1074 z "},"Ž":{"ha":854,"x_min":43,"x_max":840,"o":"m 829 832 l 304 171 l 793 171 l 779 0 l 43 0 l 54 158 l 578 818 l 107 818 l 121 989 l 840 989 l 829 832 m 747 1292 l 546 1074 l 425 1074 l 258 1292 l 415 1292 l 499 1171 l 590 1292 l 747 1292 z "},"Ż":{"ha":854,"x_min":43,"x_max":840,"o":"m 829 832 l 304 171 l 793 171 l 779 0 l 43 0 l 54 158 l 578 818 l 107 818 l 121 989 l 840 989 l 829 832 m 615 1282 l 600 1085 l 375 1085 l 390 1282 l 615 1282 z "},"Ẓ":{"ha":854,"x_min":43,"x_max":840,"o":"m 829 832 l 304 171 l 793 171 l 779 0 l 43 0 l 54 158 l 578 818 l 107 818 l 121 989 l 840 989 l 829 832 m 489 -94 l 474 -279 l 279 -279 l 296 -94 l 489 -94 z "},"a":{"ha":875,"x_min":50,"x_max":818,"o":"m 818 704 l 763 0 l 556 0 l 563 90 q 472 15 528 42 q 350 -11 417 -11 q 193 30 261 -11 q 88 147 125 71 q 50 328 50 224 q 92 533 50 443 q 211 672 135 622 q 386 722 288 722 q 515 694 460 722 q 604 611 571 665 l 611 704 l 818 704 m 419 147 q 540 207 496 147 q 585 367 585 267 q 544 513 585 464 q 428 563 504 563 q 303 502 349 563 q 258 339 258 442 q 300 197 258 246 q 419 147 342 147 z "},"á":{"ha":875,"x_min":50,"x_max":818,"o":"m 818 704 l 763 0 l 556 0 l 563 90 q 472 15 528 42 q 350 -11 417 -11 q 193 30 261 -11 q 88 147 125 71 q 50 328 50 224 q 92 533 50 443 q 211 672 135 622 q 386 722 288 722 q 515 694 460 722 q 604 611 571 665 l 611 704 l 818 704 m 419 147 q 540 207 496 147 q 585 367 585 267 q 544 513 585 464 q 428 563 504 563 q 303 502 349 563 q 258 339 258 442 q 300 197 258 246 q 419 147 342 147 m 408 794 l 563 1081 l 779 1081 l 538 794 l 408 794 z "},"ă":{"ha":875,"x_min":50,"x_max":818,"o":"m 818 704 l 763 0 l 556 0 l 563 90 q 472 15 528 42 q 350 -11 417 -11 q 193 30 261 -11 q 88 147 125 71 q 50 328 50 224 q 92 533 50 443 q 211 672 135 622 q 386 722 288 722 q 515 694 460 722 q 604 611 571 665 l 611 704 l 818 704 m 419 147 q 540 207 496 147 q 585 367 585 267 q 544 513 585 464 q 428 563 504 563 q 303 502 349 563 q 258 339 258 442 q 300 197 258 246 q 419 147 342 147 m 483 825 q 324 877 393 825 q 232 1028 256 929 l 332 1069 q 492 957 383 957 q 657 1069 590 957 l 751 1028 q 648 876 721 928 q 483 825 575 825 z "},"ắ":{"ha":875,"x_min":50,"x_max":818,"o":"m 818 704 l 763 0 l 556 0 l 563 90 q 472 15 528 42 q 350 -11 417 -11 q 193 30 261 -11 q 88 147 125 71 q 50 328 50 224 q 92 533 50 443 q 211 672 135 622 q 386 722 288 722 q 515 694 460 722 q 604 611 571 665 l 611 704 l 818 704 m 419 147 q 540 207 496 147 q 585 367 585 267 q 544 513 585 464 q 428 563 504 563 q 303 502 349 563 q 258 339 258 442 q 300 197 258 246 q 419 147 342 147 m 422 943 l 574 1140 l 765 1140 l 544 943 l 422 943 m 482 788 q 324 826 390 788 q 235 939 258 865 l 315 971 q 385 913 339 933 q 489 893 432 893 q 585 913 536 893 q 660 971 633 933 l 735 939 q 633 826 700 865 q 482 788 565 788 z "},"ặ":{"ha":875,"x_min":50,"x_max":818,"o":"m 818 704 l 763 0 l 556 0 l 563 90 q 472 15 528 42 q 350 -11 417 -11 q 193 30 261 -11 q 88 147 125 71 q 50 328 50 224 q 92 533 50 443 q 211 672 135 622 q 386 722 288 722 q 515 694 460 722 q 604 611 571 665 l 611 704 l 818 704 m 419 147 q 540 207 496 147 q 585 367 585 267 q 544 513 585 464 q 428 563 504 563 q 303 502 349 563 q 258 339 258 442 q 300 197 258 246 q 419 147 342 147 m 501 -94 l 486 -279 l 292 -279 l 308 -94 l 501 -94 m 483 825 q 324 877 393 825 q 232 1028 256 929 l 332 1069 q 492 957 383 957 q 657 1069 590 957 l 751 1028 q 648 876 721 928 q 483 825 575 825 z "},"ằ":{"ha":875,"x_min":50,"x_max":818,"o":"m 818 704 l 763 0 l 556 0 l 563 90 q 472 15 528 42 q 350 -11 417 -11 q 193 30 261 -11 q 88 147 125 71 q 50 328 50 224 q 92 533 50 443 q 211 672 135 622 q 386 722 288 722 q 515 694 460 722 q 604 611 571 665 l 611 704 l 818 704 m 419 147 q 540 207 496 147 q 585 367 585 267 q 544 513 585 464 q 428 563 504 563 q 303 502 349 563 q 258 339 258 442 q 300 197 258 246 q 419 147 342 147 m 244 1140 l 415 1140 l 544 943 l 422 943 l 244 1140 m 482 788 q 324 826 390 788 q 235 939 258 865 l 315 971 q 385 913 339 933 q 489 893 432 893 q 585 913 536 893 q 660 971 633 933 l 735 939 q 633 826 700 865 q 482 788 565 788 z "},"ẳ":{"ha":875,"x_min":50,"x_max":818,"o":"m 818 704 l 763 0 l 556 0 l 563 90 q 472 15 528 42 q 350 -11 417 -11 q 193 30 261 -11 q 88 147 125 71 q 50 328 50 224 q 92 533 50 443 q 211 672 135 622 q 386 722 288 722 q 515 694 460 722 q 604 611 571 665 l 611 704 l 818 704 m 419 147 q 540 207 496 147 q 585 367 585 267 q 544 513 585 464 q 428 563 504 563 q 303 502 349 563 q 258 339 258 442 q 300 197 258 246 q 419 147 342 147 m 435 972 q 457 1012 438 997 q 506 1039 476 1026 q 517 1044 508 1040 q 528 1051 525 1047 q 532 1057 532 1054 q 501 1069 532 1069 q 404 1054 465 1069 l 385 1126 q 519 1149 446 1149 q 624 1127 586 1149 q 663 1071 663 1106 q 644 1027 663 1042 q 590 997 625 1013 q 551 978 564 986 q 538 956 539 969 l 536 944 l 432 944 l 435 972 m 482 788 q 324 826 390 788 q 235 939 258 865 l 315 971 q 385 913 339 933 q 489 893 432 893 q 585 913 536 893 q 660 971 633 933 l 735 939 q 633 826 700 865 q 482 788 565 788 z "},"ẵ":{"ha":875,"x_min":50,"x_max":818,"o":"m 818 704 l 763 0 l 556 0 l 563 90 q 472 15 528 42 q 350 -11 417 -11 q 193 30 261 -11 q 88 147 125 71 q 50 328 50 224 q 92 533 50 443 q 211 672 135 622 q 386 722 288 722 q 515 694 460 722 q 604 611 571 665 l 611 704 l 818 704 m 419 147 q 540 207 496 147 q 585 367 585 267 q 544 513 585 464 q 428 563 504 563 q 303 502 349 563 q 258 339 258 442 q 300 197 258 246 q 419 147 342 147 m 588 997 q 476 1022 543 997 q 430 1038 449 1033 q 392 1043 411 1043 q 335 1001 342 1043 l 244 1001 q 294 1108 247 1068 q 403 1149 342 1149 q 455 1142 431 1149 q 514 1122 479 1135 q 560 1106 542 1111 q 599 1101 579 1101 q 637 1110 622 1101 q 654 1144 651 1119 l 744 1144 q 696 1038 743 1079 q 588 997 649 997 m 482 788 q 324 826 390 788 q 235 939 258 865 l 315 971 q 385 913 339 933 q 489 893 432 893 q 585 913 536 893 q 660 971 633 933 l 735 939 q 633 826 700 865 q 482 788 565 788 z "},"ǎ":{"ha":875,"x_min":50,"x_max":818,"o":"m 818 704 l 763 0 l 556 0 l 563 90 q 472 15 528 42 q 350 -11 417 -11 q 193 30 261 -11 q 88 147 125 71 q 50 328 50 224 q 92 533 50 443 q 211 672 135 622 q 386 722 288 722 q 515 694 460 722 q 604 611 571 665 l 611 704 l 818 704 m 419 147 q 540 207 496 147 q 585 367 585 267 q 544 513 585 464 q 428 563 504 563 q 303 502 349 563 q 258 339 258 442 q 300 197 258 246 q 419 147 342 147 m 740 1081 l 536 794 l 410 794 l 250 1081 l 410 1081 l 483 917 l 572 1081 l 740 1081 z "},"â":{"ha":875,"x_min":50,"x_max":818,"o":"m 818 704 l 763 0 l 556 0 l 563 90 q 472 15 528 42 q 350 -11 417 -11 q 193 30 261 -11 q 88 147 125 71 q 50 328 50 224 q 92 533 50 443 q 211 672 135 622 q 386 722 288 722 q 515 694 460 722 q 604 611 571 665 l 611 704 l 818 704 m 419 147 q 540 207 496 147 q 585 367 585 267 q 544 513 585 464 q 428 563 504 563 q 303 502 349 563 q 258 339 258 442 q 300 197 258 246 q 419 147 342 147 m 228 794 l 432 1081 l 558 1081 l 718 794 l 558 794 l 486 957 l 396 794 l 228 794 z "},"ấ":{"ha":875,"x_min":50,"x_max":913,"o":"m 818 704 l 763 0 l 556 0 l 563 90 q 472 15 528 42 q 350 -11 417 -11 q 193 30 261 -11 q 88 147 125 71 q 50 328 50 224 q 92 533 50 443 q 211 672 135 622 q 386 722 288 722 q 515 694 460 722 q 604 611 571 665 l 611 704 l 818 704 m 419 147 q 540 207 496 147 q 585 367 585 267 q 544 513 585 464 q 428 563 504 563 q 303 502 349 563 q 258 339 258 442 q 300 197 258 246 q 419 147 342 147 m 617 943 l 728 1140 l 913 1140 l 719 943 l 617 943 m 228 794 l 428 988 l 549 988 l 718 794 l 564 794 l 485 893 l 385 794 l 228 794 z "},"ậ":{"ha":875,"x_min":50,"x_max":818,"o":"m 818 704 l 763 0 l 556 0 l 563 90 q 472 15 528 42 q 350 -11 417 -11 q 193 30 261 -11 q 88 147 125 71 q 50 328 50 224 q 92 533 50 443 q 211 672 135 622 q 386 722 288 722 q 515 694 460 722 q 604 611 571 665 l 611 704 l 818 704 m 419 147 q 540 207 496 147 q 585 367 585 267 q 544 513 585 464 q 428 563 504 563 q 303 502 349 563 q 258 339 258 442 q 300 197 258 246 q 419 147 342 147 m 501 -94 l 486 -279 l 292 -279 l 308 -94 l 501 -94 m 228 794 l 432 1081 l 558 1081 l 718 794 l 558 794 l 486 957 l 396 794 l 228 794 z "},"ầ":{"ha":875,"x_min":50,"x_max":818,"o":"m 818 704 l 763 0 l 556 0 l 563 90 q 472 15 528 42 q 350 -11 417 -11 q 193 30 261 -11 q 88 147 125 71 q 50 328 50 224 q 92 533 50 443 q 211 672 135 622 q 386 722 288 722 q 515 694 460 722 q 604 611 571 665 l 611 704 l 818 704 m 419 147 q 540 207 496 147 q 585 367 585 267 q 544 513 585 464 q 428 563 504 563 q 303 502 349 563 q 258 339 258 442 q 300 197 258 246 q 419 147 342 147 m 525 1140 l 689 1140 l 778 943 l 675 943 l 525 1140 m 428 988 l 549 988 l 718 794 l 564 794 l 485 893 l 385 794 l 228 794 l 428 988 z "},"ẩ":{"ha":875,"x_min":50,"x_max":844,"o":"m 818 704 l 763 0 l 556 0 l 563 90 q 472 15 528 42 q 350 -11 417 -11 q 193 30 261 -11 q 88 147 125 71 q 50 328 50 224 q 92 533 50 443 q 211 672 135 622 q 386 722 288 722 q 515 694 460 722 q 604 611 571 665 l 611 704 l 818 704 m 419 147 q 540 207 496 147 q 585 367 585 267 q 544 513 585 464 q 428 563 504 563 q 303 502 349 563 q 258 339 258 442 q 300 197 258 246 q 419 147 342 147 m 618 972 q 640 1013 621 999 q 688 1039 658 1028 q 699 1044 690 1040 q 710 1051 707 1047 q 714 1057 714 1054 q 683 1069 714 1069 q 588 1054 646 1069 l 567 1126 q 703 1149 631 1149 q 806 1127 768 1149 q 844 1071 844 1106 q 826 1026 844 1042 q 772 997 807 1011 q 735 978 747 986 q 721 956 722 969 l 719 944 l 615 944 l 618 972 m 428 988 l 549 988 l 718 794 l 564 794 l 485 893 l 385 794 l 228 794 l 428 988 z "},"ẫ":{"ha":875,"x_min":50,"x_max":818,"o":"m 818 704 l 763 0 l 556 0 l 563 90 q 472 15 528 42 q 350 -11 417 -11 q 193 30 261 -11 q 88 147 125 71 q 50 328 50 224 q 92 533 50 443 q 211 672 135 622 q 386 722 288 722 q 515 694 460 722 q 604 611 571 665 l 611 704 l 818 704 m 419 147 q 540 207 496 147 q 585 367 585 267 q 544 513 585 464 q 428 563 504 563 q 303 502 349 563 q 258 339 258 442 q 300 197 258 246 q 419 147 342 147 m 246 1013 q 296 1119 249 1079 q 404 1160 343 1160 q 515 1135 449 1160 q 562 1119 543 1124 q 600 1114 581 1114 q 638 1123 624 1114 q 656 1156 653 1132 l 746 1156 q 697 1050 744 1090 q 589 1010 650 1010 q 478 1035 544 1010 q 435 1048 457 1042 q 393 1054 413 1054 q 336 1013 343 1054 l 246 1013 m 428 988 l 549 988 l 718 794 l 564 794 l 485 893 l 385 794 l 228 794 l 428 988 z "},"ȁ":{"ha":875,"x_min":50,"x_max":818,"o":"m 818 704 l 763 0 l 556 0 l 563 90 q 472 15 528 42 q 350 -11 417 -11 q 193 30 261 -11 q 88 147 125 71 q 50 328 50 224 q 92 533 50 443 q 211 672 135 622 q 386 722 288 722 q 515 694 460 722 q 604 611 571 665 l 611 704 l 818 704 m 419 147 q 540 207 496 147 q 585 367 585 267 q 544 513 585 464 q 428 563 504 563 q 303 502 349 563 q 258 339 258 442 q 300 197 258 246 q 419 147 342 147 m 247 1081 l 393 1081 l 421 794 l 332 794 l 247 1081 m 442 1081 l 588 1081 l 615 794 l 525 794 l 442 1081 z "},"ä":{"ha":875,"x_min":50,"x_max":818,"o":"m 818 704 l 763 0 l 556 0 l 563 90 q 472 15 528 42 q 350 -11 417 -11 q 193 30 261 -11 q 88 147 125 71 q 50 328 50 224 q 92 533 50 443 q 211 672 135 622 q 386 722 288 722 q 515 694 460 722 q 604 611 571 665 l 611 704 l 818 704 m 419 147 q 540 207 496 147 q 585 367 585 267 q 544 513 585 464 q 428 563 504 563 q 303 502 349 563 q 258 339 258 442 q 300 197 258 246 q 419 147 342 147 m 454 1028 l 440 844 l 246 844 l 261 1028 l 454 1028 m 722 1028 l 706 844 l 513 844 l 528 1028 l 722 1028 z "},"ȧ":{"ha":875,"x_min":50,"x_max":818,"o":"m 818 704 l 763 0 l 556 0 l 563 90 q 472 15 528 42 q 350 -11 417 -11 q 193 30 261 -11 q 88 147 125 71 q 50 328 50 224 q 92 533 50 443 q 211 672 135 622 q 386 722 288 722 q 515 694 460 722 q 604 611 571 665 l 611 704 l 818 704 m 419 147 q 540 207 496 147 q 585 367 585 267 q 544 513 585 464 q 428 563 504 563 q 303 502 349 563 q 258 339 258 442 q 300 197 258 246 q 419 147 342 147 m 604 1035 l 589 838 l 364 838 l 379 1035 l 604 1035 z "},"ạ":{"ha":875,"x_min":50,"x_max":818,"o":"m 818 704 l 763 0 l 556 0 l 563 90 q 472 15 528 42 q 350 -11 417 -11 q 193 30 261 -11 q 88 147 125 71 q 50 328 50 224 q 92 533 50 443 q 211 672 135 622 q 386 722 288 722 q 515 694 460 722 q 604 611 571 665 l 611 704 l 818 704 m 419 147 q 540 207 496 147 q 585 367 585 267 q 544 513 585 464 q 428 563 504 563 q 303 502 349 563 q 258 339 258 442 q 300 197 258 246 q 419 147 342 147 m 501 -94 l 486 -279 l 292 -279 l 308 -94 l 501 -94 z "},"à":{"ha":875,"x_min":50,"x_max":818,"o":"m 818 704 l 763 0 l 556 0 l 563 90 q 472 15 528 42 q 350 -11 417 -11 q 193 30 261 -11 q 88 147 125 71 q 50 328 50 224 q 92 533 50 443 q 211 672 135 622 q 386 722 288 722 q 515 694 460 722 q 604 611 571 665 l 611 704 l 818 704 m 419 147 q 540 207 496 147 q 585 367 585 267 q 544 513 585 464 q 428 563 504 563 q 303 502 349 563 q 258 339 258 442 q 300 197 258 246 q 419 147 342 147 m 224 1081 l 417 1081 l 538 794 l 408 794 l 224 1081 z "},"ả":{"ha":875,"x_min":50,"x_max":818,"o":"m 818 704 l 763 0 l 556 0 l 563 90 q 472 15 528 42 q 350 -11 417 -11 q 193 30 261 -11 q 88 147 125 71 q 50 328 50 224 q 92 533 50 443 q 211 672 135 622 q 386 722 288 722 q 515 694 460 722 q 604 611 571 665 l 611 704 l 818 704 m 419 147 q 540 207 496 147 q 585 367 585 267 q 544 513 585 464 q 428 563 504 563 q 303 502 349 563 q 258 339 258 442 q 300 197 258 246 q 419 147 342 147 m 528 794 l 422 794 l 425 829 q 442 878 426 858 q 483 917 457 897 q 510 942 501 932 q 518 963 518 951 q 474 992 518 992 q 401 979 439 992 l 379 1063 q 510 1085 440 1085 q 617 1056 579 1085 q 656 986 656 1028 q 637 928 656 950 q 582 882 618 907 q 543 852 556 865 q 529 822 531 839 l 528 794 z "},"ȃ":{"ha":875,"x_min":50,"x_max":818,"o":"m 818 704 l 763 0 l 556 0 l 563 90 q 472 15 528 42 q 350 -11 417 -11 q 193 30 261 -11 q 88 147 125 71 q 50 328 50 224 q 92 533 50 443 q 211 672 135 622 q 386 722 288 722 q 515 694 460 722 q 604 611 571 665 l 611 704 l 818 704 m 419 147 q 540 207 496 147 q 585 367 585 267 q 544 513 585 464 q 428 563 504 563 q 303 502 349 563 q 258 339 258 442 q 300 197 258 246 q 419 147 342 147 m 486 1063 q 644 1010 576 1063 q 738 861 713 958 l 638 821 q 569 905 611 878 q 476 932 526 932 q 313 821 381 932 l 218 861 q 321 1011 247 960 q 486 1063 394 1063 z "},"ā":{"ha":875,"x_min":50,"x_max":818,"o":"m 818 704 l 763 0 l 556 0 l 563 90 q 472 15 528 42 q 350 -11 417 -11 q 193 30 261 -11 q 88 147 125 71 q 50 328 50 224 q 92 533 50 443 q 211 672 135 622 q 386 722 288 722 q 515 694 460 722 q 604 611 571 665 l 611 704 l 818 704 m 419 147 q 540 207 496 147 q 585 367 585 267 q 544 513 585 464 q 428 563 504 563 q 303 502 349 563 q 258 339 258 442 q 300 197 258 246 q 419 147 342 147 m 269 1000 l 708 1000 l 697 869 l 260 869 l 269 1000 z "},"ą":{"ha":875,"x_min":49,"x_max":817,"o":"m 697 -172 q 781 -153 736 -172 l 799 -253 q 663 -283 724 -283 q 533 -240 583 -283 q 483 -131 483 -197 q 502 -54 483 -89 q 554 6 521 -19 l 561 90 q 471 15 526 42 q 349 -11 415 -11 q 192 30 260 -11 q 86 147 124 71 q 49 328 49 224 q 91 533 49 443 q 210 672 133 622 q 385 722 286 722 q 514 694 458 722 q 603 611 569 665 l 610 704 l 817 704 l 761 0 l 736 0 q 653 -28 685 0 q 622 -99 622 -56 q 642 -153 622 -133 q 697 -172 663 -172 m 418 168 q 526 222 486 168 q 567 365 567 276 q 531 497 567 453 q 426 542 494 542 q 315 488 356 542 q 274 342 274 435 q 311 213 274 258 q 418 168 349 168 z "},"å":{"ha":875,"x_min":50,"x_max":818,"o":"m 818 704 l 763 0 l 556 0 l 563 90 q 472 15 528 42 q 350 -11 417 -11 q 193 30 261 -11 q 88 147 125 71 q 50 328 50 224 q 92 533 50 443 q 211 672 135 622 q 386 722 288 722 q 515 694 460 722 q 604 611 571 665 l 611 704 l 818 704 m 419 147 q 540 207 496 147 q 585 367 585 267 q 544 513 585 464 q 428 563 504 563 q 303 502 349 563 q 258 339 258 442 q 300 197 258 246 q 419 147 342 147 m 485 788 q 376 831 419 788 q 332 939 332 875 q 376 1045 332 1001 q 485 1089 421 1089 q 593 1045 549 1089 q 638 939 638 1001 q 593 831 638 875 q 485 788 549 788 m 485 874 q 528 892 511 874 q 544 939 544 911 q 528 983 544 965 q 485 1001 511 1001 q 441 983 458 1001 q 424 939 424 965 q 441 892 424 911 q 485 874 458 874 z "},"ǻ":{"ha":875,"x_min":49,"x_max":858,"o":"m 471 789 q 369 830 410 789 q 328 932 328 871 q 376 1048 328 1000 q 493 1096 425 1096 q 557 1082 529 1096 l 663 1225 l 858 1217 l 631 1008 q 640 953 640 979 q 617 871 640 908 q 554 811 593 833 q 471 789 515 789 m 421 939 q 437 894 421 913 q 478 876 453 876 q 526 898 506 876 q 546 950 546 919 q 530 992 546 975 q 488 1008 514 1008 q 440 988 458 1008 q 421 939 421 968 m 610 704 l 817 704 l 761 0 l 554 0 l 561 90 q 471 15 526 42 q 349 -11 415 -11 q 192 30 260 -11 q 86 147 124 71 q 49 328 49 224 q 91 533 49 443 q 210 672 133 622 q 385 722 286 722 q 514 694 458 722 q 603 611 569 665 l 610 704 m 418 147 q 539 207 494 147 q 583 367 583 267 q 543 513 583 464 q 426 563 503 563 q 303 502 349 563 q 257 339 257 442 q 299 197 257 246 q 418 147 340 147 z "},"ã":{"ha":875,"x_min":50,"x_max":818,"o":"m 818 704 l 763 0 l 556 0 l 563 90 q 472 15 528 42 q 350 -11 417 -11 q 193 30 261 -11 q 88 147 125 71 q 50 328 50 224 q 92 533 50 443 q 211 672 135 622 q 386 722 288 722 q 515 694 460 722 q 604 611 571 665 l 611 704 l 818 704 m 419 147 q 540 207 496 147 q 585 367 585 267 q 544 513 585 464 q 428 563 504 563 q 303 502 349 563 q 258 339 258 442 q 300 197 258 246 q 419 147 342 147 m 232 839 q 284 992 238 943 q 393 1042 331 1042 q 447 1031 422 1042 q 507 1000 471 1021 q 551 976 536 983 q 582 969 565 969 q 646 1038 638 969 l 738 1038 q 685 884 731 933 q 575 835 639 835 q 522 845 546 835 q 464 876 497 856 q 442 888 458 879 q 412 902 425 897 q 388 907 399 907 q 322 839 332 907 l 232 839 z "},"æ":{"ha":1203,"x_min":47,"x_max":1156,"o":"m 864 722 q 1015 685 949 722 q 1118 574 1081 647 q 1156 401 1156 501 q 1151 335 1156 371 l 697 335 q 744 194 699 242 q 875 146 790 146 q 1076 217 983 146 l 1122 75 q 1006 12 1078 35 q 861 -11 935 -11 q 689 26 761 -11 q 574 132 617 63 q 463 26 533 64 q 307 -11 393 -11 q 118 48 189 -11 q 47 203 47 107 q 140 383 47 328 q 442 439 232 439 l 506 439 q 482 534 511 504 q 383 564 453 564 q 269 544 331 564 q 154 492 208 525 l 108 635 q 253 698 167 674 q 424 722 340 722 q 639 635 574 722 q 741 699 683 676 q 864 722 799 722 m 861 575 q 707 439 738 575 l 981 439 q 945 541 978 507 q 861 575 913 575 m 347 135 q 448 178 407 135 q 494 290 489 222 l 499 338 l 446 338 q 294 313 338 338 q 250 226 250 288 q 276 158 250 182 q 347 135 303 135 z "},"ǽ":{"ha":1203,"x_min":47,"x_max":1156,"o":"m 864 722 q 1015 685 949 722 q 1118 574 1081 647 q 1156 401 1156 501 q 1151 335 1156 371 l 697 335 q 744 194 699 242 q 875 146 790 146 q 1076 217 983 146 l 1122 75 q 1006 12 1078 35 q 861 -11 935 -11 q 689 26 761 -11 q 574 132 617 63 q 463 26 533 64 q 307 -11 393 -11 q 118 48 189 -11 q 47 203 47 107 q 140 383 47 328 q 442 439 232 439 l 506 439 q 482 534 511 504 q 383 564 453 564 q 269 544 331 564 q 154 492 208 525 l 108 635 q 253 698 167 674 q 424 722 340 722 q 639 635 574 722 q 741 699 683 676 q 864 722 799 722 m 861 575 q 707 439 738 575 l 981 439 q 945 541 978 507 q 861 575 913 575 m 347 135 q 448 178 407 135 q 494 290 489 222 l 499 338 l 446 338 q 294 313 338 338 q 250 226 250 288 q 276 158 250 182 q 347 135 303 135 m 568 794 l 722 1081 l 939 1081 l 697 794 l 568 794 z "},"b":{"ha":876,"x_min":58,"x_max":829,"o":"m 529 722 q 686 681 618 722 q 792 563 754 640 q 829 383 829 486 q 787 178 829 268 q 668 39 744 89 q 493 -11 592 -11 q 365 17 419 -11 q 275 100 310 46 l 267 0 l 58 0 l 139 1022 l 349 1022 l 317 621 q 407 695 351 668 q 529 722 463 722 m 451 147 q 575 206 531 147 q 619 369 619 265 q 578 513 619 463 q 460 563 536 563 q 338 502 383 563 q 293 342 293 442 q 334 197 293 246 q 451 147 375 147 z "},"c":{"ha":707,"x_min":50,"x_max":714,"o":"m 417 -11 q 222 32 306 -11 q 94 153 139 75 q 50 333 50 231 q 98 540 50 453 q 234 675 146 628 q 440 722 322 722 q 714 635 608 722 l 646 489 q 451 561 550 561 q 314 502 363 561 q 265 336 265 443 q 310 198 265 246 q 432 150 354 150 q 625 221 533 150 l 671 75 q 556 11 624 33 q 417 -11 489 -11 z "},"ć":{"ha":707,"x_min":50,"x_max":761,"o":"m 417 -11 q 222 32 306 -11 q 94 153 139 75 q 50 333 50 231 q 98 540 50 453 q 234 675 146 628 q 440 722 322 722 q 714 635 608 722 l 646 489 q 451 561 550 561 q 314 502 363 561 q 265 336 265 443 q 310 198 265 246 q 432 150 354 150 q 625 221 533 150 l 671 75 q 556 11 624 33 q 417 -11 489 -11 m 390 794 l 544 1081 l 761 1081 l 519 794 l 390 794 z "},"č":{"ha":707,"x_min":50,"x_max":722,"o":"m 417 -11 q 222 32 306 -11 q 94 153 139 75 q 50 333 50 231 q 98 540 50 453 q 234 675 146 628 q 440 722 322 722 q 714 635 608 722 l 646 489 q 451 561 550 561 q 314 502 363 561 q 265 336 265 443 q 310 198 265 246 q 432 150 354 150 q 625 221 533 150 l 671 75 q 556 11 624 33 q 417 -11 489 -11 m 722 1081 l 518 794 l 392 794 l 232 1081 l 392 1081 l 465 917 l 554 1081 l 722 1081 z "},"ç":{"ha":707,"x_min":50,"x_max":714,"o":"m 671 75 q 559 13 625 35 q 422 -11 493 -10 l 413 -56 l 422 -56 q 506 -81 474 -56 q 538 -151 538 -107 q 488 -241 538 -206 q 351 -276 439 -276 q 276 -270 315 -276 q 211 -251 238 -264 l 233 -169 q 346 -189 296 -189 q 408 -153 408 -189 q 397 -133 408 -140 q 365 -125 386 -125 q 314 -135 350 -125 l 289 -106 l 311 0 q 119 115 189 26 q 50 333 50 204 q 98 540 50 453 q 234 675 146 628 q 440 722 322 722 q 714 635 608 722 l 646 489 q 451 561 550 561 q 314 502 363 561 q 265 336 265 443 q 310 198 265 246 q 432 150 354 150 q 625 221 533 150 l 671 75 z "},"ḉ":{"ha":707,"x_min":50,"x_max":761,"o":"m 519 794 l 390 794 l 544 1081 l 761 1081 l 519 794 m 451 561 q 314 502 363 561 q 265 336 265 443 q 310 198 265 246 q 432 150 354 150 q 625 221 533 150 l 671 75 q 559 13 625 35 q 422 -11 493 -10 l 413 -56 l 422 -56 q 506 -81 474 -56 q 538 -151 538 -107 q 488 -241 538 -206 q 351 -276 439 -276 q 276 -270 315 -276 q 211 -251 238 -264 l 233 -169 q 346 -189 296 -189 q 408 -153 408 -189 q 397 -133 408 -140 q 365 -125 386 -125 q 314 -135 350 -125 l 289 -106 l 311 0 q 119 115 189 26 q 50 333 50 204 q 98 540 50 453 q 234 675 146 628 q 440 722 322 722 q 714 635 608 722 l 646 489 q 451 561 550 561 z "},"ĉ":{"ha":707,"x_min":50,"x_max":714,"o":"m 417 -11 q 222 32 306 -11 q 94 153 139 75 q 50 333 50 231 q 98 540 50 453 q 234 675 146 628 q 440 722 322 722 q 714 635 608 722 l 646 489 q 451 561 550 561 q 314 502 363 561 q 265 336 265 443 q 310 198 265 246 q 432 150 354 150 q 625 221 533 150 l 671 75 q 556 11 624 33 q 417 -11 489 -11 m 210 794 l 414 1081 l 540 1081 l 700 794 l 540 794 l 468 957 l 378 794 l 210 794 z "},"ċ":{"ha":707,"x_min":50,"x_max":714,"o":"m 417 -11 q 222 32 306 -11 q 94 153 139 75 q 50 333 50 231 q 98 540 50 453 q 234 675 146 628 q 440 722 322 722 q 714 635 608 722 l 646 489 q 451 561 550 561 q 314 502 363 561 q 265 336 265 443 q 310 198 265 246 q 432 150 354 150 q 625 221 533 150 l 671 75 q 556 11 624 33 q 417 -11 489 -11 m 586 1035 l 571 838 l 346 838 l 361 1035 l 586 1035 z "},"d":{"ha":875,"x_min":50,"x_max":844,"o":"m 844 1022 l 763 0 l 556 0 l 563 89 q 472 15 528 42 q 350 -11 417 -11 q 193 30 261 -11 q 88 147 125 71 q 50 328 50 224 q 92 533 50 443 q 211 672 135 622 q 386 722 288 722 q 513 694 458 722 q 601 614 568 667 l 633 1022 l 844 1022 m 419 147 q 540 207 496 147 q 585 367 585 267 q 544 513 585 464 q 428 563 504 563 q 303 503 349 563 q 258 340 258 443 q 300 197 258 247 q 419 147 342 147 z "},"ð":{"ha":850,"x_min":47,"x_max":831,"o":"m 706 804 q 781 642 756 731 q 807 456 807 553 q 700 103 807 217 q 414 -11 593 -11 q 219 28 301 -11 q 92 139 136 67 q 47 307 47 211 q 94 490 47 411 q 222 610 140 568 q 404 653 303 653 q 606 581 539 653 q 519 754 585 681 l 268 685 l 247 793 l 415 839 q 256 894 347 879 l 313 1039 q 626 896 503 1011 l 811 946 l 831 839 l 706 804 m 413 149 q 538 202 497 149 q 579 342 579 256 q 540 456 579 414 q 425 497 500 497 q 297 444 339 497 q 256 308 256 390 q 297 193 256 238 q 413 149 338 149 z "},"ď":{"ha":875,"x_min":50,"x_max":992,"o":"m 633 1022 l 844 1022 l 763 0 l 556 0 l 563 89 q 472 15 528 42 q 350 -11 417 -11 q 193 30 261 -11 q 88 147 125 71 q 50 328 50 224 q 92 533 50 443 q 211 672 135 622 q 386 722 288 722 q 513 694 458 722 q 601 614 568 667 l 633 1022 m 992 1022 l 933 744 l 861 744 l 881 1022 l 992 1022 m 419 147 q 540 207 496 147 q 585 367 585 267 q 544 513 585 464 q 428 563 504 563 q 303 503 349 563 q 258 340 258 443 q 300 197 258 247 q 419 147 342 147 z "},"đ":{"ha":875,"x_min":51,"x_max":960,"o":"m 950 778 l 826 778 l 765 0 l 558 0 l 565 92 q 475 16 531 43 q 351 -11 419 -11 q 194 31 263 -11 q 89 153 126 74 q 51 340 51 232 q 94 534 51 447 q 213 672 136 621 q 388 722 290 722 q 515 694 460 722 q 603 614 569 667 l 615 778 l 349 778 l 360 924 l 626 924 l 635 1022 l 846 1022 l 838 924 l 960 924 l 950 778 m 421 147 q 543 208 500 147 q 586 381 586 268 q 546 517 586 471 q 426 563 506 563 q 306 503 351 563 q 260 339 260 443 q 302 196 260 244 q 421 147 344 147 z "},"ḍ":{"ha":875,"x_min":50,"x_max":844,"o":"m 844 1022 l 763 0 l 556 0 l 563 89 q 472 15 528 42 q 350 -11 417 -11 q 193 30 261 -11 q 88 147 125 71 q 50 328 50 224 q 92 533 50 443 q 211 672 135 622 q 386 722 288 722 q 513 694 458 722 q 601 614 568 667 l 633 1022 l 844 1022 m 419 147 q 540 207 496 147 q 585 367 585 267 q 544 513 585 464 q 428 563 504 563 q 303 503 349 563 q 258 340 258 443 q 300 197 258 247 q 419 147 342 147 m 503 -94 l 488 -279 l 293 -279 l 310 -94 l 503 -94 z "},"ḏ":{"ha":875,"x_min":50,"x_max":844,"o":"m 844 1022 l 763 0 l 556 0 l 563 89 q 472 15 528 42 q 350 -11 417 -11 q 193 30 261 -11 q 88 147 125 71 q 50 328 50 224 q 92 533 50 443 q 211 672 135 622 q 386 722 288 722 q 513 694 458 722 q 601 614 568 667 l 633 1022 l 844 1022 m 419 147 q 540 207 496 147 q 585 367 585 267 q 544 513 585 464 q 428 563 504 563 q 303 503 349 563 q 258 340 258 443 q 300 197 258 247 q 419 147 342 147 m 183 -126 l 622 -126 l 613 -249 l 175 -249 l 183 -126 z "},"ǆ":{"ha":1611,"x_min":50,"x_max":1576,"o":"m 844 1022 l 763 0 l 556 0 l 563 89 q 472 15 528 42 q 350 -11 417 -11 q 193 30 261 -11 q 88 147 125 71 q 50 328 50 224 q 92 533 50 443 q 211 672 135 622 q 386 722 288 722 q 513 694 458 722 q 601 614 568 667 l 633 1022 l 844 1022 m 419 147 q 540 207 496 147 q 585 367 585 267 q 544 513 585 464 q 428 563 504 563 q 303 503 349 563 q 258 340 258 443 q 300 197 258 247 q 419 147 342 147 m 1565 563 l 1178 157 l 1549 157 l 1535 0 l 914 0 l 926 147 l 1308 547 l 963 547 l 975 704 l 1576 704 l 1565 563 m 1556 1081 l 1351 794 l 1225 794 l 1065 1081 l 1225 1081 l 1299 917 l 1388 1081 l 1556 1081 z "},"e":{"ha":764,"x_min":50,"x_max":717,"o":"m 406 722 q 632 638 547 722 q 717 404 717 554 q 713 335 717 371 l 251 335 q 298 194 253 242 q 431 146 343 146 q 639 217 543 146 l 683 75 q 565 12 636 35 q 417 -11 494 -11 q 224 31 307 -11 q 95 152 140 74 q 50 335 50 231 q 96 535 50 447 q 223 673 142 624 q 406 722 304 722 m 414 575 q 261 439 289 575 l 543 439 q 508 540 543 504 q 414 575 474 575 z "},"é":{"ha":764,"x_min":50,"x_max":738,"o":"m 406 722 q 632 638 547 722 q 717 404 717 554 q 713 335 717 371 l 251 335 q 298 194 253 242 q 431 146 343 146 q 639 217 543 146 l 683 75 q 565 12 636 35 q 417 -11 494 -11 q 224 31 307 -11 q 95 152 140 74 q 50 335 50 231 q 96 535 50 447 q 223 673 142 624 q 406 722 304 722 m 414 575 q 261 439 289 575 l 543 439 q 508 540 543 504 q 414 575 474 575 m 367 794 l 521 1081 l 738 1081 l 496 794 l 367 794 z "},"ĕ":{"ha":764,"x_min":50,"x_max":717,"o":"m 406 722 q 632 638 547 722 q 717 404 717 554 q 713 335 717 371 l 251 335 q 298 194 253 242 q 431 146 343 146 q 639 217 543 146 l 683 75 q 565 12 636 35 q 417 -11 494 -11 q 224 31 307 -11 q 95 152 140 74 q 50 335 50 231 q 96 535 50 447 q 223 673 142 624 q 406 722 304 722 m 414 575 q 261 439 289 575 l 543 439 q 508 540 543 504 q 414 575 474 575 m 442 825 q 283 877 351 825 q 190 1028 214 929 l 290 1069 q 450 957 342 957 q 615 1069 549 957 l 710 1028 q 606 876 679 928 q 442 825 533 825 z "},"ě":{"ha":764,"x_min":50,"x_max":717,"o":"m 406 722 q 632 638 547 722 q 717 404 717 554 q 713 335 717 371 l 251 335 q 298 194 253 242 q 431 146 343 146 q 639 217 543 146 l 683 75 q 565 12 636 35 q 417 -11 494 -11 q 224 31 307 -11 q 95 152 140 74 q 50 335 50 231 q 96 535 50 447 q 223 673 142 624 q 406 722 304 722 m 414 575 q 261 439 289 575 l 543 439 q 508 540 543 504 q 414 575 474 575 m 699 1081 l 494 794 l 368 794 l 208 1081 l 368 1081 l 442 917 l 531 1081 l 699 1081 z "},"ḝ":{"ha":764,"x_min":50,"x_max":717,"o":"m 442 825 q 283 877 351 825 q 190 1028 214 929 l 290 1069 q 450 957 342 957 q 615 1069 549 957 l 710 1028 q 606 876 679 928 q 442 825 533 825 m 406 722 q 632 638 547 722 q 717 404 717 554 q 713 335 717 371 l 251 335 q 298 194 253 242 q 431 146 343 146 q 639 217 543 146 l 683 75 q 575 15 640 38 q 439 -11 510 -8 l 429 -56 l 439 -56 q 522 -81 490 -56 q 554 -151 554 -107 q 505 -241 554 -206 q 368 -276 456 -276 q 293 -270 332 -276 q 228 -251 254 -264 l 250 -169 q 363 -189 313 -189 q 425 -153 425 -189 q 414 -133 425 -140 q 382 -125 403 -125 q 331 -135 367 -125 l 306 -106 l 326 -3 q 124 110 199 21 q 50 335 50 200 q 96 535 50 447 q 223 673 142 624 q 406 722 304 722 m 414 575 q 261 439 289 575 l 543 439 q 508 540 543 504 q 414 575 474 575 z "},"ê":{"ha":764,"x_min":50,"x_max":717,"o":"m 406 722 q 632 638 547 722 q 717 404 717 554 q 713 335 717 371 l 251 335 q 298 194 253 242 q 431 146 343 146 q 639 217 543 146 l 683 75 q 565 12 636 35 q 417 -11 494 -11 q 224 31 307 -11 q 95 152 140 74 q 50 335 50 231 q 96 535 50 447 q 223 673 142 624 q 406 722 304 722 m 414 575 q 261 439 289 575 l 543 439 q 508 540 543 504 q 414 575 474 575 m 186 794 l 390 1081 l 517 1081 l 676 794 l 517 794 l 444 957 l 354 794 l 186 794 z "},"ế":{"ha":764,"x_min":50,"x_max":871,"o":"m 406 722 q 632 638 547 722 q 717 404 717 554 q 713 335 717 371 l 251 335 q 298 194 253 242 q 431 146 343 146 q 639 217 543 146 l 683 75 q 565 12 636 35 q 417 -11 494 -11 q 224 31 307 -11 q 95 152 140 74 q 50 335 50 231 q 96 535 50 447 q 223 673 142 624 q 406 722 304 722 m 414 575 q 261 439 289 575 l 543 439 q 508 540 543 504 q 414 575 474 575 m 575 943 l 686 1140 l 871 1140 l 678 943 l 575 943 m 186 794 l 386 988 l 507 988 l 676 794 l 522 794 l 443 893 l 343 794 l 186 794 z "},"ệ":{"ha":764,"x_min":50,"x_max":717,"o":"m 406 722 q 632 638 547 722 q 717 404 717 554 q 713 335 717 371 l 251 335 q 298 194 253 242 q 431 146 343 146 q 639 217 543 146 l 683 75 q 565 12 636 35 q 417 -11 494 -11 q 224 31 307 -11 q 95 152 140 74 q 50 335 50 231 q 96 535 50 447 q 223 673 142 624 q 406 722 304 722 m 414 575 q 261 439 289 575 l 543 439 q 508 540 543 504 q 414 575 474 575 m 488 -94 l 472 -279 l 278 -279 l 294 -94 l 488 -94 m 186 794 l 390 1081 l 517 1081 l 676 794 l 517 794 l 444 957 l 354 794 l 186 794 z "},"ề":{"ha":764,"x_min":50,"x_max":736,"o":"m 406 722 q 632 638 547 722 q 717 404 717 554 q 713 335 717 371 l 251 335 q 298 194 253 242 q 431 146 343 146 q 639 217 543 146 l 683 75 q 565 12 636 35 q 417 -11 494 -11 q 224 31 307 -11 q 95 152 140 74 q 50 335 50 231 q 96 535 50 447 q 223 673 142 624 q 406 722 304 722 m 414 575 q 261 439 289 575 l 543 439 q 508 540 543 504 q 414 575 474 575 m 483 1140 l 647 1140 l 736 943 l 633 943 l 483 1140 m 386 988 l 507 988 l 676 794 l 522 794 l 443 893 l 343 794 l 186 794 l 386 988 z "},"ể":{"ha":764,"x_min":50,"x_max":803,"o":"m 406 722 q 632 638 547 722 q 717 404 717 554 q 713 335 717 371 l 251 335 q 298 194 253 242 q 431 146 343 146 q 639 217 543 146 l 683 75 q 565 12 636 35 q 417 -11 494 -11 q 224 31 307 -11 q 95 152 140 74 q 50 335 50 231 q 96 535 50 447 q 223 673 142 624 q 406 722 304 722 m 414 575 q 261 439 289 575 l 543 439 q 508 540 543 504 q 414 575 474 575 m 576 972 q 598 1013 579 999 q 646 1039 617 1028 q 657 1044 649 1040 q 669 1051 665 1047 q 672 1057 672 1054 q 642 1069 672 1069 q 546 1054 604 1069 l 525 1126 q 661 1149 589 1149 q 765 1127 726 1149 q 803 1071 803 1106 q 784 1026 803 1042 q 731 997 765 1011 q 693 978 706 986 q 679 956 681 969 l 678 944 l 574 944 l 576 972 m 386 988 l 507 988 l 676 794 l 522 794 l 443 893 l 343 794 l 186 794 l 386 988 z "},"ễ":{"ha":764,"x_min":50,"x_max":717,"o":"m 406 722 q 632 638 547 722 q 717 404 717 554 q 713 335 717 371 l 251 335 q 298 194 253 242 q 431 146 343 146 q 639 217 543 146 l 683 75 q 565 12 636 35 q 417 -11 494 -11 q 224 31 307 -11 q 95 152 140 74 q 50 335 50 231 q 96 535 50 447 q 223 673 142 624 q 406 722 304 722 m 414 575 q 261 439 289 575 l 543 439 q 508 540 543 504 q 414 575 474 575 m 204 1013 q 254 1119 207 1079 q 363 1160 301 1160 q 474 1135 407 1160 q 520 1119 501 1124 q 558 1114 539 1114 q 597 1123 582 1114 q 614 1156 611 1132 l 704 1156 q 656 1050 703 1090 q 547 1010 608 1010 q 436 1035 503 1010 q 393 1048 415 1042 q 351 1054 371 1054 q 294 1013 301 1054 l 204 1013 m 386 988 l 507 988 l 676 794 l 522 794 l 443 893 l 343 794 l 186 794 l 386 988 z "},"ȅ":{"ha":764,"x_min":50,"x_max":717,"o":"m 406 722 q 632 638 547 722 q 717 404 717 554 q 713 335 717 371 l 251 335 q 298 194 253 242 q 431 146 343 146 q 639 217 543 146 l 683 75 q 565 12 636 35 q 417 -11 494 -11 q 224 31 307 -11 q 95 152 140 74 q 50 335 50 231 q 96 535 50 447 q 223 673 142 624 q 406 722 304 722 m 414 575 q 261 439 289 575 l 543 439 q 508 540 543 504 q 414 575 474 575 m 206 1081 l 351 1081 l 379 794 l 290 794 l 206 1081 m 400 1081 l 546 1081 l 574 794 l 483 794 l 400 1081 z "},"ë":{"ha":764,"x_min":50,"x_max":717,"o":"m 406 722 q 632 638 547 722 q 717 404 717 554 q 713 335 717 371 l 251 335 q 298 194 253 242 q 431 146 343 146 q 639 217 543 146 l 683 75 q 565 12 636 35 q 417 -11 494 -11 q 224 31 307 -11 q 95 152 140 74 q 50 335 50 231 q 96 535 50 447 q 223 673 142 624 q 406 722 304 722 m 414 575 q 261 439 289 575 l 543 439 q 508 540 543 504 q 414 575 474 575 m 413 1028 l 399 844 l 204 844 l 219 1028 l 413 1028 m 681 1028 l 664 844 l 471 844 l 486 1028 l 681 1028 z "},"ė":{"ha":764,"x_min":50,"x_max":717,"o":"m 406 722 q 632 638 547 722 q 717 404 717 554 q 713 335 717 371 l 251 335 q 298 194 253 242 q 431 146 343 146 q 639 217 543 146 l 683 75 q 565 12 636 35 q 417 -11 494 -11 q 224 31 307 -11 q 95 152 140 74 q 50 335 50 231 q 96 535 50 447 q 223 673 142 624 q 406 722 304 722 m 414 575 q 261 439 289 575 l 543 439 q 508 540 543 504 q 414 575 474 575 m 563 1035 l 547 838 l 322 838 l 338 1035 l 563 1035 z "},"ẹ":{"ha":764,"x_min":50,"x_max":717,"o":"m 406 722 q 632 638 547 722 q 717 404 717 554 q 713 335 717 371 l 251 335 q 298 194 253 242 q 431 146 343 146 q 639 217 543 146 l 683 75 q 565 12 636 35 q 417 -11 494 -11 q 224 31 307 -11 q 95 152 140 74 q 50 335 50 231 q 96 535 50 447 q 223 673 142 624 q 406 722 304 722 m 414 575 q 261 439 289 575 l 543 439 q 508 540 543 504 q 414 575 474 575 m 488 -94 l 472 -279 l 278 -279 l 294 -94 l 488 -94 z "},"è":{"ha":764,"x_min":50,"x_max":717,"o":"m 406 722 q 632 638 547 722 q 717 404 717 554 q 713 335 717 371 l 251 335 q 298 194 253 242 q 431 146 343 146 q 639 217 543 146 l 683 75 q 565 12 636 35 q 417 -11 494 -11 q 224 31 307 -11 q 95 152 140 74 q 50 335 50 231 q 96 535 50 447 q 223 673 142 624 q 406 722 304 722 m 414 575 q 261 439 289 575 l 543 439 q 508 540 543 504 q 414 575 474 575 m 182 1081 l 375 1081 l 496 794 l 367 794 l 182 1081 z "},"ẻ":{"ha":764,"x_min":50,"x_max":717,"o":"m 406 722 q 632 638 547 722 q 717 404 717 554 q 713 335 717 371 l 251 335 q 298 194 253 242 q 431 146 343 146 q 639 217 543 146 l 683 75 q 565 12 636 35 q 417 -11 494 -11 q 224 31 307 -11 q 95 152 140 74 q 50 335 50 231 q 96 535 50 447 q 223 673 142 624 q 406 722 304 722 m 414 575 q 261 439 289 575 l 543 439 q 508 540 543 504 q 414 575 474 575 m 486 794 l 381 794 l 383 829 q 400 878 385 858 q 442 917 415 897 q 468 942 460 932 q 476 963 476 951 q 432 992 476 992 q 360 979 397 992 l 338 1063 q 468 1085 399 1085 q 576 1056 538 1085 q 614 986 614 1028 q 595 928 614 950 q 540 882 576 907 q 501 852 514 865 q 488 822 489 839 l 486 794 z "},"ȇ":{"ha":764,"x_min":50,"x_max":717,"o":"m 406 722 q 632 638 547 722 q 717 404 717 554 q 713 335 717 371 l 251 335 q 298 194 253 242 q 431 146 343 146 q 639 217 543 146 l 683 75 q 565 12 636 35 q 417 -11 494 -11 q 224 31 307 -11 q 95 152 140 74 q 50 335 50 231 q 96 535 50 447 q 223 673 142 624 q 406 722 304 722 m 414 575 q 261 439 289 575 l 543 439 q 508 540 543 504 q 414 575 474 575 m 444 1063 q 603 1010 535 1063 q 696 861 671 958 l 596 821 q 527 905 569 878 q 435 932 485 932 q 271 821 339 932 l 176 861 q 279 1011 206 960 q 444 1063 353 1063 z "},"ē":{"ha":764,"x_min":50,"x_max":717,"o":"m 406 722 q 632 638 547 722 q 717 404 717 554 q 713 335 717 371 l 251 335 q 298 194 253 242 q 431 146 343 146 q 639 217 543 146 l 683 75 q 565 12 636 35 q 417 -11 494 -11 q 224 31 307 -11 q 95 152 140 74 q 50 335 50 231 q 96 535 50 447 q 223 673 142 624 q 406 722 304 722 m 414 575 q 261 439 289 575 l 543 439 q 508 540 543 504 q 414 575 474 575 m 228 1000 l 667 1000 l 656 869 l 218 869 l 228 1000 z "},"ḗ":{"ha":764,"x_min":50,"x_max":758,"o":"m 406 722 q 632 638 547 722 q 717 404 717 554 q 713 335 717 371 l 251 335 q 298 194 253 242 q 431 146 343 146 q 639 217 543 146 l 683 75 q 565 12 636 35 q 417 -11 494 -11 q 224 31 307 -11 q 95 152 140 74 q 50 335 50 231 q 96 535 50 447 q 223 673 142 624 q 406 722 304 722 m 414 575 q 261 439 289 575 l 543 439 q 508 540 543 504 q 414 575 474 575 m 228 1000 l 667 1000 l 656 869 l 218 869 l 228 1000 m 388 1063 l 542 1349 l 758 1349 l 517 1063 l 388 1063 z "},"ḕ":{"ha":764,"x_min":50,"x_max":717,"o":"m 406 722 q 632 638 547 722 q 717 404 717 554 q 713 335 717 371 l 251 335 q 298 194 253 242 q 431 146 343 146 q 639 217 543 146 l 683 75 q 565 12 636 35 q 417 -11 494 -11 q 224 31 307 -11 q 95 152 140 74 q 50 335 50 231 q 96 535 50 447 q 223 673 142 624 q 406 722 304 722 m 414 575 q 261 439 289 575 l 543 439 q 508 540 543 504 q 414 575 474 575 m 228 1000 l 667 1000 l 656 869 l 218 869 l 228 1000 m 203 1349 l 396 1349 l 517 1063 l 388 1063 l 203 1349 z "},"ę":{"ha":764,"x_min":50,"x_max":717,"o":"m 406 722 q 632 638 547 722 q 717 404 717 554 q 713 335 717 371 l 251 335 q 298 194 253 242 q 431 146 343 146 q 639 217 543 146 l 683 75 q 597 24 658 47 q 507 -32 533 -3 q 481 -99 481 -61 q 501 -153 481 -133 q 557 -172 522 -172 q 640 -153 596 -172 l 656 -253 q 522 -283 585 -283 q 391 -241 439 -283 q 343 -131 343 -199 q 356 -64 343 -94 q 394 -11 369 -33 q 213 38 290 -7 q 92 158 135 82 q 50 335 50 235 q 96 535 50 447 q 223 673 142 624 q 406 722 304 722 m 414 575 q 261 439 290 575 l 543 439 q 508 540 543 504 q 414 575 474 575 z "},"ẽ":{"ha":764,"x_min":50,"x_max":717,"o":"m 406 722 q 632 638 547 722 q 717 404 717 554 q 713 335 717 371 l 251 335 q 298 194 253 242 q 431 146 343 146 q 639 217 543 146 l 683 75 q 565 12 636 35 q 417 -11 494 -11 q 224 31 307 -11 q 95 152 140 74 q 50 335 50 231 q 96 535 50 447 q 223 673 142 624 q 406 722 304 722 m 414 575 q 261 439 289 575 l 543 439 q 508 540 543 504 q 414 575 474 575 m 190 839 q 242 992 196 943 q 351 1042 289 1042 q 405 1031 381 1042 q 465 1000 429 1021 q 509 976 494 983 q 540 969 524 969 q 604 1038 596 969 l 696 1038 q 643 884 689 933 q 533 835 597 835 q 480 845 504 835 q 422 876 456 856 q 400 888 417 879 q 370 902 383 897 q 346 907 357 907 q 281 839 290 907 l 190 839 z "},"ə":{"ha":765,"x_min":47,"x_max":717,"o":"m 363 722 q 551 679 471 722 q 674 558 632 636 q 717 376 717 481 q 671 174 717 263 q 544 38 625 86 q 361 -11 463 -11 q 132 73 217 -11 q 47 310 47 157 q 51 376 47 342 l 518 376 q 472 516 517 468 q 344 564 428 564 q 129 493 231 564 l 83 635 q 208 699 132 675 q 363 722 285 722 m 356 133 q 508 269 478 133 l 225 269 q 260 169 225 204 q 356 133 294 133 z "},"f":{"ha":535,"x_min":22,"x_max":578,"o":"m 497 861 q 419 833 450 861 q 382 747 388 806 l 378 704 l 557 704 l 544 547 l 365 547 l 321 0 l 111 0 l 156 547 l 22 547 l 35 704 l 168 704 l 172 753 q 257 960 183 886 q 460 1033 331 1033 q 578 1015 531 1033 l 565 851 q 497 861 526 861 z "},"g":{"ha":881,"x_min":51,"x_max":824,"o":"m 824 704 l 771 40 q 658 -226 757 -142 q 378 -311 558 -311 q 78 -246 204 -311 l 124 -89 q 249 -139 186 -124 q 383 -154 313 -154 q 510 -113 465 -154 q 563 17 556 -72 l 569 113 q 479 44 535 68 q 354 19 424 19 q 196 60 264 19 q 90 174 128 100 q 51 344 51 247 q 94 538 51 451 q 213 673 136 624 q 389 722 289 722 q 610 613 539 722 l 617 704 l 824 704 m 422 179 q 547 235 501 179 q 593 383 593 290 q 551 517 593 471 q 431 563 508 563 q 306 506 351 563 q 260 353 260 450 q 303 225 260 271 q 422 179 346 179 z "},"ğ":{"ha":881,"x_min":51,"x_max":824,"o":"m 824 704 l 771 40 q 658 -226 757 -142 q 378 -311 558 -311 q 78 -246 204 -311 l 124 -89 q 249 -139 186 -124 q 383 -154 313 -154 q 510 -113 465 -154 q 563 17 556 -72 l 569 113 q 479 44 535 68 q 354 19 424 19 q 196 60 264 19 q 90 174 128 100 q 51 344 51 247 q 94 538 51 451 q 213 673 136 624 q 389 722 289 722 q 610 613 539 722 l 617 704 l 824 704 m 422 179 q 547 235 501 179 q 593 383 593 290 q 551 517 593 471 q 431 563 508 563 q 306 506 351 563 q 260 353 260 450 q 303 225 260 271 q 422 179 346 179 m 488 825 q 328 877 397 825 q 236 1028 260 929 l 336 1069 q 496 957 388 957 q 661 1069 594 957 l 756 1028 q 652 876 725 928 q 488 825 579 825 z "},"ǧ":{"ha":881,"x_min":51,"x_max":824,"o":"m 824 704 l 771 40 q 658 -226 757 -142 q 378 -311 558 -311 q 78 -246 204 -311 l 124 -89 q 249 -139 186 -124 q 383 -154 313 -154 q 510 -113 465 -154 q 563 17 556 -72 l 569 113 q 479 44 535 68 q 354 19 424 19 q 196 60 264 19 q 90 174 128 100 q 51 344 51 247 q 94 538 51 451 q 213 673 136 624 q 389 722 289 722 q 610 613 539 722 l 617 704 l 824 704 m 422 179 q 547 235 501 179 q 593 383 593 290 q 551 517 593 471 q 431 563 508 563 q 306 506 351 563 q 260 353 260 450 q 303 225 260 271 q 422 179 346 179 m 744 1081 l 540 794 l 414 794 l 254 1081 l 414 1081 l 488 917 l 576 1081 l 744 1081 z "},"ĝ":{"ha":881,"x_min":51,"x_max":824,"o":"m 824 704 l 771 40 q 658 -226 757 -142 q 378 -311 558 -311 q 78 -246 204 -311 l 124 -89 q 249 -139 186 -124 q 383 -154 313 -154 q 510 -113 465 -154 q 563 17 556 -72 l 569 113 q 479 44 535 68 q 354 19 424 19 q 196 60 264 19 q 90 174 128 100 q 51 344 51 247 q 94 538 51 451 q 213 673 136 624 q 389 722 289 722 q 610 613 539 722 l 617 704 l 824 704 m 422 179 q 547 235 501 179 q 593 383 593 290 q 551 517 593 471 q 431 563 508 563 q 306 506 351 563 q 260 353 260 450 q 303 225 260 271 q 422 179 346 179 m 232 794 l 436 1081 l 563 1081 l 722 794 l 563 794 l 490 957 l 400 794 l 232 794 z "},"ģ":{"ha":881,"x_min":51,"x_max":824,"o":"m 824 704 l 771 40 q 658 -226 757 -142 q 378 -311 558 -311 q 78 -246 204 -311 l 124 -89 q 249 -139 186 -124 q 383 -154 313 -154 q 510 -113 465 -154 q 563 17 556 -72 l 569 113 q 479 44 535 68 q 354 19 424 19 q 196 60 264 19 q 90 174 128 100 q 51 344 51 247 q 94 538 51 451 q 213 673 136 624 q 389 722 289 722 q 610 613 539 722 l 617 704 l 824 704 m 422 179 q 547 235 501 179 q 593 383 593 290 q 551 517 593 471 q 431 563 508 563 q 306 506 351 563 q 260 353 260 450 q 303 225 260 271 q 422 179 346 179 m 597 993 l 585 835 l 375 835 l 382 924 q 410 1038 388 989 q 483 1128 433 1088 l 554 1076 q 499 993 513 1038 l 597 993 z "},"ġ":{"ha":881,"x_min":51,"x_max":824,"o":"m 824 704 l 771 40 q 658 -226 757 -142 q 378 -311 558 -311 q 78 -246 204 -311 l 124 -89 q 249 -139 186 -124 q 383 -154 313 -154 q 510 -113 465 -154 q 563 17 556 -72 l 569 113 q 479 44 535 68 q 354 19 424 19 q 196 60 264 19 q 90 174 128 100 q 51 344 51 247 q 94 538 51 451 q 213 673 136 624 q 389 722 289 722 q 610 613 539 722 l 617 704 l 824 704 m 422 179 q 547 235 501 179 q 593 383 593 290 q 551 517 593 471 q 431 563 508 563 q 306 506 351 563 q 260 353 260 450 q 303 225 260 271 q 422 179 346 179 m 608 1035 l 593 838 l 368 838 l 383 1035 l 608 1035 z "},"ḡ":{"ha":881,"x_min":51,"x_max":824,"o":"m 824 704 l 771 40 q 658 -226 757 -142 q 378 -311 558 -311 q 78 -246 204 -311 l 124 -89 q 249 -139 186 -124 q 383 -154 313 -154 q 510 -113 465 -154 q 563 17 556 -72 l 569 113 q 479 44 535 68 q 354 19 424 19 q 196 60 264 19 q 90 174 128 100 q 51 344 51 247 q 94 538 51 451 q 213 673 136 624 q 389 722 289 722 q 610 613 539 722 l 617 704 l 824 704 m 422 179 q 547 235 501 179 q 593 383 593 290 q 551 517 593 471 q 431 563 508 563 q 306 506 351 563 q 260 353 260 450 q 303 225 260 271 q 422 179 346 179 m 274 1000 l 713 1000 l 701 869 l 264 869 l 274 1000 z "},"h":{"ha":851,"x_min":57,"x_max":776,"o":"m 539 722 q 716 657 656 722 q 776 467 776 592 q 775 421 776 436 l 742 0 l 532 0 l 565 411 q 567 436 567 419 q 538 527 567 496 q 454 558 510 558 q 344 515 383 558 q 299 394 306 471 l 267 0 l 57 0 l 138 1022 l 347 1022 l 315 625 q 411 697 353 671 q 539 722 469 722 z "},"ħ":{"ha":851,"x_min":-4,"x_max":776,"o":"m 539 722 q 716 657 656 722 q 776 467 776 592 q 775 421 776 436 l 742 0 l 532 0 l 565 411 q 567 436 567 419 q 538 527 567 496 q 454 558 510 558 q 344 515 383 558 q 299 394 306 471 l 267 0 l 57 0 l 118 767 l -4 767 l 7 913 l 129 913 l 138 1022 l 347 1022 l 339 913 l 606 913 l 594 767 l 326 767 l 315 624 q 410 696 351 669 q 539 722 468 722 z "},"ḫ":{"ha":851,"x_min":57,"x_max":776,"o":"m 539 722 q 716 657 656 722 q 776 467 776 592 q 775 421 776 436 l 742 0 l 532 0 l 565 411 q 567 436 567 419 q 538 527 567 496 q 454 558 510 558 q 344 515 383 558 q 299 394 306 471 l 267 0 l 57 0 l 138 1022 l 347 1022 l 315 625 q 411 697 353 671 q 539 722 469 722 m 383 -318 q 225 -266 293 -318 q 132 -115 157 -214 l 232 -75 q 301 -159 258 -132 q 393 -186 343 -186 q 557 -75 490 -186 l 651 -115 q 549 -267 622 -215 q 383 -318 475 -318 z "},"ĥ":{"ha":851,"x_min":8,"x_max":776,"o":"m 539 722 q 716 657 656 722 q 776 467 776 592 q 775 421 776 436 l 742 0 l 532 0 l 565 411 q 567 436 567 419 q 538 527 567 496 q 454 558 510 558 q 344 515 383 558 q 299 394 306 471 l 267 0 l 57 0 l 138 1022 l 347 1022 l 315 625 q 411 697 353 671 q 539 722 469 722 m 8 1107 l 210 1325 l 329 1325 l 497 1107 l 340 1107 l 267 1226 l 165 1107 l 8 1107 z "},"ḥ":{"ha":851,"x_min":57,"x_max":776,"o":"m 539 722 q 716 657 656 722 q 776 467 776 592 q 775 421 776 436 l 742 0 l 532 0 l 565 411 q 567 436 567 419 q 538 527 567 496 q 454 558 510 558 q 344 515 383 558 q 299 394 306 471 l 267 0 l 57 0 l 138 1022 l 347 1022 l 315 625 q 411 697 353 671 q 539 722 469 722 m 490 -94 l 475 -279 l 281 -279 l 297 -94 l 490 -94 z "},"i":{"ha":381,"x_min":58,"x_max":356,"o":"m 114 704 l 324 704 l 268 0 l 58 0 l 114 704 m 356 1035 l 340 838 l 115 838 l 131 1035 l 356 1035 z "},"ı":{"ha":381,"x_min":58,"x_max":324,"o":"m 114 704 l 324 704 l 268 0 l 58 0 l 114 704 z "},"í":{"ha":381,"x_min":58,"x_max":531,"o":"m 114 704 l 324 704 l 268 0 l 58 0 l 114 704 m 160 794 l 314 1081 l 531 1081 l 289 794 l 160 794 z "},"ĭ":{"ha":381,"x_min":-17,"x_max":503,"o":"m 114 704 l 324 704 l 268 0 l 58 0 l 114 704 m 235 825 q 76 877 144 825 q -17 1028 7 929 l 83 1069 q 243 957 135 957 q 408 1069 342 957 l 503 1028 q 399 876 472 928 q 235 825 326 825 z "},"î":{"ha":381,"x_min":-21,"x_max":469,"o":"m 114 704 l 324 704 l 268 0 l 58 0 l 114 704 m -21 794 l 183 1081 l 310 1081 l 469 794 l 310 794 l 238 957 l 147 794 l -21 794 z "},"ȉ":{"ha":381,"x_min":-1,"x_max":367,"o":"m 114 704 l 324 704 l 268 0 l 58 0 l 114 704 m -1 1081 l 144 1081 l 172 794 l 83 794 l -1 1081 m 193 1081 l 339 1081 l 367 794 l 276 794 l 193 1081 z "},"ï":{"ha":381,"x_min":-3,"x_max":474,"o":"m 114 704 l 324 704 l 268 0 l 58 0 l 114 704 m 206 1028 l 192 844 l -3 844 l 13 1028 l 206 1028 m 474 1028 l 457 844 l 264 844 l 279 1028 l 474 1028 z "},"ḯ":{"ha":381,"x_min":-3,"x_max":551,"o":"m 114 704 l 324 704 l 268 0 l 58 0 l 114 704 m 206 1028 l 192 844 l -3 844 l 13 1028 l 206 1028 m 474 1028 l 457 844 l 264 844 l 279 1028 l 474 1028 m 181 1063 l 335 1349 l 551 1349 l 310 1063 l 181 1063 z "},"ị":{"ha":381,"x_min":43,"x_max":356,"o":"m 114 704 l 324 704 l 268 0 l 58 0 l 114 704 m 356 1035 l 340 838 l 115 838 l 131 1035 l 356 1035 m 253 -94 l 238 -279 l 43 -279 l 60 -94 l 253 -94 z "},"ì":{"ha":381,"x_min":-25,"x_max":324,"o":"m 114 704 l 324 704 l 268 0 l 58 0 l 114 704 m -25 1081 l 168 1081 l 289 794 l 160 794 l -25 1081 z "},"ỉ":{"ha":381,"x_min":58,"x_max":407,"o":"m 114 704 l 324 704 l 268 0 l 58 0 l 114 704 m 279 794 l 174 794 l 176 829 q 193 878 178 858 q 235 917 208 897 q 261 942 253 932 q 269 963 269 951 q 225 992 269 992 q 153 979 190 992 l 131 1063 q 261 1085 192 1085 q 369 1056 331 1085 q 407 986 407 1028 q 388 928 407 950 q 333 882 369 907 q 294 852 307 865 q 281 822 282 839 l 279 794 z "},"ȋ":{"ha":381,"x_min":-31,"x_max":489,"o":"m 114 704 l 324 704 l 268 0 l 58 0 l 114 704 m 238 1063 q 396 1010 328 1063 q 489 861 464 958 l 389 821 q 320 905 363 878 q 228 932 278 932 q 64 821 132 932 l -31 861 q 72 1011 -1 960 q 238 1063 146 1063 z "},"ī":{"ha":381,"x_min":11,"x_max":460,"o":"m 114 704 l 324 704 l 268 0 l 58 0 l 114 704 m 21 1000 l 460 1000 l 449 869 l 11 869 l 21 1000 z "},"į":{"ha":381,"x_min":-11,"x_max":357,"o":"m 357 1040 l 342 842 l 117 842 l 132 1040 l 357 1040 m 254 0 q 158 -28 190 0 q 126 -99 126 -56 q 147 -153 126 -133 q 204 -172 168 -172 q 286 -153 242 -172 l 301 -253 q 168 -283 231 -283 q 38 -240 86 -283 q -11 -128 -11 -197 q 58 10 -11 -40 l 114 704 l 324 704 l 267 0 l 254 0 z "},"ĩ":{"ha":381,"x_min":-17,"x_max":489,"o":"m 114 704 l 324 704 l 268 0 l 58 0 l 114 704 m -17 839 q 35 992 -11 943 q 144 1042 82 1042 q 198 1031 174 1042 q 258 1000 222 1021 q 302 976 288 983 q 333 969 317 969 q 397 1038 389 969 l 489 1038 q 436 884 482 933 q 326 835 390 835 q 273 845 297 835 q 215 876 249 856 q 193 888 210 879 q 163 902 176 897 q 139 907 150 907 q 74 839 83 907 l -17 839 z "},"j":{"ha":381,"x_min":-140,"x_max":356,"o":"m -128 -129 q -61 -139 -89 -139 q 19 -112 -12 -139 q 56 -25 50 -85 l 114 704 l 324 704 l 265 -31 q 181 -237 254 -164 q -22 -311 107 -311 q -140 -293 -96 -311 l -128 -129 m 356 1035 l 340 838 l 115 838 l 131 1035 l 356 1035 z "},"ȷ":{"ha":381,"x_min":-140,"x_max":324,"o":"m -128 -129 q -61 -139 -89 -139 q 19 -112 -12 -139 q 56 -25 50 -85 l 114 704 l 324 704 l 265 -31 q 181 -237 254 -164 q -22 -311 107 -311 q -140 -293 -96 -311 l -128 -129 z "},"ĵ":{"ha":381,"x_min":-140,"x_max":469,"o":"m -128 -129 q -61 -139 -89 -139 q 19 -112 -12 -139 q 56 -25 50 -85 l 114 704 l 324 704 l 265 -31 q 181 -237 254 -164 q -22 -311 107 -311 q -140 -293 -96 -311 l -128 -129 m -21 794 l 183 1081 l 310 1081 l 469 794 l 310 794 l 238 957 l 147 794 l -21 794 z "},"k":{"ha":796,"x_min":58,"x_max":840,"o":"m 515 363 l 803 0 l 549 0 l 293 317 l 268 0 l 58 0 l 139 1022 l 349 1022 l 300 401 l 582 703 l 840 703 l 515 363 z "},"ķ":{"ha":796,"x_min":58,"x_max":840,"o":"m 515 363 l 803 0 l 549 0 l 293 317 l 268 0 l 58 0 l 139 1022 l 349 1022 l 300 401 l 582 703 l 840 703 l 515 363 m 468 -93 l 461 -182 q 433 -296 456 -247 q 360 -386 410 -344 l 289 -333 q 344 -251 332 -294 l 246 -251 l 258 -93 l 468 -93 z "},"ĸ":{"ha":794,"x_min":57,"x_max":839,"o":"m 514 363 l 801 0 l 547 0 l 292 317 l 267 0 l 57 0 l 114 704 l 324 704 l 299 401 l 582 703 l 839 703 l 514 363 z "},"l":{"ha":381,"x_min":57,"x_max":349,"o":"m 139 1022 l 349 1022 l 267 0 l 57 0 l 139 1022 z "},"ĺ":{"ha":381,"x_min":57,"x_max":546,"o":"m 139 1022 l 349 1022 l 267 0 l 57 0 l 139 1022 m 185 1107 l 342 1325 l 546 1325 l 314 1107 l 185 1107 z "},"ľ":{"ha":381,"x_min":57,"x_max":497,"o":"m 139 1022 l 349 1022 l 267 0 l 57 0 l 139 1022 m 365 744 l 386 1022 l 497 1022 l 438 744 l 365 744 z "},"ļ":{"ha":381,"x_min":38,"x_max":349,"o":"m 139 1022 l 349 1022 l 267 0 l 57 0 l 139 1022 m 260 -93 l 253 -182 q 224 -296 247 -247 q 151 -386 201 -344 l 81 -333 q 136 -251 124 -294 l 38 -251 l 50 -93 l 260 -93 z "},"ŀ":{"ha":526,"x_min":57,"x_max":569,"o":"m 139 1022 l 349 1022 l 267 0 l 57 0 l 139 1022 m 569 594 l 554 399 l 329 399 l 344 594 l 569 594 z "},"ḷ":{"ha":381,"x_min":43,"x_max":349,"o":"m 139 1022 l 349 1022 l 267 0 l 57 0 l 139 1022 m 253 -94 l 238 -279 l 43 -279 l 60 -94 l 253 -94 z "},"ǉ":{"ha":761,"x_min":57,"x_max":736,"o":"m 139 1022 l 349 1022 l 267 0 l 57 0 l 139 1022 m 253 -129 q 319 -139 292 -139 q 399 -112 368 -139 q 436 -25 431 -85 l 494 704 l 704 704 l 646 -31 q 561 -237 635 -164 q 358 -311 488 -311 q 240 -293 285 -311 l 253 -129 m 736 1035 l 721 838 l 496 838 l 511 1035 l 736 1035 z "},"ḻ":{"ha":381,"x_min":-75,"x_max":372,"o":"m 139 1022 l 349 1022 l 267 0 l 57 0 l 139 1022 m -67 -126 l 372 -126 l 363 -249 l -75 -249 l -67 -126 z "},"ł":{"ha":497,"x_min":-15,"x_max":538,"o":"m 364 476 l 326 0 l 117 0 l 144 356 l 51 304 l -15 444 l 160 542 l 197 1011 l 407 1011 l 379 663 l 471 714 l 538 571 l 364 476 z "},"m":{"ha":1265,"x_min":57,"x_max":1193,"o":"m 965 722 q 1135 656 1076 722 q 1193 464 1193 590 q 1192 422 1193 436 l 1158 0 l 949 0 l 981 417 q 982 444 982 426 q 885 558 982 558 q 743 385 757 558 l 714 0 l 503 0 l 536 414 l 538 439 q 439 558 538 558 q 299 385 311 558 l 267 0 l 57 0 l 97 503 q 103 638 103 563 q 101 704 103 682 l 300 704 l 303 613 q 398 695 343 668 q 525 722 453 722 q 651 691 599 722 q 728 600 703 660 q 830 691 769 660 q 965 722 890 722 z "},"ṃ":{"ha":1265,"x_min":57,"x_max":1193,"o":"m 965 722 q 1135 656 1076 722 q 1193 464 1193 590 q 1192 422 1193 436 l 1158 0 l 949 0 l 981 417 q 982 444 982 426 q 885 558 982 558 q 743 385 757 558 l 714 0 l 503 0 l 536 414 l 538 439 q 439 558 538 558 q 299 385 311 558 l 267 0 l 57 0 l 97 503 q 103 638 103 563 q 101 704 103 682 l 300 704 l 303 613 q 398 695 343 668 q 525 722 453 722 q 651 691 599 722 q 728 600 703 660 q 830 691 769 660 q 965 722 890 722 m 699 -94 l 683 -279 l 489 -279 l 506 -94 l 699 -94 z "},"n":{"ha":851,"x_min":57,"x_max":776,"o":"m 539 722 q 716 657 656 722 q 776 467 776 592 q 775 421 776 436 l 742 0 l 532 0 l 565 411 q 567 436 567 419 q 538 527 567 496 q 454 558 510 558 q 344 515 383 558 q 299 394 306 471 l 267 0 l 57 0 l 97 503 q 103 638 103 563 q 101 704 103 682 l 300 704 l 303 607 q 399 692 338 661 q 539 722 461 722 z "},"ń":{"ha":851,"x_min":57,"x_max":776,"o":"m 539 722 q 716 657 656 722 q 776 467 776 592 q 775 421 776 436 l 742 0 l 532 0 l 565 411 q 567 436 567 419 q 538 527 567 496 q 454 558 510 558 q 344 515 383 558 q 299 394 306 471 l 267 0 l 57 0 l 97 503 q 103 638 103 563 q 101 704 103 682 l 300 704 l 303 607 q 399 692 338 661 q 539 722 461 722 m 399 794 l 553 1081 l 769 1081 l 528 794 l 399 794 z "},"ŉ":{"ha":851,"x_min":57,"x_max":776,"o":"m 369 1065 l 363 975 q 334 862 357 911 q 261 771 311 813 l 189 825 q 244 906 235 863 l 147 906 l 160 1065 l 369 1065 m 539 722 q 716 657 656 722 q 776 467 776 592 q 775 421 776 436 l 742 0 l 532 0 l 565 411 q 567 436 567 419 q 538 527 567 496 q 454 558 510 558 q 344 515 383 558 q 299 394 306 471 l 267 0 l 57 0 l 97 503 q 103 638 103 563 q 101 704 103 682 l 300 704 l 303 607 q 399 692 338 661 q 539 722 461 722 z "},"ň":{"ha":851,"x_min":57,"x_max":776,"o":"m 539 722 q 716 657 656 722 q 776 467 776 592 q 775 421 776 436 l 742 0 l 532 0 l 565 411 q 567 436 567 419 q 538 527 567 496 q 454 558 510 558 q 344 515 383 558 q 299 394 306 471 l 267 0 l 57 0 l 97 503 q 103 638 103 563 q 101 704 103 682 l 300 704 l 303 607 q 399 692 338 661 q 539 722 461 722 m 731 1081 l 526 794 l 400 794 l 240 1081 l 400 1081 l 474 917 l 563 1081 l 731 1081 z "},"ņ":{"ha":851,"x_min":57,"x_max":776,"o":"m 539 722 q 716 657 656 722 q 776 467 776 592 q 775 421 776 436 l 742 0 l 532 0 l 565 411 q 567 436 567 419 q 538 527 567 496 q 454 558 510 558 q 344 515 383 558 q 299 394 306 471 l 267 0 l 57 0 l 97 503 q 103 638 103 563 q 101 704 103 682 l 300 704 l 303 607 q 399 692 338 661 q 539 722 461 722 m 497 -93 l 490 -182 q 462 -296 485 -247 q 389 -386 439 -344 l 318 -333 q 374 -251 361 -294 l 275 -251 l 288 -93 l 497 -93 z "},"ṅ":{"ha":851,"x_min":57,"x_max":776,"o":"m 539 722 q 716 657 656 722 q 776 467 776 592 q 775 421 776 436 l 742 0 l 532 0 l 565 411 q 567 436 567 419 q 538 527 567 496 q 454 558 510 558 q 344 515 383 558 q 299 394 306 471 l 267 0 l 57 0 l 97 503 q 103 638 103 563 q 101 704 103 682 l 300 704 l 303 607 q 399 692 338 661 q 539 722 461 722 m 594 1035 l 579 838 l 354 838 l 369 1035 l 594 1035 z "},"ṇ":{"ha":851,"x_min":57,"x_max":776,"o":"m 539 722 q 716 657 656 722 q 776 467 776 592 q 775 421 776 436 l 742 0 l 532 0 l 565 411 q 567 436 567 419 q 538 527 567 496 q 454 558 510 558 q 344 515 383 558 q 299 394 306 471 l 267 0 l 57 0 l 97 503 q 103 638 103 563 q 101 704 103 682 l 300 704 l 303 607 q 399 692 338 661 q 539 722 461 722 m 490 -94 l 475 -279 l 281 -279 l 297 -94 l 490 -94 z "},"ŋ":{"ha":851,"x_min":57,"x_max":776,"o":"m 539 722 q 716 657 656 722 q 776 467 776 592 q 775 421 776 436 l 743 11 q 658 -196 732 -122 q 456 -269 585 -269 q 338 -251 385 -269 l 350 -87 q 418 -97 389 -97 q 499 -69 467 -97 q 535 17 531 -42 l 565 411 q 567 436 567 419 q 538 527 567 496 q 454 558 510 558 q 344 515 383 558 q 299 394 306 471 l 267 0 l 57 0 l 97 503 q 103 638 103 563 q 101 704 103 682 l 300 704 l 303 607 q 399 692 338 661 q 539 722 461 722 z "},"ǌ":{"ha":1232,"x_min":57,"x_max":1207,"o":"m 539 722 q 716 657 656 722 q 776 467 776 592 q 775 421 776 436 l 742 0 l 532 0 l 565 411 q 567 436 567 419 q 538 527 567 496 q 454 558 510 558 q 344 515 383 558 q 299 394 306 471 l 267 0 l 57 0 l 97 503 q 103 638 103 563 q 101 704 103 682 l 300 704 l 303 607 q 399 692 338 661 q 539 722 461 722 m 724 -129 q 790 -139 763 -139 q 870 -112 839 -139 q 907 -25 901 -85 l 965 704 l 1175 704 l 1117 -31 q 1032 -237 1106 -164 q 829 -311 958 -311 q 711 -293 756 -311 l 724 -129 m 1207 1035 l 1192 838 l 967 838 l 982 1035 l 1207 1035 z "},"ṉ":{"ha":851,"x_min":57,"x_max":776,"o":"m 539 722 q 716 657 656 722 q 776 467 776 592 q 775 421 776 436 l 742 0 l 532 0 l 565 411 q 567 436 567 419 q 538 527 567 496 q 454 558 510 558 q 344 515 383 558 q 299 394 306 471 l 267 0 l 57 0 l 97 503 q 103 638 103 563 q 101 704 103 682 l 300 704 l 303 607 q 399 692 338 661 q 539 722 461 722 m 171 -126 l 610 -126 l 600 -249 l 163 -249 l 171 -126 z "},"ñ":{"ha":851,"x_min":57,"x_max":776,"o":"m 539 722 q 716 657 656 722 q 776 467 776 592 q 775 421 776 436 l 742 0 l 532 0 l 565 411 q 567 436 567 419 q 538 527 567 496 q 454 558 510 558 q 344 515 383 558 q 299 394 306 471 l 267 0 l 57 0 l 97 503 q 103 638 103 563 q 101 704 103 682 l 300 704 l 303 607 q 399 692 338 661 q 539 722 461 722 m 222 839 q 274 992 228 943 q 383 1042 321 1042 q 437 1031 413 1042 q 497 1000 461 1021 q 541 976 526 983 q 572 969 556 969 q 636 1038 628 969 l 728 1038 q 675 884 721 933 q 565 835 629 835 q 512 845 536 835 q 454 876 488 856 q 432 888 449 879 q 402 902 415 897 q 378 907 389 907 q 313 839 322 907 l 222 839 z "},"o":{"ha":839,"x_min":50,"x_max":790,"o":"m 417 -11 q 222 32 304 -11 q 94 153 139 75 q 50 336 50 232 q 97 542 50 454 q 228 676 143 629 q 425 722 313 722 q 619 679 536 722 q 746 558 701 636 q 790 375 790 479 q 744 169 790 256 q 613 35 697 82 q 417 -11 529 -11 m 415 147 q 541 212 500 147 q 582 381 582 276 q 543 517 582 471 q 428 563 504 563 q 300 499 342 563 q 258 332 258 435 q 415 147 258 147 z "},"ó":{"ha":839,"x_min":50,"x_max":790,"o":"m 417 -11 q 222 32 304 -11 q 94 153 139 75 q 50 336 50 232 q 97 542 50 454 q 228 676 143 629 q 425 722 313 722 q 619 679 536 722 q 746 558 701 636 q 790 375 790 479 q 744 169 790 256 q 613 35 697 82 q 417 -11 529 -11 m 415 147 q 541 212 500 147 q 582 381 582 276 q 543 517 582 471 q 428 563 504 563 q 300 499 342 563 q 258 332 258 435 q 415 147 258 147 m 390 794 l 544 1081 l 761 1081 l 519 794 l 390 794 z "},"ŏ":{"ha":839,"x_min":50,"x_max":790,"o":"m 417 -11 q 222 32 304 -11 q 94 153 139 75 q 50 336 50 232 q 97 542 50 454 q 228 676 143 629 q 425 722 313 722 q 619 679 536 722 q 746 558 701 636 q 790 375 790 479 q 744 169 790 256 q 613 35 697 82 q 417 -11 529 -11 m 415 147 q 541 212 500 147 q 582 381 582 276 q 543 517 582 471 q 428 563 504 563 q 300 499 342 563 q 258 332 258 435 q 415 147 258 147 m 465 825 q 306 877 375 825 q 214 1028 238 929 l 314 1069 q 474 957 365 957 q 639 1069 572 957 l 733 1028 q 630 876 703 928 q 465 825 557 825 z "},"ô":{"ha":839,"x_min":50,"x_max":790,"o":"m 417 -11 q 222 32 304 -11 q 94 153 139 75 q 50 336 50 232 q 97 542 50 454 q 228 676 143 629 q 425 722 313 722 q 619 679 536 722 q 746 558 701 636 q 790 375 790 479 q 744 169 790 256 q 613 35 697 82 q 417 -11 529 -11 m 415 147 q 541 212 500 147 q 582 381 582 276 q 543 517 582 471 q 428 563 504 563 q 300 499 342 563 q 258 332 258 435 q 415 147 258 147 m 210 794 l 414 1081 l 540 1081 l 700 794 l 540 794 l 468 957 l 378 794 l 210 794 z "},"ố":{"ha":839,"x_min":50,"x_max":894,"o":"m 417 -11 q 222 32 304 -11 q 94 153 139 75 q 50 336 50 232 q 97 542 50 454 q 228 676 143 629 q 425 722 313 722 q 619 679 536 722 q 746 558 701 636 q 790 375 790 479 q 744 169 790 256 q 613 35 697 82 q 417 -11 529 -11 m 415 147 q 541 212 500 147 q 582 381 582 276 q 543 517 582 471 q 428 563 504 563 q 300 499 342 563 q 258 332 258 435 q 415 147 258 147 m 599 943 l 710 1140 l 894 1140 l 701 943 l 599 943 m 210 794 l 410 988 l 531 988 l 700 794 l 546 794 l 467 893 l 367 794 l 210 794 z "},"ộ":{"ha":839,"x_min":50,"x_max":790,"o":"m 417 -11 q 222 32 304 -11 q 94 153 139 75 q 50 336 50 232 q 97 542 50 454 q 228 676 143 629 q 425 722 313 722 q 619 679 536 722 q 746 558 701 636 q 790 375 790 479 q 744 169 790 256 q 613 35 697 82 q 417 -11 529 -11 m 415 147 q 541 212 500 147 q 582 381 582 276 q 543 517 582 471 q 428 563 504 563 q 300 499 342 563 q 258 332 258 435 q 415 147 258 147 m 483 -94 l 468 -279 l 274 -279 l 290 -94 l 483 -94 m 210 794 l 414 1081 l 540 1081 l 700 794 l 540 794 l 468 957 l 378 794 l 210 794 z "},"ồ":{"ha":839,"x_min":50,"x_max":790,"o":"m 417 -11 q 222 32 304 -11 q 94 153 139 75 q 50 336 50 232 q 97 542 50 454 q 228 676 143 629 q 425 722 313 722 q 619 679 536 722 q 746 558 701 636 q 790 375 790 479 q 744 169 790 256 q 613 35 697 82 q 417 -11 529 -11 m 415 147 q 541 212 500 147 q 582 381 582 276 q 543 517 582 471 q 428 563 504 563 q 300 499 342 563 q 258 332 258 435 q 415 147 258 147 m 507 1140 l 671 1140 l 760 943 l 657 943 l 507 1140 m 410 988 l 531 988 l 700 794 l 546 794 l 467 893 l 367 794 l 210 794 l 410 988 z "},"ổ":{"ha":839,"x_min":50,"x_max":826,"o":"m 417 -11 q 222 32 304 -11 q 94 153 139 75 q 50 336 50 232 q 97 542 50 454 q 228 676 143 629 q 425 722 313 722 q 619 679 536 722 q 746 558 701 636 q 790 375 790 479 q 744 169 790 256 q 613 35 697 82 q 417 -11 529 -11 m 415 147 q 541 212 500 147 q 582 381 582 276 q 543 517 582 471 q 428 563 504 563 q 300 499 342 563 q 258 332 258 435 q 415 147 258 147 m 600 972 q 622 1013 603 999 q 669 1039 640 1028 q 681 1044 672 1040 q 692 1051 689 1047 q 696 1057 696 1054 q 665 1069 696 1069 q 569 1054 628 1069 l 549 1126 q 685 1149 613 1149 q 788 1127 750 1149 q 826 1071 826 1106 q 808 1026 826 1042 q 754 997 789 1011 q 717 978 729 986 q 703 956 704 969 l 701 944 l 597 944 l 600 972 m 410 988 l 531 988 l 700 794 l 546 794 l 467 893 l 367 794 l 210 794 l 410 988 z "},"ỗ":{"ha":839,"x_min":50,"x_max":790,"o":"m 417 -11 q 222 32 304 -11 q 94 153 139 75 q 50 336 50 232 q 97 542 50 454 q 228 676 143 629 q 425 722 313 722 q 619 679 536 722 q 746 558 701 636 q 790 375 790 479 q 744 169 790 256 q 613 35 697 82 q 417 -11 529 -11 m 415 147 q 541 212 500 147 q 582 381 582 276 q 543 517 582 471 q 428 563 504 563 q 300 499 342 563 q 258 332 258 435 q 415 147 258 147 m 228 1013 q 278 1119 231 1079 q 386 1160 325 1160 q 497 1135 431 1160 q 544 1119 525 1124 q 582 1114 563 1114 q 620 1123 606 1114 q 638 1156 635 1132 l 728 1156 q 679 1050 726 1090 q 571 1010 632 1010 q 460 1035 526 1010 q 417 1048 439 1042 q 375 1054 394 1054 q 318 1013 325 1054 l 228 1013 m 410 988 l 531 988 l 700 794 l 546 794 l 467 893 l 367 794 l 210 794 l 410 988 z "},"ȍ":{"ha":839,"x_min":50,"x_max":790,"o":"m 417 -11 q 222 32 304 -11 q 94 153 139 75 q 50 336 50 232 q 97 542 50 454 q 228 676 143 629 q 425 722 313 722 q 619 679 536 722 q 746 558 701 636 q 790 375 790 479 q 744 169 790 256 q 613 35 697 82 q 417 -11 529 -11 m 415 147 q 541 212 500 147 q 582 381 582 276 q 543 517 582 471 q 428 563 504 563 q 300 499 342 563 q 258 332 258 435 q 415 147 258 147 m 229 1081 l 375 1081 l 403 794 l 314 794 l 229 1081 m 424 1081 l 569 1081 l 597 794 l 507 794 l 424 1081 z "},"ö":{"ha":839,"x_min":50,"x_max":790,"o":"m 417 -11 q 222 32 304 -11 q 94 153 139 75 q 50 336 50 232 q 97 542 50 454 q 228 676 143 629 q 425 722 313 722 q 619 679 536 722 q 746 558 701 636 q 790 375 790 479 q 744 169 790 256 q 613 35 697 82 q 417 -11 529 -11 m 415 147 q 541 212 500 147 q 582 381 582 276 q 543 517 582 471 q 428 563 504 563 q 300 499 342 563 q 258 332 258 435 q 415 147 258 147 m 436 1028 l 422 844 l 228 844 l 243 1028 l 436 1028 m 704 1028 l 688 844 l 494 844 l 510 1028 l 704 1028 z "},"ȫ":{"ha":839,"x_min":50,"x_max":790,"o":"m 417 -11 q 222 32 304 -11 q 94 153 139 75 q 50 336 50 232 q 97 542 50 454 q 228 676 143 629 q 425 722 313 722 q 619 679 536 722 q 746 558 701 636 q 790 375 790 479 q 744 169 790 256 q 613 35 697 82 q 417 -11 529 -11 m 415 147 q 541 212 500 147 q 582 381 582 276 q 543 517 582 471 q 428 563 504 563 q 300 499 342 563 q 258 332 258 435 q 415 147 258 147 m 436 1028 l 422 844 l 228 844 l 243 1028 l 436 1028 m 704 1028 l 688 844 l 494 844 l 510 1028 l 704 1028 m 272 1268 l 711 1268 l 700 1138 l 263 1138 l 272 1268 z "},"ȱ":{"ha":839,"x_min":50,"x_max":790,"o":"m 417 -11 q 222 32 304 -11 q 94 153 139 75 q 50 336 50 232 q 97 542 50 454 q 228 676 143 629 q 425 722 313 722 q 619 679 536 722 q 746 558 701 636 q 790 375 790 479 q 744 169 790 256 q 613 35 697 82 q 417 -11 529 -11 m 415 147 q 541 212 500 147 q 582 381 582 276 q 543 517 582 471 q 428 563 504 563 q 300 499 342 563 q 258 332 258 435 q 415 147 258 147 m 586 1035 l 571 838 l 346 838 l 361 1035 l 586 1035 m 272 1268 l 711 1268 l 700 1138 l 263 1138 l 272 1268 z "},"ọ":{"ha":839,"x_min":50,"x_max":790,"o":"m 417 -11 q 222 32 304 -11 q 94 153 139 75 q 50 336 50 232 q 97 542 50 454 q 228 676 143 629 q 425 722 313 722 q 619 679 536 722 q 746 558 701 636 q 790 375 790 479 q 744 169 790 256 q 613 35 697 82 q 417 -11 529 -11 m 415 147 q 541 212 500 147 q 582 381 582 276 q 543 517 582 471 q 428 563 504 563 q 300 499 342 563 q 258 332 258 435 q 415 147 258 147 m 483 -94 l 468 -279 l 274 -279 l 290 -94 l 483 -94 z "},"ò":{"ha":839,"x_min":50,"x_max":790,"o":"m 417 -11 q 222 32 304 -11 q 94 153 139 75 q 50 336 50 232 q 97 542 50 454 q 228 676 143 629 q 425 722 313 722 q 619 679 536 722 q 746 558 701 636 q 790 375 790 479 q 744 169 790 256 q 613 35 697 82 q 417 -11 529 -11 m 415 147 q 541 212 500 147 q 582 381 582 276 q 543 517 582 471 q 428 563 504 563 q 300 499 342 563 q 258 332 258 435 q 415 147 258 147 m 206 1081 l 399 1081 l 519 794 l 390 794 l 206 1081 z "},"ỏ":{"ha":839,"x_min":50,"x_max":790,"o":"m 417 -11 q 222 32 304 -11 q 94 153 139 75 q 50 336 50 232 q 97 542 50 454 q 228 676 143 629 q 425 722 313 722 q 619 679 536 722 q 746 558 701 636 q 790 375 790 479 q 744 169 790 256 q 613 35 697 82 q 417 -11 529 -11 m 415 147 q 541 212 500 147 q 582 381 582 276 q 543 517 582 471 q 428 563 504 563 q 300 499 342 563 q 258 332 258 435 q 415 147 258 147 m 510 794 l 404 794 l 407 829 q 424 878 408 858 q 465 917 439 897 q 492 942 483 932 q 500 963 500 951 q 456 992 500 992 q 383 979 421 992 l 361 1063 q 492 1085 422 1085 q 599 1056 561 1085 q 638 986 638 1028 q 619 928 638 950 q 564 882 600 907 q 525 852 538 865 q 511 822 513 839 l 510 794 z "},"ơ":{"ha":839,"x_min":50,"x_max":864,"o":"m 864 883 l 860 831 q 813 692 854 750 q 704 615 772 635 q 768 507 746 569 q 790 375 790 444 q 744 169 790 256 q 613 35 697 82 q 417 -11 529 -11 q 222 32 304 -11 q 94 153 139 75 q 50 336 50 232 q 97 542 50 454 q 228 676 143 629 q 425 722 313 722 q 508 715 439 722 q 564 710 553 710 q 645 741 614 710 q 683 856 676 772 l 685 883 l 864 883 m 415 147 q 541 212 500 147 q 582 381 582 276 q 543 517 582 471 q 428 563 504 563 q 300 499 342 563 q 258 332 258 435 q 415 147 258 147 z "},"ớ":{"ha":839,"x_min":50,"x_max":864,"o":"m 864 883 l 860 831 q 813 692 854 750 q 704 615 772 635 q 768 507 746 569 q 790 375 790 444 q 744 169 790 256 q 613 35 697 82 q 417 -11 529 -11 q 222 32 304 -11 q 94 153 139 75 q 50 336 50 232 q 97 542 50 454 q 228 676 143 629 q 425 722 313 722 q 508 715 439 722 q 564 710 553 710 q 645 741 614 710 q 683 856 676 772 l 685 883 l 864 883 m 415 147 q 541 212 500 147 q 582 381 582 276 q 543 517 582 471 q 428 563 504 563 q 300 499 342 563 q 258 332 258 435 q 415 147 258 147 m 390 794 l 544 1081 l 761 1081 l 519 794 l 390 794 z "},"ợ":{"ha":839,"x_min":50,"x_max":864,"o":"m 864 883 l 860 831 q 813 692 854 750 q 704 615 772 635 q 768 507 746 569 q 790 375 790 444 q 744 169 790 256 q 613 35 697 82 q 417 -11 529 -11 q 222 32 304 -11 q 94 153 139 75 q 50 336 50 232 q 97 542 50 454 q 228 676 143 629 q 425 722 313 722 q 508 715 439 722 q 564 710 553 710 q 645 741 614 710 q 683 856 676 772 l 685 883 l 864 883 m 415 147 q 541 212 500 147 q 582 381 582 276 q 543 517 582 471 q 428 563 504 563 q 300 499 342 563 q 258 332 258 435 q 415 147 258 147 m 483 -94 l 468 -279 l 274 -279 l 290 -94 l 483 -94 z "},"ờ":{"ha":839,"x_min":50,"x_max":864,"o":"m 864 883 l 860 831 q 813 692 854 750 q 704 615 772 635 q 768 507 746 569 q 790 375 790 444 q 744 169 790 256 q 613 35 697 82 q 417 -11 529 -11 q 222 32 304 -11 q 94 153 139 75 q 50 336 50 232 q 97 542 50 454 q 228 676 143 629 q 425 722 313 722 q 508 715 439 722 q 564 710 553 710 q 645 741 614 710 q 683 856 676 772 l 685 883 l 864 883 m 415 147 q 541 212 500 147 q 582 381 582 276 q 543 517 582 471 q 428 563 504 563 q 300 499 342 563 q 258 332 258 435 q 415 147 258 147 m 206 1081 l 399 1081 l 519 794 l 390 794 l 206 1081 z "},"ở":{"ha":839,"x_min":50,"x_max":864,"o":"m 864 883 l 860 831 q 813 692 854 750 q 704 615 772 635 q 768 507 746 569 q 790 375 790 444 q 744 169 790 256 q 613 35 697 82 q 417 -11 529 -11 q 222 32 304 -11 q 94 153 139 75 q 50 336 50 232 q 97 542 50 454 q 228 676 143 629 q 425 722 313 722 q 508 715 439 722 q 564 710 553 710 q 645 741 614 710 q 683 856 676 772 l 685 883 l 864 883 m 415 147 q 541 212 500 147 q 582 381 582 276 q 543 517 582 471 q 428 563 504 563 q 300 499 342 563 q 258 332 258 435 q 415 147 258 147 m 510 794 l 404 794 l 407 829 q 424 878 408 858 q 465 917 439 897 q 492 942 483 932 q 500 963 500 951 q 456 992 500 992 q 383 979 421 992 l 361 1063 q 492 1085 422 1085 q 599 1056 561 1085 q 638 986 638 1028 q 619 928 638 950 q 564 882 600 907 q 525 852 538 865 q 511 822 513 839 l 510 794 z "},"ỡ":{"ha":839,"x_min":50,"x_max":864,"o":"m 864 883 l 860 831 q 813 692 854 750 q 704 615 772 635 q 768 507 746 569 q 790 375 790 444 q 744 169 790 256 q 613 35 697 82 q 417 -11 529 -11 q 222 32 304 -11 q 94 153 139 75 q 50 336 50 232 q 97 542 50 454 q 228 676 143 629 q 425 722 313 722 q 508 715 439 722 q 564 710 553 710 q 645 741 614 710 q 683 856 676 772 l 685 883 l 864 883 m 415 147 q 541 212 500 147 q 582 381 582 276 q 543 517 582 471 q 428 563 504 563 q 300 499 342 563 q 258 332 258 435 q 415 147 258 147 m 214 839 q 266 992 219 943 q 375 1042 313 1042 q 428 1031 404 1042 q 489 1000 453 1021 q 533 976 518 983 q 564 969 547 969 q 628 1038 619 969 l 719 1038 q 667 884 713 933 q 557 835 621 835 q 503 845 528 835 q 446 876 479 856 q 424 888 440 879 q 394 902 407 897 q 369 907 381 907 q 304 839 314 907 l 214 839 z "},"ő":{"ha":839,"x_min":50,"x_max":790,"o":"m 417 -11 q 222 32 304 -11 q 94 153 139 75 q 50 336 50 232 q 97 542 50 454 q 228 676 143 629 q 425 722 313 722 q 619 679 536 722 q 746 558 701 636 q 790 375 790 479 q 744 169 790 256 q 613 35 697 82 q 417 -11 529 -11 m 415 147 q 541 212 500 147 q 582 381 582 276 q 543 517 582 471 q 428 563 504 563 q 300 499 342 563 q 258 332 258 435 q 415 147 258 147 m 314 794 l 381 1081 l 538 1081 l 403 794 l 314 794 m 507 794 l 575 1081 l 732 1081 l 597 794 l 507 794 z "},"ȏ":{"ha":839,"x_min":50,"x_max":790,"o":"m 417 -11 q 222 32 304 -11 q 94 153 139 75 q 50 336 50 232 q 97 542 50 454 q 228 676 143 629 q 425 722 313 722 q 619 679 536 722 q 746 558 701 636 q 790 375 790 479 q 744 169 790 256 q 613 35 697 82 q 417 -11 529 -11 m 415 147 q 541 212 500 147 q 582 381 582 276 q 543 517 582 471 q 428 563 504 563 q 300 499 342 563 q 258 332 258 435 q 415 147 258 147 m 468 1063 q 626 1010 558 1063 q 719 861 694 958 l 619 821 q 551 905 593 878 q 458 932 508 932 q 294 821 363 932 l 200 861 q 303 1011 229 960 q 468 1063 376 1063 z "},"ō":{"ha":839,"x_min":50,"x_max":790,"o":"m 417 -11 q 222 32 304 -11 q 94 153 139 75 q 50 336 50 232 q 97 542 50 454 q 228 676 143 629 q 425 722 313 722 q 619 679 536 722 q 746 558 701 636 q 790 375 790 479 q 744 169 790 256 q 613 35 697 82 q 417 -11 529 -11 m 415 147 q 541 212 500 147 q 582 381 582 276 q 543 517 582 471 q 428 563 504 563 q 300 499 342 563 q 258 332 258 435 q 415 147 258 147 m 251 1000 l 690 1000 l 679 869 l 242 869 l 251 1000 z "},"ṓ":{"ha":839,"x_min":50,"x_max":790,"o":"m 417 -11 q 222 32 304 -11 q 94 153 139 75 q 50 336 50 232 q 97 542 50 454 q 228 676 143 629 q 425 722 313 722 q 619 679 536 722 q 746 558 701 636 q 790 375 790 479 q 744 169 790 256 q 613 35 697 82 q 417 -11 529 -11 m 415 147 q 541 212 500 147 q 582 381 582 276 q 543 517 582 471 q 428 563 504 563 q 300 499 342 563 q 258 332 258 435 q 415 147 258 147 m 251 1000 l 690 1000 l 679 869 l 242 869 l 251 1000 m 411 1063 l 565 1349 l 782 1349 l 540 1063 l 411 1063 z "},"ṑ":{"ha":839,"x_min":50,"x_max":790,"o":"m 417 -11 q 222 32 304 -11 q 94 153 139 75 q 50 336 50 232 q 97 542 50 454 q 228 676 143 629 q 425 722 313 722 q 619 679 536 722 q 746 558 701 636 q 790 375 790 479 q 744 169 790 256 q 613 35 697 82 q 417 -11 529 -11 m 415 147 q 541 212 500 147 q 582 381 582 276 q 543 517 582 471 q 428 563 504 563 q 300 499 342 563 q 258 332 258 435 q 415 147 258 147 m 251 1000 l 690 1000 l 679 869 l 242 869 l 251 1000 m 226 1349 l 419 1349 l 540 1063 l 411 1063 l 226 1349 z "},"ǫ":{"ha":839,"x_min":50,"x_max":790,"o":"m 529 3 q 426 -99 426 -24 q 447 -153 426 -133 q 506 -172 468 -172 q 588 -153 543 -172 l 603 -253 q 469 -283 531 -283 q 338 -241 388 -283 q 289 -131 289 -199 q 349 -7 289 -53 q 130 103 210 11 q 50 336 50 196 q 97 542 50 454 q 228 676 143 629 q 425 722 313 722 q 619 679 536 722 q 746 558 701 636 q 790 375 790 479 q 720 126 790 217 q 529 3 650 36 m 415 147 q 541 212 500 147 q 582 381 582 276 q 543 517 582 471 q 428 563 504 563 q 300 499 342 563 q 258 332 258 435 q 415 147 258 147 z "},"ø":{"ha":839,"x_min":50,"x_max":790,"o":"m 676 640 q 761 526 732 594 q 790 375 790 458 q 744 169 790 256 q 613 35 697 82 q 417 -11 529 -11 q 263 14 332 -11 l 194 -89 l 99 -31 l 165 69 q 80 183 110 115 q 50 336 50 251 q 97 542 50 454 q 228 676 143 629 q 425 722 313 722 q 581 696 508 722 l 647 797 l 742 739 l 676 640 m 254 332 q 271 229 254 271 l 488 556 q 428 564 461 564 q 297 500 339 564 q 254 332 254 436 m 415 146 q 545 210 503 146 q 588 381 588 275 q 571 481 588 439 l 354 154 q 415 146 381 146 z "},"ǿ":{"ha":839,"x_min":50,"x_max":790,"o":"m 676 640 q 761 526 732 594 q 790 375 790 458 q 744 169 790 256 q 613 35 697 82 q 417 -11 529 -11 q 263 14 332 -11 l 194 -89 l 99 -31 l 165 69 q 80 183 110 115 q 50 336 50 251 q 97 542 50 454 q 228 676 143 629 q 425 722 313 722 q 581 696 508 722 l 647 797 l 742 739 l 676 640 m 254 332 q 271 229 254 271 l 488 556 q 428 564 461 564 q 297 500 339 564 q 254 332 254 436 m 415 146 q 545 210 503 146 q 588 381 588 275 q 571 481 588 439 l 354 154 q 415 146 381 146 m 390 794 l 544 1081 l 761 1081 l 519 794 l 390 794 z "},"õ":{"ha":839,"x_min":50,"x_max":790,"o":"m 417 -11 q 222 32 304 -11 q 94 153 139 75 q 50 336 50 232 q 97 542 50 454 q 228 676 143 629 q 425 722 313 722 q 619 679 536 722 q 746 558 701 636 q 790 375 790 479 q 744 169 790 256 q 613 35 697 82 q 417 -11 529 -11 m 415 147 q 541 212 500 147 q 582 381 582 276 q 543 517 582 471 q 428 563 504 563 q 300 499 342 563 q 258 332 258 435 q 415 147 258 147 m 214 839 q 266 992 219 943 q 375 1042 313 1042 q 428 1031 404 1042 q 489 1000 453 1021 q 533 976 518 983 q 564 969 547 969 q 628 1038 619 969 l 719 1038 q 667 884 713 933 q 557 835 621 835 q 503 845 528 835 q 446 876 479 856 q 424 888 440 879 q 394 902 407 897 q 369 907 381 907 q 304 839 314 907 l 214 839 z "},"ṍ":{"ha":839,"x_min":50,"x_max":790,"o":"m 417 -11 q 222 32 304 -11 q 94 153 139 75 q 50 336 50 232 q 97 542 50 454 q 228 676 143 629 q 425 722 313 722 q 619 679 536 722 q 746 558 701 636 q 790 375 790 479 q 744 169 790 256 q 613 35 697 82 q 417 -11 529 -11 m 415 147 q 541 212 500 147 q 582 381 582 276 q 543 517 582 471 q 428 563 504 563 q 300 499 342 563 q 258 332 258 435 q 415 147 258 147 m 214 839 q 266 992 219 943 q 375 1042 313 1042 q 428 1031 404 1042 q 489 1000 453 1021 q 533 976 518 983 q 564 969 547 969 q 628 1038 619 969 l 719 1038 q 667 884 713 933 q 557 835 621 835 q 503 845 528 835 q 446 876 479 856 q 424 888 440 879 q 394 902 407 897 q 369 907 381 907 q 304 839 314 907 l 214 839 m 411 1063 l 565 1349 l 782 1349 l 540 1063 l 411 1063 z "},"ṏ":{"ha":839,"x_min":50,"x_max":790,"o":"m 417 -11 q 222 32 304 -11 q 94 153 139 75 q 50 336 50 232 q 97 542 50 454 q 228 676 143 629 q 425 722 313 722 q 619 679 536 722 q 746 558 701 636 q 790 375 790 479 q 744 169 790 256 q 613 35 697 82 q 417 -11 529 -11 m 415 147 q 541 212 500 147 q 582 381 582 276 q 543 517 582 471 q 428 563 504 563 q 300 499 342 563 q 258 332 258 435 q 415 147 258 147 m 214 839 q 266 992 219 943 q 375 1042 313 1042 q 428 1031 404 1042 q 489 1000 453 1021 q 533 976 518 983 q 564 969 547 969 q 628 1038 619 969 l 719 1038 q 667 884 713 933 q 557 835 621 835 q 503 845 528 835 q 446 876 479 856 q 424 888 440 879 q 394 902 407 897 q 369 907 381 907 q 304 839 314 907 l 214 839 m 457 1296 l 443 1113 l 249 1113 l 264 1296 l 457 1296 m 725 1296 l 708 1113 l 515 1113 l 531 1296 l 725 1296 z "},"ȭ":{"ha":839,"x_min":50,"x_max":790,"o":"m 417 -11 q 222 32 304 -11 q 94 153 139 75 q 50 336 50 232 q 97 542 50 454 q 228 676 143 629 q 425 722 313 722 q 619 679 536 722 q 746 558 701 636 q 790 375 790 479 q 744 169 790 256 q 613 35 697 82 q 417 -11 529 -11 m 415 147 q 541 212 500 147 q 582 381 582 276 q 543 517 582 471 q 428 563 504 563 q 300 499 342 563 q 258 332 258 435 q 415 147 258 147 m 214 839 q 266 992 219 943 q 375 1042 313 1042 q 428 1031 404 1042 q 489 1000 453 1021 q 533 976 518 983 q 564 969 547 969 q 628 1038 619 969 l 719 1038 q 667 884 713 933 q 557 835 621 835 q 503 845 528 835 q 446 876 479 856 q 424 888 440 879 q 394 902 407 897 q 369 907 381 907 q 304 839 314 907 l 214 839 m 272 1268 l 711 1268 l 700 1138 l 263 1138 l 272 1268 z "},"œ":{"ha":1290,"x_min":50,"x_max":1242,"o":"m 946 722 q 1160 635 1079 722 q 1242 388 1242 549 q 1238 313 1242 353 l 786 313 q 837 188 792 231 q 963 146 882 146 q 1164 217 1068 146 l 1210 75 q 1093 12 1164 35 q 947 -11 1022 -11 q 791 21 860 -11 q 679 110 722 53 q 567 20 636 51 q 406 -11 497 -11 q 218 32 299 -11 q 94 153 138 75 q 50 336 50 232 q 97 541 50 454 q 226 675 143 628 q 418 722 310 722 q 582 692 513 722 q 693 606 651 663 q 801 692 736 661 q 946 722 865 722 m 949 575 q 790 418 817 575 l 1067 418 q 1035 536 1067 497 q 949 575 1003 575 m 415 147 q 538 212 497 147 q 578 381 578 276 q 540 517 578 471 q 428 563 501 563 q 300 499 342 563 q 258 332 258 435 q 415 147 258 147 z "},"p":{"ha":876,"x_min":33,"x_max":828,"o":"m 528 722 q 685 681 617 722 q 790 563 753 640 q 828 383 828 486 q 785 178 828 268 q 667 39 743 89 q 492 -11 590 -11 q 364 17 419 -11 q 275 99 308 46 l 243 -300 l 33 -300 l 97 503 q 103 638 103 563 q 101 704 103 682 l 300 704 l 303 603 q 395 690 336 658 q 528 722 454 722 m 450 147 q 574 206 529 147 q 618 369 618 265 q 576 513 618 463 q 458 563 535 563 q 337 502 382 563 q 292 342 292 442 q 333 197 292 246 q 450 147 374 147 z "},"þ":{"ha":876,"x_min":35,"x_max":829,"o":"m 529 722 q 686 681 618 722 q 792 563 754 640 q 829 383 829 486 q 787 178 829 268 q 668 39 744 89 q 493 -11 592 -11 q 276 99 349 -11 l 243 -300 l 35 -300 l 139 1011 l 347 1011 l 315 621 q 406 695 350 668 q 529 722 463 722 m 451 147 q 575 206 531 147 q 619 369 619 265 q 578 513 619 463 q 460 563 536 563 q 338 502 383 563 q 293 342 293 442 q 334 197 293 246 q 451 147 375 147 z "},"q":{"ha":875,"x_min":50,"x_max":831,"o":"m 831 704 q 803 503 813 617 l 739 -300 l 529 -300 l 560 86 q 471 15 525 40 q 350 -11 417 -11 q 193 30 261 -11 q 88 147 125 71 q 50 328 50 224 q 92 533 50 443 q 210 672 135 622 q 385 722 286 722 q 613 597 538 722 l 632 704 l 831 704 m 419 147 q 540 207 494 147 q 585 367 585 267 q 544 513 585 464 q 428 563 504 563 q 303 502 349 563 q 258 339 258 442 q 300 197 258 246 q 419 147 342 147 z "},"r":{"ha":569,"x_min":57,"x_max":597,"o":"m 522 721 q 597 707 567 721 l 583 517 q 481 539 533 539 q 350 496 397 539 q 297 368 303 453 l 267 0 l 57 0 l 97 503 q 103 649 103 600 q 101 704 103 686 l 300 704 l 303 600 q 393 689 333 657 q 522 721 453 721 z "},"ŕ":{"ha":569,"x_min":57,"x_max":674,"o":"m 522 721 q 597 707 567 721 l 583 517 q 481 539 533 539 q 350 496 397 539 q 297 368 303 453 l 267 0 l 57 0 l 97 503 q 103 649 103 600 q 101 704 103 686 l 300 704 l 303 600 q 393 689 333 657 q 522 721 453 721 m 303 794 l 457 1081 l 674 1081 l 432 794 l 303 794 z "},"ř":{"ha":569,"x_min":57,"x_max":635,"o":"m 522 721 q 597 707 567 721 l 583 517 q 481 539 533 539 q 350 496 397 539 q 297 368 303 453 l 267 0 l 57 0 l 97 503 q 103 649 103 600 q 101 704 103 686 l 300 704 l 303 600 q 393 689 333 657 q 522 721 453 721 m 635 1081 l 431 794 l 304 794 l 144 1081 l 304 1081 l 378 917 l 467 1081 l 635 1081 z "},"ŗ":{"ha":569,"x_min":38,"x_max":597,"o":"m 522 721 q 597 707 567 721 l 583 517 q 481 539 533 539 q 350 496 397 539 q 297 368 303 453 l 267 0 l 57 0 l 97 503 q 103 649 103 600 q 101 704 103 686 l 300 704 l 303 600 q 393 689 333 657 q 522 721 453 721 m 260 -93 l 253 -182 q 224 -296 247 -247 q 151 -386 201 -344 l 81 -333 q 136 -251 124 -294 l 38 -251 l 50 -93 l 260 -93 z "},"ȑ":{"ha":569,"x_min":57,"x_max":597,"o":"m 522 721 q 597 707 567 721 l 583 517 q 481 539 533 539 q 350 496 397 539 q 297 368 303 453 l 267 0 l 57 0 l 97 503 q 103 649 103 600 q 101 704 103 686 l 300 704 l 303 600 q 393 689 333 657 q 522 721 453 721 m 142 1081 l 288 1081 l 315 794 l 226 794 l 142 1081 m 336 1081 l 482 1081 l 510 794 l 419 794 l 336 1081 z "},"ṛ":{"ha":569,"x_min":43,"x_max":597,"o":"m 522 721 q 597 707 567 721 l 583 517 q 481 539 533 539 q 350 496 397 539 q 297 368 303 453 l 267 0 l 57 0 l 97 503 q 103 649 103 600 q 101 704 103 686 l 300 704 l 303 600 q 393 689 333 657 q 522 721 453 721 m 253 -94 l 238 -279 l 43 -279 l 60 -94 l 253 -94 z "},"ȓ":{"ha":569,"x_min":57,"x_max":632,"o":"m 522 721 q 597 707 567 721 l 583 517 q 481 539 533 539 q 350 496 397 539 q 297 368 303 453 l 267 0 l 57 0 l 97 503 q 103 649 103 600 q 101 704 103 686 l 300 704 l 303 600 q 393 689 333 657 q 522 721 453 721 m 381 1063 q 539 1010 471 1063 q 632 861 607 958 l 532 821 q 463 905 506 878 q 371 932 421 932 q 207 821 275 932 l 113 861 q 215 1011 142 960 q 381 1063 289 1063 z "},"ṟ":{"ha":569,"x_min":-75,"x_max":597,"o":"m 522 721 q 597 707 567 721 l 583 517 q 481 539 533 539 q 350 496 397 539 q 297 368 303 453 l 267 0 l 57 0 l 97 503 q 103 649 103 600 q 101 704 103 686 l 300 704 l 303 600 q 393 689 333 657 q 522 721 453 721 m -67 -126 l 372 -126 l 363 -249 l -75 -249 l -67 -126 z "},"s":{"ha":699,"x_min":17,"x_max":663,"o":"m 339 -11 q 17 75 158 -11 l 85 221 q 210 159 143 181 q 343 138 276 138 q 429 154 401 138 q 457 199 457 171 q 424 244 457 228 q 318 283 392 261 q 193 325 242 304 q 109 387 144 346 q 74 493 74 428 q 112 613 74 561 q 220 693 150 664 q 381 722 290 722 q 535 699 460 722 q 663 635 611 675 l 596 494 q 488 551 544 532 q 376 571 431 571 q 290 554 319 571 q 261 508 261 538 q 296 460 261 478 q 401 422 331 442 q 526 379 478 400 q 609 317 574 358 q 644 211 644 276 q 562 48 644 107 q 339 -11 479 -11 z "},"ś":{"ha":699,"x_min":17,"x_max":704,"o":"m 339 -11 q 17 75 158 -11 l 85 221 q 210 159 143 181 q 343 138 276 138 q 429 154 401 138 q 457 199 457 171 q 424 244 457 228 q 318 283 392 261 q 193 325 242 304 q 109 387 144 346 q 74 493 74 428 q 112 613 74 561 q 220 693 150 664 q 381 722 290 722 q 535 699 460 722 q 663 635 611 675 l 596 494 q 488 551 544 532 q 376 571 431 571 q 290 554 319 571 q 261 508 261 538 q 296 460 261 478 q 401 422 331 442 q 526 379 478 400 q 609 317 574 358 q 644 211 644 276 q 562 48 644 107 q 339 -11 479 -11 m 333 794 l 488 1081 l 704 1081 l 463 794 l 333 794 z "},"ṥ":{"ha":699,"x_min":17,"x_max":722,"o":"m 339 -11 q 17 75 158 -11 l 85 221 q 210 159 143 181 q 343 138 276 138 q 429 154 401 138 q 457 199 457 171 q 424 244 457 228 q 318 283 392 261 q 193 325 242 304 q 109 387 144 346 q 74 493 74 428 q 112 613 74 561 q 220 693 150 664 q 381 722 290 722 q 535 699 460 722 q 663 635 611 675 l 596 494 q 488 551 544 532 q 376 571 431 571 q 290 554 319 571 q 261 508 261 538 q 296 460 261 478 q 401 422 331 442 q 526 379 478 400 q 609 317 574 358 q 644 211 644 276 q 562 48 644 107 q 339 -11 479 -11 m 351 779 l 506 1065 l 722 1065 l 481 779 l 351 779 m 378 1065 l 363 868 l 138 868 l 153 1065 l 378 1065 z "},"š":{"ha":699,"x_min":17,"x_max":665,"o":"m 339 -11 q 17 75 158 -11 l 85 221 q 210 159 143 181 q 343 138 276 138 q 429 154 401 138 q 457 199 457 171 q 424 244 457 228 q 318 283 392 261 q 193 325 242 304 q 109 387 144 346 q 74 493 74 428 q 112 613 74 561 q 220 693 150 664 q 381 722 290 722 q 535 699 460 722 q 663 635 611 675 l 596 494 q 488 551 544 532 q 376 571 431 571 q 290 554 319 571 q 261 508 261 538 q 296 460 261 478 q 401 422 331 442 q 526 379 478 400 q 609 317 574 358 q 644 211 644 276 q 562 48 644 107 q 339 -11 479 -11 m 665 1081 l 461 794 l 335 794 l 175 1081 l 335 1081 l 408 917 l 497 1081 l 665 1081 z "},"ṧ":{"ha":699,"x_min":17,"x_max":665,"o":"m 339 -11 q 17 75 158 -11 l 85 221 q 210 159 143 181 q 343 138 276 138 q 429 154 401 138 q 457 199 457 171 q 424 244 457 228 q 318 283 392 261 q 193 325 242 304 q 109 387 144 346 q 74 493 74 428 q 112 613 74 561 q 220 693 150 664 q 381 722 290 722 q 535 699 460 722 q 663 635 611 675 l 596 494 q 488 551 544 532 q 376 571 431 571 q 290 554 319 571 q 261 508 261 538 q 296 460 261 478 q 401 422 331 442 q 526 379 478 400 q 609 317 574 358 q 644 211 644 276 q 562 48 644 107 q 339 -11 479 -11 m 665 1081 l 461 794 l 335 794 l 175 1081 l 335 1081 l 408 917 l 497 1081 l 665 1081 m 550 1303 l 535 1106 l 310 1106 l 325 1303 l 550 1303 z "},"ş":{"ha":699,"x_min":17,"x_max":663,"o":"m 261 508 q 296 460 261 478 q 401 422 331 442 q 526 379 478 400 q 609 317 574 358 q 644 211 644 276 q 569 53 644 113 q 364 -11 494 -6 l 354 -56 l 364 -56 q 447 -81 415 -56 q 479 -151 479 -107 q 430 -241 479 -206 q 293 -276 381 -276 q 218 -270 257 -276 q 153 -251 179 -264 l 175 -169 q 288 -189 238 -189 q 350 -153 350 -189 q 339 -133 350 -140 q 307 -125 328 -125 q 256 -135 292 -125 l 231 -106 l 251 -6 q 17 75 124 8 l 85 221 q 210 159 143 181 q 343 138 276 138 q 429 154 401 138 q 457 199 457 171 q 424 244 457 228 q 318 283 392 261 q 193 325 242 304 q 109 387 144 346 q 74 493 74 428 q 112 613 74 561 q 220 693 150 664 q 381 722 290 722 q 535 699 460 722 q 663 635 611 675 l 596 494 q 488 551 544 532 q 376 571 431 571 q 290 554 319 571 q 261 508 261 538 z "},"ŝ":{"ha":699,"x_min":17,"x_max":663,"o":"m 339 -11 q 17 75 158 -11 l 85 221 q 210 159 143 181 q 343 138 276 138 q 429 154 401 138 q 457 199 457 171 q 424 244 457 228 q 318 283 392 261 q 193 325 242 304 q 109 387 144 346 q 74 493 74 428 q 112 613 74 561 q 220 693 150 664 q 381 722 290 722 q 535 699 460 722 q 663 635 611 675 l 596 494 q 488 551 544 532 q 376 571 431 571 q 290 554 319 571 q 261 508 261 538 q 296 460 261 478 q 401 422 331 442 q 526 379 478 400 q 609 317 574 358 q 644 211 644 276 q 562 48 644 107 q 339 -11 479 -11 m 153 794 l 357 1081 l 483 1081 l 643 794 l 483 794 l 411 957 l 321 794 l 153 794 z "},"ș":{"ha":699,"x_min":17,"x_max":663,"o":"m 339 -11 q 17 75 158 -11 l 85 221 q 210 159 143 181 q 343 138 276 138 q 429 154 401 138 q 457 199 457 171 q 424 244 457 228 q 318 283 392 261 q 193 325 242 304 q 109 387 144 346 q 74 493 74 428 q 112 613 74 561 q 220 693 150 664 q 381 722 290 722 q 535 699 460 722 q 663 635 611 675 l 596 494 q 488 551 544 532 q 376 571 431 571 q 290 554 319 571 q 261 508 261 538 q 296 460 261 478 q 401 422 331 442 q 526 379 478 400 q 609 317 574 358 q 644 211 644 276 q 562 48 644 107 q 339 -11 479 -11 m 419 -93 l 413 -182 q 384 -296 407 -247 q 311 -386 361 -344 l 240 -333 q 296 -251 283 -294 l 197 -251 l 210 -93 l 419 -93 z "},"ṡ":{"ha":699,"x_min":17,"x_max":663,"o":"m 339 -11 q 17 75 158 -11 l 85 221 q 210 159 143 181 q 343 138 276 138 q 429 154 401 138 q 457 199 457 171 q 424 244 457 228 q 318 283 392 261 q 193 325 242 304 q 109 387 144 346 q 74 493 74 428 q 112 613 74 561 q 220 693 150 664 q 381 722 290 722 q 535 699 460 722 q 663 635 611 675 l 596 494 q 488 551 544 532 q 376 571 431 571 q 290 554 319 571 q 261 508 261 538 q 296 460 261 478 q 401 422 331 442 q 526 379 478 400 q 609 317 574 358 q 644 211 644 276 q 562 48 644 107 q 339 -11 479 -11 m 529 1035 l 514 838 l 289 838 l 304 1035 l 529 1035 z "},"ṣ":{"ha":699,"x_min":17,"x_max":663,"o":"m 339 -11 q 17 75 158 -11 l 85 221 q 210 159 143 181 q 343 138 276 138 q 429 154 401 138 q 457 199 457 171 q 424 244 457 228 q 318 283 392 261 q 193 325 242 304 q 109 387 144 346 q 74 493 74 428 q 112 613 74 561 q 220 693 150 664 q 381 722 290 722 q 535 699 460 722 q 663 635 611 675 l 596 494 q 488 551 544 532 q 376 571 431 571 q 290 554 319 571 q 261 508 261 538 q 296 460 261 478 q 401 422 331 442 q 526 379 478 400 q 609 317 574 358 q 644 211 644 276 q 562 48 644 107 q 339 -11 479 -11 m 413 -94 l 397 -279 l 203 -279 l 219 -94 l 413 -94 z "},"ṩ":{"ha":699,"x_min":17,"x_max":663,"o":"m 339 -11 q 17 75 158 -11 l 85 221 q 210 159 143 181 q 343 138 276 138 q 429 154 401 138 q 457 199 457 171 q 424 244 457 228 q 318 283 392 261 q 193 325 242 304 q 109 387 144 346 q 74 493 74 428 q 112 613 74 561 q 220 693 150 664 q 381 722 290 722 q 535 699 460 722 q 663 635 611 675 l 596 494 q 488 551 544 532 q 376 571 431 571 q 290 554 319 571 q 261 508 261 538 q 296 460 261 478 q 401 422 331 442 q 526 379 478 400 q 609 317 574 358 q 644 211 644 276 q 562 48 644 107 q 339 -11 479 -11 m 413 -94 l 397 -279 l 203 -279 l 219 -94 l 413 -94 m 529 1035 l 514 838 l 289 838 l 304 1035 l 529 1035 z "},"ß":{"ha":971,"x_min":58,"x_max":932,"o":"m 647 518 q 863 418 794 485 q 932 246 932 351 q 892 113 932 172 q 782 22 853 54 q 619 -11 711 -11 q 469 11 543 -11 q 339 75 396 33 l 408 221 q 522 163 464 183 q 626 142 579 142 q 709 167 679 142 q 739 238 739 192 q 667 345 739 300 q 435 431 596 390 l 447 585 q 608 658 561 614 q 656 768 656 701 q 619 853 656 824 q 518 883 582 883 q 379 833 426 883 q 324 672 332 782 l 268 0 l 58 0 l 110 642 q 524 1035 142 1035 q 764 970 675 1035 q 853 788 853 906 q 803 631 853 697 q 647 518 754 564 z "},"t":{"ha":550,"x_min":22,"x_max":557,"o":"m 343 274 q 367 188 339 215 q 443 160 394 160 q 514 171 475 160 l 500 8 q 378 -11 453 -11 q 195 53 258 -11 q 132 233 132 117 q 133 269 132 257 l 156 547 l 22 547 l 35 704 l 168 704 l 181 869 l 396 938 l 378 704 l 557 704 l 544 547 l 365 547 l 343 274 z "},"ŧ":{"ha":564,"x_min":31,"x_max":564,"o":"m 372 547 l 367 472 l 517 472 l 506 325 l 354 325 l 350 274 q 373 188 344 215 q 451 160 401 160 q 521 171 483 160 l 507 8 q 385 -11 460 -11 q 202 53 265 -11 q 139 233 139 117 q 140 269 139 257 l 144 325 l 40 325 l 51 472 l 156 472 l 163 547 l 31 547 l 42 704 l 175 704 l 188 869 l 404 938 l 385 704 l 564 704 l 551 547 l 372 547 z "},"ť":{"ha":550,"x_min":22,"x_max":625,"o":"m 556 746 l 439 746 l 464 992 l 625 992 l 556 746 m 378 704 l 557 704 l 544 547 l 365 547 l 343 274 q 367 188 339 215 q 443 160 394 160 q 514 171 475 160 l 500 8 q 378 -11 453 -11 q 195 53 258 -11 q 132 233 132 117 q 133 269 132 257 l 156 547 l 22 547 l 35 704 l 168 704 l 181 869 l 396 938 l 378 704 z "},"ţ":{"ha":550,"x_min":22,"x_max":557,"o":"m 343 274 q 367 188 339 215 q 443 160 394 160 q 514 171 475 160 l 500 8 q 378 -11 453 -11 l 361 -11 l 351 -56 l 361 -56 q 444 -81 413 -56 q 476 -151 476 -107 q 427 -241 476 -206 q 290 -276 378 -276 q 215 -270 254 -276 q 150 -251 176 -264 l 172 -169 q 285 -189 235 -189 q 347 -153 347 -189 q 336 -133 347 -140 q 304 -125 325 -125 q 253 -135 289 -125 l 228 -106 l 253 13 q 163 96 193 39 q 132 233 132 153 q 133 269 132 257 l 156 547 l 22 547 l 35 704 l 168 704 l 181 869 l 396 938 l 378 704 l 557 704 l 544 547 l 365 547 l 343 274 z "},"ț":{"ha":550,"x_min":22,"x_max":557,"o":"m 343 274 q 367 188 339 215 q 443 160 394 160 q 514 171 475 160 l 500 8 q 378 -11 453 -11 q 195 53 258 -11 q 132 233 132 117 q 133 269 132 257 l 156 547 l 22 547 l 35 704 l 168 704 l 181 869 l 396 938 l 378 704 l 557 704 l 544 547 l 365 547 l 343 274 m 417 -93 l 410 -182 q 381 -296 404 -247 q 308 -386 358 -344 l 238 -333 q 293 -251 281 -294 l 194 -251 l 207 -93 l 417 -93 z "},"ẗ":{"ha":550,"x_min":22,"x_max":557,"o":"m 343 274 q 367 188 339 215 q 443 160 394 160 q 514 171 475 160 l 500 8 q 378 -11 453 -11 q 195 53 258 -11 q 132 233 132 117 q 133 269 132 257 l 156 547 l 22 547 l 35 704 l 168 704 l 181 869 l 396 938 l 378 704 l 557 704 l 544 547 l 365 547 l 343 274 m 276 1197 l 261 1014 l 67 1014 l 82 1197 l 276 1197 m 543 1197 l 528 1014 l 333 1014 l 349 1197 l 543 1197 z "},"ṭ":{"ha":550,"x_min":22,"x_max":557,"o":"m 343 274 q 367 188 339 215 q 443 160 394 160 q 514 171 475 160 l 500 8 q 378 -11 453 -11 q 195 53 258 -11 q 132 233 132 117 q 133 269 132 257 l 156 547 l 22 547 l 35 704 l 168 704 l 181 869 l 396 938 l 378 704 l 557 704 l 544 547 l 365 547 l 343 274 m 410 -94 l 394 -279 l 200 -279 l 217 -94 l 410 -94 z "},"ṯ":{"ha":550,"x_min":22,"x_max":557,"o":"m 343 274 q 367 188 339 215 q 443 160 394 160 q 514 171 475 160 l 500 8 q 378 -11 453 -11 q 195 53 258 -11 q 132 233 132 117 q 133 269 132 257 l 156 547 l 22 547 l 35 704 l 168 704 l 181 869 l 396 938 l 378 704 l 557 704 l 544 547 l 365 547 l 343 274 m 90 -126 l 529 -126 l 519 -249 l 82 -249 l 90 -126 z "},"u":{"ha":842,"x_min":74,"x_max":785,"o":"m 785 704 l 729 0 l 525 0 l 532 90 q 438 15 496 42 q 310 -11 379 -11 q 134 53 194 -11 q 74 239 74 117 q 76 286 74 253 l 108 704 l 319 704 l 286 299 q 396 153 275 153 q 499 196 461 153 q 543 314 538 239 l 575 704 l 785 704 z "},"ú":{"ha":842,"x_min":74,"x_max":785,"o":"m 785 704 l 729 0 l 525 0 l 532 90 q 438 15 496 42 q 310 -11 379 -11 q 134 53 194 -11 q 74 239 74 117 q 76 286 74 253 l 108 704 l 319 704 l 286 299 q 396 153 275 153 q 499 196 461 153 q 543 314 538 239 l 575 704 l 785 704 m 390 794 l 544 1081 l 761 1081 l 519 794 l 390 794 z "},"ŭ":{"ha":842,"x_min":74,"x_max":785,"o":"m 785 704 l 729 0 l 525 0 l 532 90 q 438 15 496 42 q 310 -11 379 -11 q 134 53 194 -11 q 74 239 74 117 q 76 286 74 253 l 108 704 l 319 704 l 286 299 q 396 153 275 153 q 499 196 461 153 q 543 314 538 239 l 575 704 l 785 704 m 465 825 q 306 877 375 825 q 214 1028 238 929 l 314 1069 q 474 957 365 957 q 639 1069 572 957 l 733 1028 q 630 876 703 928 q 465 825 557 825 z "},"û":{"ha":842,"x_min":74,"x_max":785,"o":"m 785 704 l 729 0 l 525 0 l 532 90 q 438 15 496 42 q 310 -11 379 -11 q 134 53 194 -11 q 74 239 74 117 q 76 286 74 253 l 108 704 l 319 704 l 286 299 q 396 153 275 153 q 499 196 461 153 q 543 314 538 239 l 575 704 l 785 704 m 210 794 l 414 1081 l 540 1081 l 700 794 l 540 794 l 468 957 l 378 794 l 210 794 z "},"ȕ":{"ha":842,"x_min":74,"x_max":785,"o":"m 785 704 l 729 0 l 525 0 l 532 90 q 438 15 496 42 q 310 -11 379 -11 q 134 53 194 -11 q 74 239 74 117 q 76 286 74 253 l 108 704 l 319 704 l 286 299 q 396 153 275 153 q 499 196 461 153 q 543 314 538 239 l 575 704 l 785 704 m 229 1081 l 375 1081 l 403 794 l 314 794 l 229 1081 m 424 1081 l 569 1081 l 597 794 l 507 794 l 424 1081 z "},"ü":{"ha":842,"x_min":74,"x_max":785,"o":"m 785 704 l 729 0 l 525 0 l 532 90 q 438 15 496 42 q 310 -11 379 -11 q 134 53 194 -11 q 74 239 74 117 q 76 286 74 253 l 108 704 l 319 704 l 286 299 q 396 153 275 153 q 499 196 461 153 q 543 314 538 239 l 575 704 l 785 704 m 436 1028 l 422 844 l 228 844 l 243 1028 l 436 1028 m 704 1028 l 688 844 l 494 844 l 510 1028 l 704 1028 z "},"ụ":{"ha":842,"x_min":74,"x_max":785,"o":"m 785 704 l 729 0 l 525 0 l 532 90 q 438 15 496 42 q 310 -11 379 -11 q 134 53 194 -11 q 74 239 74 117 q 76 286 74 253 l 108 704 l 319 704 l 286 299 q 396 153 275 153 q 499 196 461 153 q 543 314 538 239 l 575 704 l 785 704 m 483 -94 l 468 -279 l 274 -279 l 290 -94 l 483 -94 z "},"ù":{"ha":842,"x_min":74,"x_max":785,"o":"m 785 704 l 729 0 l 525 0 l 532 90 q 438 15 496 42 q 310 -11 379 -11 q 134 53 194 -11 q 74 239 74 117 q 76 286 74 253 l 108 704 l 319 704 l 286 299 q 396 153 275 153 q 499 196 461 153 q 543 314 538 239 l 575 704 l 785 704 m 206 1081 l 399 1081 l 519 794 l 390 794 l 206 1081 z "},"ủ":{"ha":842,"x_min":74,"x_max":785,"o":"m 785 704 l 729 0 l 525 0 l 532 90 q 438 15 496 42 q 310 -11 379 -11 q 134 53 194 -11 q 74 239 74 117 q 76 286 74 253 l 108 704 l 319 704 l 286 299 q 396 153 275 153 q 499 196 461 153 q 543 314 538 239 l 575 704 l 785 704 m 510 794 l 404 794 l 407 829 q 424 878 408 858 q 465 917 439 897 q 492 942 483 932 q 500 963 500 951 q 456 992 500 992 q 383 979 421 992 l 361 1063 q 492 1085 422 1085 q 599 1056 561 1085 q 638 986 638 1028 q 619 928 638 950 q 564 882 600 907 q 525 852 538 865 q 511 822 513 839 l 510 794 z "},"ư":{"ha":876,"x_min":74,"x_max":960,"o":"m 960 883 l 957 831 q 902 689 951 747 q 776 613 853 631 l 729 0 l 525 0 l 532 90 q 438 15 496 42 q 310 -11 379 -11 q 134 53 194 -11 q 74 239 74 117 q 76 286 74 253 l 108 704 l 319 704 l 286 299 q 396 153 275 153 q 499 196 461 153 q 543 314 538 239 l 575 704 l 635 704 q 740 739 707 704 q 778 856 774 774 l 779 883 l 960 883 z "},"ứ":{"ha":876,"x_min":74,"x_max":960,"o":"m 960 883 l 957 831 q 902 689 951 747 q 776 613 853 631 l 729 0 l 525 0 l 532 90 q 438 15 496 42 q 310 -11 379 -11 q 134 53 194 -11 q 74 239 74 117 q 76 286 74 253 l 108 704 l 319 704 l 286 299 q 396 153 275 153 q 499 196 461 153 q 543 314 538 239 l 575 704 l 635 704 q 740 739 707 704 q 778 856 774 774 l 779 883 l 960 883 m 392 794 l 546 1081 l 763 1081 l 521 794 l 392 794 z "},"ự":{"ha":876,"x_min":74,"x_max":960,"o":"m 960 883 l 957 831 q 902 689 951 747 q 776 613 853 631 l 729 0 l 525 0 l 532 90 q 438 15 496 42 q 310 -11 379 -11 q 134 53 194 -11 q 74 239 74 117 q 76 286 74 253 l 108 704 l 319 704 l 286 299 q 396 153 275 153 q 499 196 461 153 q 543 314 538 239 l 575 704 l 635 704 q 740 739 707 704 q 778 856 774 774 l 779 883 l 960 883 m 485 -94 l 469 -279 l 275 -279 l 292 -94 l 485 -94 z "},"ừ":{"ha":876,"x_min":74,"x_max":960,"o":"m 960 883 l 957 831 q 902 689 951 747 q 776 613 853 631 l 729 0 l 525 0 l 532 90 q 438 15 496 42 q 310 -11 379 -11 q 134 53 194 -11 q 74 239 74 117 q 76 286 74 253 l 108 704 l 319 704 l 286 299 q 396 153 275 153 q 499 196 461 153 q 543 314 538 239 l 575 704 l 635 704 q 740 739 707 704 q 778 856 774 774 l 779 883 l 960 883 m 207 1081 l 400 1081 l 521 794 l 392 794 l 207 1081 z "},"ử":{"ha":876,"x_min":74,"x_max":960,"o":"m 960 883 l 957 831 q 902 689 951 747 q 776 613 853 631 l 729 0 l 525 0 l 532 90 q 438 15 496 42 q 310 -11 379 -11 q 134 53 194 -11 q 74 239 74 117 q 76 286 74 253 l 108 704 l 319 704 l 286 299 q 396 153 275 153 q 499 196 461 153 q 543 314 538 239 l 575 704 l 635 704 q 740 739 707 704 q 778 856 774 774 l 779 883 l 960 883 m 511 794 l 406 794 l 408 829 q 425 878 410 858 q 467 917 440 897 q 493 942 485 932 q 501 963 501 951 q 457 992 501 992 q 385 979 422 992 l 363 1063 q 493 1085 424 1085 q 601 1056 563 1085 q 639 986 639 1028 q 620 928 639 950 q 565 882 601 907 q 526 852 539 865 q 513 822 514 839 l 511 794 z "},"ữ":{"ha":876,"x_min":74,"x_max":960,"o":"m 960 883 l 957 831 q 902 689 951 747 q 776 613 853 631 l 729 0 l 525 0 l 532 90 q 438 15 496 42 q 310 -11 379 -11 q 134 53 194 -11 q 74 239 74 117 q 76 286 74 253 l 108 704 l 319 704 l 286 299 q 396 153 275 153 q 499 196 461 153 q 543 314 538 239 l 575 704 l 635 704 q 740 739 707 704 q 778 856 774 774 l 779 883 l 960 883 m 215 839 q 267 992 221 943 q 376 1042 314 1042 q 430 1031 406 1042 q 490 1000 454 1021 q 534 976 519 983 q 565 969 549 969 q 629 1038 621 969 l 721 1038 q 668 884 714 933 q 558 835 622 835 q 505 845 529 835 q 447 876 481 856 q 425 888 442 879 q 395 902 408 897 q 371 907 382 907 q 306 839 315 907 l 215 839 z "},"ű":{"ha":842,"x_min":74,"x_max":785,"o":"m 785 704 l 729 0 l 525 0 l 532 90 q 438 15 496 42 q 310 -11 379 -11 q 134 53 194 -11 q 74 239 74 117 q 76 286 74 253 l 108 704 l 319 704 l 286 299 q 396 153 275 153 q 499 196 461 153 q 543 314 538 239 l 575 704 l 785 704 m 314 794 l 381 1081 l 538 1081 l 403 794 l 314 794 m 507 794 l 575 1081 l 732 1081 l 597 794 l 507 794 z "},"ȗ":{"ha":842,"x_min":74,"x_max":785,"o":"m 785 704 l 729 0 l 525 0 l 532 90 q 438 15 496 42 q 310 -11 379 -11 q 134 53 194 -11 q 74 239 74 117 q 76 286 74 253 l 108 704 l 319 704 l 286 299 q 396 153 275 153 q 499 196 461 153 q 543 314 538 239 l 575 704 l 785 704 m 468 1063 q 626 1010 558 1063 q 719 861 694 958 l 619 821 q 551 905 593 878 q 458 932 508 932 q 294 821 363 932 l 200 861 q 303 1011 229 960 q 468 1063 376 1063 z "},"ū":{"ha":842,"x_min":74,"x_max":785,"o":"m 785 704 l 729 0 l 525 0 l 532 90 q 438 15 496 42 q 310 -11 379 -11 q 134 53 194 -11 q 74 239 74 117 q 76 286 74 253 l 108 704 l 319 704 l 286 299 q 396 153 275 153 q 499 196 461 153 q 543 314 538 239 l 575 704 l 785 704 m 251 1000 l 690 1000 l 679 869 l 242 869 l 251 1000 z "},"ṻ":{"ha":842,"x_min":74,"x_max":785,"o":"m 785 704 l 729 0 l 525 0 l 532 90 q 438 15 496 42 q 310 -11 379 -11 q 134 53 194 -11 q 74 239 74 117 q 76 286 74 253 l 108 704 l 319 704 l 286 299 q 396 153 275 153 q 499 196 461 153 q 543 314 538 239 l 575 704 l 785 704 m 251 1000 l 690 1000 l 679 869 l 242 869 l 251 1000 m 457 1296 l 443 1113 l 249 1113 l 264 1296 l 457 1296 m 725 1296 l 708 1113 l 515 1113 l 531 1296 l 725 1296 z "},"ų":{"ha":842,"x_min":74,"x_max":785,"o":"m 665 -172 q 749 -153 706 -172 l 765 -253 q 631 -283 690 -283 q 499 -241 549 -283 q 450 -131 450 -199 q 469 -51 450 -87 q 526 10 489 -15 l 532 90 q 438 15 496 42 q 310 -11 379 -11 q 134 53 194 -11 q 74 239 74 117 q 76 286 74 253 l 108 704 l 319 704 l 286 299 q 396 153 275 153 q 499 196 461 153 q 543 314 538 239 l 575 704 l 785 704 l 729 0 l 708 0 q 621 -28 653 0 q 589 -99 589 -56 q 609 -153 589 -133 q 665 -172 629 -172 z "},"ů":{"ha":842,"x_min":74,"x_max":785,"o":"m 785 704 l 729 0 l 525 0 l 532 90 q 438 15 496 42 q 310 -11 379 -11 q 134 53 194 -11 q 74 239 74 117 q 76 286 74 253 l 108 704 l 319 704 l 286 299 q 396 153 275 153 q 499 196 461 153 q 543 314 538 239 l 575 704 l 785 704 m 467 788 q 358 831 401 788 q 314 939 314 875 q 358 1045 314 1001 q 467 1089 403 1089 q 575 1045 531 1089 q 619 939 619 1001 q 575 831 619 875 q 467 788 531 788 m 467 874 q 510 892 493 874 q 526 939 526 911 q 510 983 526 965 q 467 1001 493 1001 q 423 983 440 1001 q 406 939 406 965 q 423 892 406 911 q 467 874 440 874 z "},"ũ":{"ha":842,"x_min":74,"x_max":785,"o":"m 785 704 l 729 0 l 525 0 l 532 90 q 438 15 496 42 q 310 -11 379 -11 q 134 53 194 -11 q 74 239 74 117 q 76 286 74 253 l 108 704 l 319 704 l 286 299 q 396 153 275 153 q 499 196 461 153 q 543 314 538 239 l 575 704 l 785 704 m 214 839 q 266 992 219 943 q 375 1042 313 1042 q 428 1031 404 1042 q 489 1000 453 1021 q 533 976 518 983 q 564 969 547 969 q 628 1038 619 969 l 719 1038 q 667 884 713 933 q 557 835 621 835 q 503 845 528 835 q 446 876 479 856 q 424 888 440 879 q 394 902 407 897 q 369 907 381 907 q 304 839 314 907 l 214 839 z "},"ṹ":{"ha":842,"x_min":74,"x_max":785,"o":"m 785 704 l 729 0 l 525 0 l 532 90 q 438 15 496 42 q 310 -11 379 -11 q 134 53 194 -11 q 74 239 74 117 q 76 286 74 253 l 108 704 l 319 704 l 286 299 q 396 153 275 153 q 499 196 461 153 q 543 314 538 239 l 575 704 l 785 704 m 214 839 q 266 992 219 943 q 375 1042 313 1042 q 428 1031 404 1042 q 489 1000 453 1021 q 533 976 518 983 q 564 969 547 969 q 628 1038 619 969 l 719 1038 q 667 884 713 933 q 557 835 621 835 q 503 845 528 835 q 446 876 479 856 q 424 888 440 879 q 394 902 407 897 q 369 907 381 907 q 304 839 314 907 l 214 839 m 411 1063 l 565 1349 l 782 1349 l 540 1063 l 411 1063 z "},"v":{"ha":764,"x_min":14,"x_max":808,"o":"m 808 703 l 442 0 l 264 0 l 14 703 l 226 703 l 378 249 l 597 703 l 808 703 z "},"w":{"ha":1238,"x_min":28,"x_max":1264,"o":"m 1264 704 l 924 0 l 747 0 l 618 407 l 435 0 l 257 0 l 28 704 l 238 704 l 372 251 l 574 704 l 718 704 l 850 246 l 1056 704 l 1264 704 z "},"ẃ":{"ha":1238,"x_min":28,"x_max":1264,"o":"m 1264 704 l 924 0 l 747 0 l 618 407 l 435 0 l 257 0 l 28 704 l 238 704 l 372 251 l 574 704 l 718 704 l 850 246 l 1056 704 l 1264 704 m 589 794 l 743 1081 l 960 1081 l 718 794 l 589 794 z "},"ŵ":{"ha":1238,"x_min":28,"x_max":1264,"o":"m 1264 704 l 924 0 l 747 0 l 618 407 l 435 0 l 257 0 l 28 704 l 238 704 l 372 251 l 574 704 l 718 704 l 850 246 l 1056 704 l 1264 704 m 408 794 l 613 1081 l 739 1081 l 899 794 l 739 794 l 667 957 l 576 794 l 408 794 z "},"ẅ":{"ha":1238,"x_min":28,"x_max":1264,"o":"m 1264 704 l 924 0 l 747 0 l 618 407 l 435 0 l 257 0 l 28 704 l 238 704 l 372 251 l 574 704 l 718 704 l 850 246 l 1056 704 l 1264 704 m 635 1028 l 621 844 l 426 844 l 442 1028 l 635 1028 m 903 1028 l 886 844 l 693 844 l 708 1028 l 903 1028 z "}}}
